<svg version="1.1" xmlns="http://www.w3.org/2000/svg" style="display: block;" viewBox="0 0 1536 1536" width="384" height="384" preserveAspectRatio="none">
<path transform="translate(0,0)" fill="rgb(0,0,0)" d="M 827.671 320.366 C 846.933 319.251 863.986 326.086 877.751 339.447 C 904.49 365.401 930.698 391.948 957.053 418.3 L 1112.27 573.592 L 1213.86 675.116 C 1230.82 692.074 1249.07 709.182 1264.8 727.119 C 1287.44 752.943 1283.32 790.695 1259.88 814.392 C 1232.53 842.044 1205.12 869.378 1177.66 896.819 L 1017.3 1057.16 L 920.609 1153.88 C 905.407 1169.1 886.284 1190.41 869.69 1203.42 C 823.569 1237.89 758.484 1197.33 769.238 1140.47 C 774.18 1114.33 792.007 1100.72 809.982 1082.72 L 855.434 1037.23 C 916.828 975.81 981.392 913.051 1041.65 850.867 C 1049.02 843.979 1053.15 838.865 1061.65 832.726 C 1043.31 831.449 1015.47 832.317 996.579 832.318 L 874.237 832.32 L 492.168 832.325 L 376.007 832.363 C 343.629 832.382 304.38 838.098 278.546 816.609 C 236.875 781.947 256.676 710.908 310.879 704.883 C 331.96 702.54 356.194 703.916 377.567 703.962 L 499.448 703.98 L 870.668 703.987 L 992.68 704.029 C 1014.39 704.034 1040.42 704.721 1061.59 703.629 C 1044.34 688.422 1020.72 663.389 1003.94 646.616 L 898.564 541.254 L 823.189 465.871 C 808.924 451.603 793.344 436.99 780.536 421.524 C 773.575 413.117 770.198 403.93 768.748 393.063 C 766.364 375.782 771.058 358.271 781.767 344.5 C 794.265 328.491 808.247 322.72 827.671 320.366 z"/>
</svg>