<svg version="1.1" xmlns="http://www.w3.org/2000/svg" style="display: block;" viewBox="0 0 1536 1536" width="384" height="384" preserveAspectRatio="none">
<path transform="translate(0,0)" fill="rgb(254,0,0)" d="M 819.88 321.34 C 844.764 317.127 865.352 324.993 882.852 342.635 C 910.282 370.285 937.84 397.826 965.379 425.369 L 1140.41 600.388 L 1222.27 682.169 C 1237.95 697.764 1255.94 714.258 1269.62 731.539 C 1277.91 742.014 1279.26 754.23 1279.68 767.232 C 1280.46 791.766 1270.58 805.853 1253.7 822.725 C 1167.37 909.037 1080.96 995.361 994.667 1081.71 L 914.253 1162.16 C 901.15 1175.27 887.645 1190.1 873.442 1201.77 C 832.776 1234.15 769.127 1209.29 768.322 1155.1 C 767.758 1117.11 787.584 1103.68 812.579 1078.95 L 859.473 1032.23 C 919.421 972.236 979.653 910.971 1040.23 851.753 C 1046.07 845.627 1054.69 838.029 1061.06 832.11 L 544.225 832.217 L 390.622 832.296 C 364.808 832.312 336.652 832.99 310.967 831.364 C 296.935 829.94 283.831 823.041 274.029 813.346 C 238.163 777.871 257.872 707.176 312.198 705.044 C 339.408 703.976 366.51 704.331 393.828 704.336 L 554.27 704.371 L 1062.62 704.117 C 1051.32 696.031 1028.86 672.389 1017.87 661.413 L 938.938 582.499 L 838.858 482.433 C 820.613 464.236 798.188 444.015 782.066 424.37 C 751.987 387.717 771.114 329.169 819.88 321.34 z"/>
</svg>