<?xml version="1.0" standalone="no"?>
<!DOCTYPE svg PUBLIC "-//W3C//DTD SVG 20010904//EN"
 "http://www.w3.org/TR/2001/REC-SVG-20010904/DTD/svg10.dtd">
<svg version="1.0" xmlns="http://www.w3.org/2000/svg"
 width="384.000000pt" height="384.000000pt" viewBox="0 0 384.000000 384.000000"
 preserveAspectRatio="xMidYMid meet">

<g transform="translate(0.000000,384.000000) scale(0.100000,-0.100000)"
fill="#000000" stroke="none">
<path d="M275 3630 c-44 -18 -70 -59 -70 -111 0 -42 5 -53 33 -81 l32 -33 133
-6 c72 -3 144 -10 158 -16 42 -18 84 -59 102 -100 22 -51 497 -1901 497 -1936
0 -44 -26 -96 -93 -184 -61 -81 -62 -82 -107 -83 -159 -1 -319 -99 -389 -238
-136 -270 24 -584 324 -635 185 -32 387 77 461 248 l28 65 456 0 455 -1 29
-65 c78 -173 277 -278 466 -246 189 32 330 175 363 367 39 230 -126 456 -363
497 -189 32 -388 -72 -465 -245 l-30 -66 -455 -1 -456 0 -27 64 c-17 37 -48
85 -75 113 l-47 48 55 76 c30 42 60 83 65 92 8 12 132 25 700 72 380 31 731
62 780 70 298 47 432 159 499 416 27 103 38 185 91 674 20 182 38 340 40 351
4 18 14 22 56 26 40 4 58 12 82 37 27 27 32 39 32 81 0 43 -5 54 -33 82 l-32
33 -1290 3 -1289 2 -12 43 c-6 23 -26 100 -45 171 -18 71 -45 154 -60 185 -53
108 -162 193 -291 226 -62 16 -273 20 -308 5z m2904 -1297 c-54 -482 -67 -561
-108 -649 -43 -91 -96 -121 -261 -149 -79 -14 -1411 -129 -1414 -123 -1 2 -38
149 -83 328 -46 179 -123 481 -172 673 l-89 347 1087 0 1087 0 -47 -427z
m-2109 -1527 c59 -39 85 -89 85 -166 0 -78 -26 -127 -88 -168 -56 -37 -153
-39 -210 -3 -76 47 -111 140 -88 229 14 51 75 117 123 131 53 16 135 6 178
-23z m1760 0 c59 -39 85 -89 85 -166 0 -78 -26 -127 -88 -168 -56 -37 -153
-39 -210 -3 -76 47 -111 140 -88 229 14 51 75 117 123 131 53 16 135 6 178
-23z"/>
</g>
</svg>
