<svg version="1.1" xmlns="http://www.w3.org/2000/svg" style="display: block;" viewBox="0 0 1536 1536" width="384" height="384" preserveAspectRatio="none">
<path transform="translate(0,0)" fill="rgb(254,0,0)" d="M 129.162 64.436 C 206.037 64.0062 258.541 58.1869 321.455 112.96 C 371.881 156.861 379.726 202.992 395.089 265.046 C 398.075 277.109 407.913 310.449 408.459 320.659 C 425.11 318.821 451.057 320.322 468.618 320.36 L 578.856 320.404 L 929.291 320.381 L 1251.65 320.369 L 1355.17 320.296 C 1374.44 320.287 1394.37 319.914 1413.57 320.827 C 1428.62 321.329 1440.31 326.316 1451.65 335.978 C 1477.63 358.119 1479.08 403.791 1455.27 428.148 C 1439.26 444.526 1424.35 447.674 1402.34 448.589 C 1401.46 460.332 1399.17 472.895 1397.95 484.796 L 1382.33 625.723 C 1377.66 668.411 1373.19 711.067 1368.18 753.75 C 1364.23 795.951 1357.28 835.459 1345.41 876.099 C 1297.74 1039.2 1137.8 1036.53 997.689 1048.76 L 718.735 1071.97 L 612.425 1080.85 C 597.81 1082.16 567.164 1086.1 554.231 1085.22 C 546.455 1101.12 527.529 1126.51 514.764 1138.73 C 533.271 1156.07 562.498 1191.61 565.577 1216.85 C 581.759 1215.6 606.501 1216.34 623.137 1216.35 L 725.478 1216.36 L 836.762 1216.35 C 858.313 1216.35 884.282 1215.64 905.372 1217.25 C 925.726 1162.19 972.019 1110.58 1030.57 1096.28 C 1053.07 1089.31 1067.4 1088.96 1090.14 1088.48 C 1192.58 1086.31 1281.97 1174.23 1279.77 1277.01 C 1279.01 1312.64 1276.42 1335.48 1259.49 1368.44 C 1236.1 1413.37 1196.11 1447.4 1148.01 1463.28 C 1097.95 1478.9 1043.73 1474.12 997.176 1449.98 C 957.315 1429.37 919.659 1386.65 906.063 1343.84 C 889.29 1344.45 871.359 1344.44 854.552 1344.22 C 758.674 1342.96 661.979 1345.94 566.185 1344.11 C 537.764 1425.91 460.118 1475.4 374.481 1471.88 C 324.342 1469.95 277.049 1448.08 243.109 1411.13 C 140.317 1299.42 199.61 1115.92 350.213 1090.72 C 364.068 1088.4 377.419 1088.34 391.412 1088.99 C 443.969 1017.92 457.477 1029.4 434.438 939.285 L 418.731 877.846 L 369.889 688.621 L 295.827 401.399 C 286.578 364.151 277.072 326.968 267.311 289.851 C 261.398 267.21 255.637 232.465 240.432 214.948 C 199.929 169.123 127.78 213.686 84.341 175.7 C 58.8325 153.393 57.0028 109.239 79.8459 84.2405 C 94.0253 68.7232 108.893 65.1745 129.162 64.436 z M 388.469 1342.74 C 423.181 1340.26 449.274 1310.06 446.693 1275.35 C 444.112 1240.65 413.838 1214.64 379.14 1217.31 C 344.577 1219.98 318.688 1250.11 321.259 1284.68 C 323.83 1319.25 353.891 1345.22 388.469 1342.74 z M 1092.47 1342.75 C 1127.18 1340.26 1153.27 1310.06 1150.69 1275.35 C 1148.11 1240.65 1117.84 1214.64 1083.14 1217.31 C 1048.58 1219.98 1022.69 1250.11 1025.26 1284.68 C 1027.83 1319.25 1057.89 1345.22 1092.47 1342.75 z"/>
</svg>