<svg version="1.1" xmlns="http://www.w3.org/2000/svg" style="display: block;" viewBox="0 0 1536 1536" width="384" height="384" preserveAspectRatio="none">
<path transform="translate(0,0)" fill="rgb(254,1,0)" d="M 1035.49 816.482 L 1139.11 816.354 C 1218.74 816.348 1269.9 816.243 1331.35 875.093 C 1409.43 949.88 1388.98 1038.83 1391.85 1135.39 C 1394.11 1211.26 1389.98 1273.73 1333.55 1330.74 C 1287.26 1377.49 1237.83 1391.38 1173.82 1392.09 L 1073.29 1392.26 C 993.978 1392.3 940.468 1392.5 878.999 1334.78 C 798.995 1259.66 818.728 1171.29 816.104 1072.86 C 814.119 998.413 817.889 935.103 873.101 878.424 C 920.325 829.946 970.058 817.166 1035.49 816.482 z"/>
<path transform="translate(0,0)" fill="rgb(254,1,0)" d="M 398.456 144.513 C 427.447 144.28 456.439 144.328 485.429 144.657 C 520.046 145.046 550.133 144.623 583.427 156.196 C 650.399 179.474 702.336 238.103 715.473 308.042 C 719.359 328.734 719.275 352.022 719.602 373.207 C 719.908 405.862 719.982 438.52 719.824 471.177 C 719.498 545.849 717.494 601.605 660.948 658.684 C 600.745 719.455 542.812 719.366 464.652 720.166 C 436.83 720.305 409.008 720.277 381.186 720.082 C 362.486 719.894 344.27 719.369 325.449 717.628 C 237.971 709.534 162.12 638.392 147.889 551.791 C 143.934 527.725 144.558 499.886 144.308 475.492 C 144.118 446.615 144.101 417.738 144.256 388.861 C 144.565 337.765 144.093 296.103 169.667 250.319 C 178.783 234 188.761 219.153 201.983 205.73 C 216.235 191.246 232.609 179.016 250.542 169.461 C 301.426 142.156 342.675 144.905 398.456 144.513 z"/>
<path transform="translate(0,0)" fill="rgb(254,1,0)" d="M 398.456 816.512 C 427.531 816.283 456.608 816.33 485.682 816.653 C 519.918 817.009 549.999 816.677 582.964 828.035 C 650.118 851.173 702.338 909.985 715.467 980.052 C 719.381 1000.94 719.268 1024.41 719.587 1045.8 C 719.887 1078.48 719.958 1111.15 719.8 1143.83 C 719.447 1218.29 717.33 1273.75 660.955 1330.7 C 600.568 1391.7 542.125 1391.38 463.705 1392.16 C 436.496 1392.28 409.286 1392.26 382.078 1392.08 C 362.816 1391.9 343.836 1391.43 324.482 1389.53 C 236.771 1380.93 161.2 1309.2 147.638 1222.18 C 144.062 1199.23 144.599 1173.17 144.354 1149.97 C 144.129 1120.34 144.084 1090.71 144.219 1061.08 C 144.521 1010.09 144.136 967.956 169.668 922.319 C 178.693 906.187 188.696 891.251 201.757 877.974 C 216.06 863.378 232.519 851.063 250.558 841.459 C 301.438 814.15 342.671 816.901 398.456 816.512 z"/>
<path transform="translate(0,0)" fill="rgb(254,1,0)" d="M 1071.27 144.512 C 1100.05 144.292 1128.84 144.345 1157.62 144.671 C 1192.34 145.046 1222.53 144.646 1255.91 156.359 C 1322.67 179.787 1374.38 238.26 1387.47 308.07 C 1391.33 328.643 1391.27 351.729 1391.59 372.782 C 1391.91 405.385 1391.98 437.991 1391.82 470.595 C 1391.51 545.448 1389.66 601.425 1332.96 658.698 C 1272.21 720.049 1213.39 719.415 1134.6 720.153 C 1107.77 720.275 1080.93 720.245 1054.1 720.062 C 1035 719.888 1016.2 719.411 996.99 717.581 C 909.661 709.262 834.124 638.264 819.888 551.789 C 815.989 528.106 816.583 500.961 816.323 476.969 C 816.111 447.552 816.087 418.134 816.251 388.717 C 816.591 337.641 816.095 296.096 841.666 250.334 C 850.667 234.225 860.722 219.225 873.758 205.97 C 888.06 191.377 904.514 179.063 922.548 169.457 C 973.673 142.038 1015.33 144.906 1071.27 144.512 z"/>
</svg>