<?xml version="1.0" standalone="no"?>
<!DOCTYPE svg PUBLIC "-//W3C//DTD SVG 20010904//EN"
 "http://www.w3.org/TR/2001/REC-SVG-20010904/DTD/svg10.dtd">
<svg version="1.0" xmlns="http://www.w3.org/2000/svg"
 width="384.000000pt" height="384.000000pt" viewBox="0 0 384.000000 384.000000"
 preserveAspectRatio="xMidYMid meet">

<g transform="translate(0.000000,384.000000) scale(0.100000,-0.100000)"
fill="#000000" stroke="none">
<path d="M785 3469 c-200 -29 -386 -219 -415 -424 -12 -91 -12 -479 0 -570 29
-206 202 -384 408 -421 104 -18 500 -18 604 0 100 18 187 65 263 141 76 76
123 163 141 263 16 91 19 481 4 587 -30 211 -214 395 -425 425 -84 12 -496 11
-580 -1z m617 -258 c54 -26 109 -83 135 -138 16 -33 18 -71 18 -313 0 -242 -2
-280 -18 -313 -26 -55 -81 -112 -135 -139 -46 -22 -53 -23 -322 -23 -242 0
-280 2 -313 18 -55 26 -112 81 -139 135 -22 46 -23 54 -23 322 0 303 1 311 64
383 42 47 89 76 143 87 24 5 156 8 293 7 239 -2 252 -4 297 -26z"/>
<path d="M2465 3469 c-200 -29 -386 -219 -415 -424 -12 -91 -12 -479 0 -570
29 -206 202 -384 408 -421 104 -18 500 -18 604 0 100 18 187 65 263 141 76 76
123 163 141 263 16 91 19 481 4 587 -30 211 -214 395 -425 425 -84 12 -496 11
-580 -1z m617 -258 c54 -26 109 -83 135 -138 16 -33 18 -71 18 -313 0 -242 -2
-280 -18 -313 -26 -55 -81 -112 -135 -139 -46 -22 -53 -23 -322 -23 -242 0
-280 2 -313 18 -55 26 -112 81 -139 135 -22 46 -23 54 -23 322 0 303 1 311 64
383 42 47 89 76 143 87 24 5 156 8 293 7 239 -2 252 -4 297 -26z"/>
<path d="M785 1789 c-200 -29 -386 -219 -415 -424 -12 -91 -12 -479 0 -570 29
-206 202 -384 408 -421 104 -18 500 -18 604 0 100 18 187 65 263 141 76 76
123 163 141 263 16 91 19 481 4 587 -30 211 -214 395 -425 425 -84 12 -496 11
-580 -1z m617 -258 c54 -26 109 -83 135 -138 16 -33 18 -71 18 -313 0 -242 -2
-280 -18 -313 -26 -55 -81 -112 -135 -139 -46 -22 -53 -23 -322 -23 -242 0
-280 2 -313 18 -55 26 -112 81 -139 135 -22 46 -23 54 -23 322 0 303 1 311 64
383 42 47 89 76 143 87 24 5 156 8 293 7 239 -2 252 -4 297 -26z"/>
<path d="M2465 1789 c-200 -29 -386 -219 -415 -424 -12 -91 -12 -479 0 -570
29 -206 202 -384 408 -421 104 -18 500 -18 604 0 100 18 187 65 263 141 76 76
123 163 141 263 16 91 19 481 4 587 -30 211 -214 395 -425 425 -84 12 -496 11
-580 -1z m617 -258 c54 -26 109 -83 135 -138 16 -33 18 -71 18 -313 0 -242 -2
-280 -18 -313 -26 -55 -81 -112 -135 -139 -46 -22 -53 -23 -322 -23 -242 0
-280 2 -313 18 -55 26 -112 81 -139 135 -22 46 -23 54 -23 322 0 303 1 311 64
383 42 47 89 76 143 87 24 5 156 8 293 7 239 -2 252 -4 297 -26z"/>
</g>
</svg>
