<svg version="1.1" xmlns="http://www.w3.org/2000/svg" style="display: block;" viewBox="0 0 1536 1536" width="384" height="384" preserveAspectRatio="none">
<path transform="translate(0,0)" fill="rgb(255,1,0)" d="M 574.097 336.405 C 604.619 336.432 615.165 354.457 635.038 374.386 L 686.449 425.786 L 849.052 588.396 L 949.078 688.336 C 966.804 706.008 987.598 724.782 1002.77 744.562 C 1009.11 752.818 1008.07 771.794 1006.52 781.477 C 1005.35 788.758 998.861 797.731 993.865 802.978 C 967.25 830.197 939.843 857.281 912.907 884.179 L 755.864 1041.18 L 659.914 1137.22 C 643.499 1153.64 615.801 1183.71 597.493 1195.58 C 590.413 1198.75 582.711 1200.29 574.957 1200.08 C 536.583 1199.12 514.556 1157.13 535.759 1124.98 C 544.429 1111.83 569.564 1089.68 581.671 1077.57 L 666.603 992.639 L 810.928 848.335 C 836.172 823.098 865.767 792.071 891.803 768.241 C 870.067 748.541 842.016 718.771 820.729 697.479 L 682.781 559.505 L 590.449 467.205 C 573.44 450.246 554.998 432.714 539.081 414.796 C 531.44 406.137 529.251 401.005 528.336 389.766 C 525.82 358.826 543.452 338.735 574.097 336.405 z"/>
</svg>