<svg version="1.1" xmlns="http://www.w3.org/2000/svg" style="display: block;" viewBox="0 0 1536 1536" width="384" height="384" preserveAspectRatio="none">
<path transform="translate(0,0)" fill="rgb(0,0,0)" d="M 571.779 336.281 C 602.009 334.812 618.511 358.492 638.123 378.184 L 688.89 429.09 L 858.541 598.635 L 951.217 691.375 C 966.865 706.921 986.098 724.75 999.842 741.49 C 1006.8 751.658 1009.4 765.472 1006.84 777.504 C 1002.48 798.059 980.589 815.343 965.975 829.927 L 914.439 881.413 L 753.948 1041.87 L 656.037 1139.83 C 643.46 1152.44 612.533 1185.25 599.096 1194.04 C 592.338 1197.73 585.89 1199.6 578.175 1199.97 C 564.998 1200.54 552.153 1195.74 542.582 1186.67 C 533.593 1178.16 528.388 1166.41 528.13 1154.04 C 527.347 1125.14 553.417 1106.07 572.385 1087.16 L 635.529 1024.15 L 801.285 858.355 C 830.828 828.829 862.624 798.108 891.404 768.036 C 863.901 738.446 830.203 706.283 801.356 677.434 L 634.042 510.124 L 572.046 448.133 C 563.27 439.358 554.384 430.666 545.726 421.772 C 536.357 412.148 530.895 405.924 528.706 392.348 C 526.579 379.307 529.749 365.957 537.509 355.263 C 546.654 342.774 557.167 338.598 571.779 336.281 z"/>
</svg>