<svg version="1.1" xmlns="http://www.w3.org/2000/svg" style="display: block;" viewBox="0 0 1536 1536" width="384" height="384" preserveAspectRatio="none">
<path transform="translate(0,0)" fill="rgb(254,0,0)" d="M 768.356 677.534 C 781.603 660.273 816.84 626.824 833.405 610.251 L 955.656 487.992 L 1056.67 386.93 C 1075.82 367.74 1097.78 343.88 1119.32 327.663 C 1128.94 320.413 1155.04 319.41 1167.24 321.796 C 1183.27 325.091 1197.36 334.576 1206.44 348.19 C 1216.76 363.834 1217.28 382.04 1214.14 400.034 C 1211.3 416.3 1200.34 428.037 1189.11 439.356 C 1169.49 459.13 1149.66 478.748 1129.94 498.44 L 998.802 629.565 L 911.894 716.409 C 899.506 728.85 870.915 759.168 858.126 767.46 C 880.05 786.759 904.93 812.93 925.925 833.923 L 1037.42 945.422 L 1143.22 1051.22 C 1161.34 1069.32 1180.29 1087.61 1197.86 1106.15 C 1205.37 1114.71 1210.26 1119.76 1213.07 1131.05 C 1222.91 1170.52 1206.19 1204.42 1165.93 1214.8 C 1160.77 1215.6 1155.55 1215.97 1150.33 1215.89 C 1115.29 1215.08 1095.11 1186.87 1072.05 1163.75 L 1000.08 1091.67 C 923.578 1015.14 842.476 936.458 767.621 858.699 C 757.491 871.98 736.868 891.49 724.48 903.891 L 650.734 977.644 L 507.757 1120.62 C 483.321 1145.06 458.909 1169.6 434.34 1193.91 C 419.551 1208.94 402.887 1216.57 381.95 1215.96 C 345.779 1214.91 317.441 1185.92 320.442 1149.41 C 321.35 1138.36 323.185 1124.23 330.304 1115.24 C 342.394 1099.98 357.253 1086.37 370.995 1072.63 L 443.327 1000.3 L 585.687 857.97 C 615.509 828.155 646.131 796.643 676.903 768.025 C 657.235 750.476 629.91 721.495 610.728 702.316 L 482.187 573.768 L 387.575 479.172 C 370.385 462.031 349.062 442.88 333.99 424.339 C 303.968 387.409 323.293 328.926 372.19 321.321 C 390.518 317.541 413.114 323.248 427.021 335.836 C 444.596 351.745 461.108 369.083 477.876 385.893 L 575.058 483.074 L 699.31 607.264 C 719.418 627.338 750.857 656.925 768.356 677.534 z"/>
</svg>
