<?xml version="1.0" standalone="no"?>
<!DOCTYPE svg PUBLIC "-//W3C//DTD SVG 20010904//EN"
 "http://www.w3.org/TR/2001/REC-SVG-20010904/DTD/svg10.dtd">
<svg version="1.0" xmlns="http://www.w3.org/2000/svg"
 width="384.000000pt" height="384.000000pt" viewBox="0 0 384.000000 384.000000"
 preserveAspectRatio="xMidYMid meet">

<g transform="translate(0.000000,384.000000) scale(0.100000,-0.100000)"
fill="#000000" stroke="none">
<path d="M893 3020 c-46 -20 -79 -64 -89 -117 -14 -74 -6 -84 454 -545 l437
-438 -437 -437 c-376 -377 -438 -444 -449 -480 -34 -117 77 -228 193 -194 37
11 104 73 481 449 l437 437 438 -437 c376 -376 443 -438 480 -449 116 -34 227
77 193 193 -11 37 -73 104 -449 481 l-437 437 437 438 c376 376 438 443 449
479 34 117 -77 228 -193 194 -37 -11 -104 -73 -481 -449 l-437 -437 -433 432
c-429 429 -468 463 -529 463 -13 0 -42 -9 -65 -20z"/>
</g>
</svg>
