<svg version="1.1" xmlns="http://www.w3.org/2000/svg" style="display: block;" viewBox="0 0 1536 1536" width="384" height="384" preserveAspectRatio="none">
<path transform="translate(0,0)" fill="rgb(99,60,230)" d="M 746.88 272.457 C 748.495 272.386 750.112 272.328 751.729 272.283 C 946.09 266.844 1116.31 360.056 1254.34 490.239 C 1309.91 542.659 1360.71 599.922 1406.13 661.35 C 1420.67 680.89 1436.27 700.907 1446.42 723.16 C 1452.56 736.625 1455.68 750.289 1456.03 765.094 C 1456.39 780.34 1453.85 795.053 1447.92 809.122 C 1429.16 853.644 1351.93 946.522 1316.65 983.751 C 1277.5 1025.85 1235.44 1065.15 1190.8 1101.37 C 1077.59 1191.57 937.488 1259.42 790.751 1263.38 C 787.521 1263.51 784.29 1263.63 781.059 1263.73 C 595.262 1269.2 419.836 1175.9 287.554 1051.12 C 229.381 996.846 176.369 937.288 129.2 873.216 C 114.721 853.626 98.7638 833.201 89.003 810.865 C 62.6164 750.482 97.9154 704.294 131.718 659.068 C 160.496 620.236 191.431 583.05 224.376 547.684 C 362.665 401.324 538.301 278.334 746.88 272.457 z M 802.5 1166.1 C 1001.71 1148.2 1157.68 1021.59 1282.84 874.08 C 1300.08 853.773 1351.29 789.269 1360.57 767.448 C 1345.92 740.103 1316.38 703.422 1296.61 678.738 C 1164.28 513.47 959.741 350.587 735.269 369.398 C 702.777 372.494 671.074 377.422 639.577 386.156 C 482.656 429.669 350.108 544.069 248.199 667.509 C 236.154 682.098 176.531 754.328 177.433 769.138 C 178.007 778.578 194.957 798.784 201.155 807.313 C 262.246 892.678 335.069 969.002 417.473 1034.03 C 527.152 1118.83 661.423 1177.68 802.5 1166.1 z"/>
<path transform="translate(0,0)" fill="rgb(99,60,230)" fill-opacity="0.517647" d="M 735.269 369.398 C 959.741 350.587 1164.28 513.47 1296.61 678.738 C 1316.38 703.422 1345.92 740.103 1360.57 767.448 C 1351.29 789.269 1300.08 853.773 1282.84 874.08 C 1157.68 1021.59 1001.71 1148.2 802.5 1166.1 C 661.423 1177.68 527.152 1118.83 417.473 1034.03 C 335.069 969.002 262.246 892.678 201.155 807.313 C 194.957 798.784 178.007 778.578 177.433 769.138 C 176.531 754.328 236.154 682.098 248.199 667.509 C 350.108 544.069 482.656 429.669 639.577 386.156 C 671.074 377.422 702.777 372.494 735.269 369.398 z M 781.502 910.364 C 860.335 902.898 918.107 832.813 910.392 754.004 C 902.676 675.195 832.408 617.646 753.624 625.611 C 675.192 633.541 617.956 703.426 625.637 781.883 C 633.319 860.339 703.022 917.796 781.502 910.364 z"/>
<path transform="translate(0,0)" fill="rgb(99,60,230)" d="M 751.231 528.394 C 883.546 519.158 998.285 618.955 1007.48 751.273 C 1016.67 883.59 916.839 998.298 784.519 1007.45 C 652.259 1016.6 537.615 916.817 528.425 784.56 C 519.235 652.303 618.977 537.627 751.231 528.394 z M 781.502 910.364 C 860.335 902.898 918.107 832.813 910.392 754.004 C 902.676 675.195 832.408 617.646 753.624 625.611 C 675.192 633.541 617.956 703.426 625.637 781.883 C 633.319 860.339 703.022 917.796 781.502 910.364 z"/>
</svg>