<?xml version="1.0" standalone="no"?>
<!DOCTYPE svg PUBLIC "-//W3C//DTD SVG 20010904//EN"
 "http://www.w3.org/TR/2001/REC-SVG-20010904/DTD/svg10.dtd">
<svg version="1.0" xmlns="http://www.w3.org/2000/svg"
 width="384.000000pt" height="384.000000pt" viewBox="0 0 384.000000 384.000000"
 preserveAspectRatio="xMidYMid meet">

<g transform="translate(0.000000,384.000000) scale(0.100000,-0.100000)"
fill="#000000" stroke="none">
<path d="M1873 3625 c-48 -21 -62 -52 -89 -202 -29 -159 -63 -297 -99 -402
-30 -90 -125 -301 -134 -301 -22 0 -92 94 -135 182 -44 89 -56 106 -89 122
-63 30 -102 13 -188 -87 -312 -360 -528 -758 -595 -1103 -24 -120 -24 -356 0
-479 38 -197 120 -395 228 -553 68 -99 252 -283 348 -349 374 -254 834 -317
1261 -172 92 31 248 110 337 171 99 67 283 251 350 350 192 282 280 635 238
955 -47 356 -236 734 -570 1140 -186 225 -677 690 -772 729 -41 17 -50 17 -91
-1z m329 -506 c474 -445 795 -943 864 -1343 23 -129 14 -328 -19 -457 -112
-429 -429 -741 -865 -852 -126 -31 -398 -31 -524 0 -436 111 -753 423 -865
852 -33 129 -42 328 -19 457 43 247 180 533 393 819 43 57 80 105 83 105 3 0
19 -21 35 -46 42 -64 125 -130 223 -177 78 -37 85 -39 122 -28 53 16 75 46
169 241 87 180 134 311 176 492 l28 118 36 -31 c20 -17 93 -85 163 -150z"/>
<path d="M1494 1941 c-80 -36 -113 -132 -72 -211 60 -116 220 -115 277 2 27
56 27 83 -1 138 -17 33 -35 51 -68 68 -54 27 -82 27 -136 3z"/>
<path d="M2275 1946 c-16 -8 -217 -202 -447 -432 -328 -331 -417 -426 -423
-452 -15 -73 64 -152 137 -137 47 10 873 833 889 885 27 90 -71 176 -156 136z"/>
<path d="M2214 1221 c-80 -36 -113 -132 -72 -211 60 -116 220 -115 277 2 27
56 27 83 -1 138 -17 33 -35 51 -68 68 -54 27 -82 27 -136 3z"/>
</g>
</svg>
