<?xml version="1.0" standalone="no"?>
<!DOCTYPE svg PUBLIC "-//W3C//DTD SVG 20010904//EN"
 "http://www.w3.org/TR/2001/REC-SVG-20010904/DTD/svg10.dtd">
<svg version="1.0" xmlns="http://www.w3.org/2000/svg"
 width="384.000000pt" height="384.000000pt" viewBox="0 0 384.000000 384.000000"
 preserveAspectRatio="xMidYMid meet">

<g transform="translate(0.000000,384.000000) scale(0.100000,-0.100000)"
fill="#000000" stroke="none">
<path d="M1169 3629 c-225 -15 -368 -66 -470 -168 -111 -111 -153 -240 -170
-521 -6 -111 -9 -592 -7 -1310 4 -1277 -2 -1186 80 -1271 53 -55 116 -81 192
-82 76 0 105 12 285 121 136 82 147 87 201 87 61 0 46 7 333 -168 149 -91 202
-110 307 -110 105 0 158 19 307 110 287 175 272 168 333 168 54 0 65 -5 201
-87 180 -109 209 -121 285 -121 110 1 211 69 250 169 18 47 19 101 22 1184 3
1196 -2 1419 -38 1567 -54 223 -196 361 -419 408 -41 9 -138 20 -215 25 -165
11 -1308 11 -1477 -1z m1653 -256 c138 -39 192 -93 231 -231 22 -77 22 -78 25
-1343 3 -1438 11 -1313 -81 -1266 -29 14 -95 53 -148 86 -133 83 -201 104
-309 99 -103 -5 -156 -27 -348 -146 -172 -107 -223 -132 -272 -132 -49 0 -100
25 -271 131 -218 136 -269 154 -398 147 -91 -5 -144 -27 -325 -136 -65 -40
-124 -72 -131 -72 -36 0 -36 3 -33 1291 3 1263 3 1264 25 1341 47 164 125 223
331 248 37 4 418 7 847 6 765 -2 781 -2 857 -23z"/>
<path d="M1414 2661 c-77 -35 -111 -125 -76 -203 49 -112 209 -126 272 -23 51
82 25 180 -60 223 -54 27 -82 27 -136 3z"/>
<path d="M2345 2661 c-16 -10 -251 -241 -522 -512 -390 -392 -492 -501 -498
-527 -15 -73 64 -152 137 -137 47 10 1033 993 1049 1045 15 48 -8 102 -53 130
-41 25 -74 25 -113 1z"/>
<path d="M2294 1781 c-77 -35 -111 -125 -76 -203 49 -112 209 -126 272 -23 51
82 25 180 -60 223 -54 27 -82 27 -136 3z"/>
</g>
</svg>
