<?xml version="1.0" standalone="no"?>
<!DOCTYPE svg PUBLIC "-//W3C//DTD SVG 20010904//EN"
 "http://www.w3.org/TR/2001/REC-SVG-20010904/DTD/svg10.dtd">
<svg version="1.0" xmlns="http://www.w3.org/2000/svg"
 width="384.000000pt" height="384.000000pt" viewBox="0 0 384.000000 384.000000"
 preserveAspectRatio="xMidYMid meet">

<g transform="translate(0.000000,384.000000) scale(0.100000,-0.100000)"
fill="#000000" stroke="none">
<path d="M825 3470 c-215 -23 -386 -166 -442 -371 -26 -94 -26 -584 0 -678 48
-177 198 -321 378 -363 37 -9 141 -13 324 -13 225 1 281 4 334 18 172 46 311
186 358 358 26 95 26 584 0 678 -46 170 -187 311 -353 356 -70 19 -468 29
-599 15z m575 -254 c49 -26 108 -84 133 -131 21 -38 22 -52 22 -325 0 -273 -1
-287 -22 -325 -25 -47 -84 -105 -133 -131 -32 -17 -61 -19 -320 -19 -259 0
-288 2 -320 19 -49 26 -108 84 -133 131 -21 38 -22 52 -22 325 0 318 -1 315
74 393 39 42 78 66 126 78 17 4 149 7 295 6 237 -2 269 -4 300 -21z"/>
<path d="M2505 3470 c-215 -23 -386 -166 -442 -371 -26 -94 -26 -584 0 -678
48 -177 198 -321 378 -363 37 -9 141 -13 324 -13 225 1 281 4 334 18 172 46
311 186 358 358 26 95 26 584 0 678 -46 170 -187 311 -353 356 -70 19 -468 29
-599 15z m575 -254 c49 -26 108 -84 133 -131 21 -38 22 -52 22 -325 0 -273 -1
-287 -22 -325 -25 -47 -84 -105 -133 -131 -32 -17 -61 -19 -320 -19 -259 0
-288 2 -320 19 -49 26 -108 84 -133 131 -21 38 -22 52 -22 325 0 318 -1 315
74 393 39 42 78 66 126 78 17 4 149 7 295 6 237 -2 269 -4 300 -21z"/>
<path d="M825 1790 c-215 -23 -386 -166 -442 -371 -26 -94 -26 -584 0 -678 48
-177 198 -321 378 -363 37 -9 141 -13 324 -13 225 1 281 4 334 18 172 46 311
186 358 358 26 95 26 584 0 678 -46 170 -187 311 -353 356 -70 19 -468 29
-599 15z m575 -254 c49 -26 108 -84 133 -131 21 -38 22 -52 22 -325 0 -273 -1
-287 -22 -325 -25 -47 -84 -105 -133 -131 -32 -17 -61 -19 -320 -19 -259 0
-288 2 -320 19 -49 26 -108 84 -133 131 -21 38 -22 52 -22 325 0 318 -1 315
74 393 39 42 78 66 126 78 17 4 149 7 295 6 237 -2 269 -4 300 -21z"/>
<path d="M2505 1790 c-215 -23 -386 -166 -442 -371 -26 -94 -26 -584 0 -678
48 -177 198 -321 378 -363 37 -9 141 -13 324 -13 225 1 281 4 334 18 172 46
311 186 358 358 26 95 26 584 0 678 -46 170 -187 311 -353 356 -70 19 -468 29
-599 15z m575 -254 c49 -26 108 -84 133 -131 21 -38 22 -52 22 -325 0 -273 -1
-287 -22 -325 -25 -47 -84 -105 -133 -131 -32 -17 -61 -19 -320 -19 -259 0
-288 2 -320 19 -49 26 -108 84 -133 131 -21 38 -22 52 -22 325 0 318 -1 315
74 393 39 42 78 66 126 78 17 4 149 7 295 6 237 -2 269 -4 300 -21z"/>
</g>
</svg>
