<svg version="1.1" xmlns="http://www.w3.org/2000/svg" style="display: block;" viewBox="0 0 1536 1536" width="384" height="384" preserveAspectRatio="none">
<path transform="translate(0,0)" fill="rgb(254,0,29)" d="M 732.603 80.4897 C 756.066 80.2428 779.53 80.2018 802.993 80.3667 C 844.008 80.7395 876.87 79.5034 914.92 96.7136 C 976.54 124.585 999.22 181.127 1027.28 238.128 C 1035.14 254.113 1052.87 288.765 1058.52 304.602 C 1060.99 304.455 1063.46 304.35 1065.93 304.289 C 1127.56 303.256 1192.28 304.249 1254.15 304.253 L 1312.09 304.2 C 1326.52 304.185 1339.74 303.709 1354.14 305.634 C 1405.26 312.462 1403.95 391.731 1353.91 398.887 C 1335.04 401.586 1313.31 400.442 1294.04 400.02 L 1294.07 401.513 C 1294.34 430.963 1289.03 475.189 1287.27 505.835 L 1271.46 762.541 L 1255.52 1018.79 C 1250.92 1091.57 1247.84 1169.55 1230.39 1240.63 C 1218.34 1291.46 1194.3 1328.56 1159.14 1366.02 C 1065.69 1465.58 932.053 1455.96 804.946 1456.26 L 669.216 1455.99 C 569.277 1454.94 471.35 1452.37 392.777 1382.21 C 352.79 1346.51 323.124 1304.58 307.975 1252.85 C 289.11 1188.44 285.077 1112.06 281.174 1045 L 272.665 905.011 L 241.5 399.893 C 214.6 400.352 176.011 406.056 156.436 385.123 C 132.461 359.486 144.324 311.327 180.698 305.485 C 194.496 303.268 212.521 304.212 226.62 304.212 L 296.462 304.219 L 411.01 304.261 C 434.644 304.263 460.658 303.76 484.053 304.963 C 490.836 286.902 500.168 267.585 508.29 249.994 C 537.961 185.727 564.525 113.726 638.959 90.6267 C 672.015 80.3684 698.403 80.874 732.603 80.4897 z M 387.92 1154.52 C 388.784 1162.32 389.554 1167.73 391.067 1175.46 C 390.978 1184.19 394.04 1193.7 395.448 1202.28 C 406.265 1268.17 459.686 1329.12 525.629 1345.9 L 536.079 1348.51 C 544.307 1350.11 552.575 1351.49 560.876 1352.66 C 626.68 1361.63 702.692 1359.12 769.289 1359.3 C 845.509 1359.5 926.341 1361.64 1001.22 1347.95 C 1057.05 1337.74 1113.34 1286.91 1130.77 1232.92 C 1145.68 1186.99 1150.04 1131.27 1153.65 1082.43 C 1156.45 1043.58 1158.96 1004.72 1161.19 965.832 L 1184.08 597.539 L 1192 469.028 C 1193.38 446.991 1193.93 422.791 1196.78 401.002 C 1125.45 399.656 1051.28 400.63 979.774 400.629 L 583.806 400.632 L 418.616 400.591 L 370.123 400.754 C 361.047 400.802 348.498 401.274 339.91 400.301 C 341.381 454.341 346.184 514.406 349.538 568.847 L 365.609 834.908 L 377.25 1027.5 C 379.762 1066.99 382.306 1115.83 387.92 1154.52 z M 778.146 304.257 C 834.831 304.28 894.997 305.351 951.396 304.043 L 950.688 303.014 C 929.209 271.312 917.617 225.889 891.305 196.911 C 871.601 175.21 832.797 178.37 806.303 177.096 C 793.814 176.67 778.315 175.888 765.954 176.446 C 739.169 177.676 691.626 175.882 667.65 184.046 C 631.49 196.36 607.749 272.74 590.548 303.961 L 778.146 304.257 z"/>
<path transform="translate(0,0)" fill="rgb(254,0,29)" fill-opacity="0.537255" d="M 339.91 400.301 C 348.498 401.274 361.047 400.802 370.123 400.754 L 418.616 400.591 L 583.806 400.632 L 979.774 400.629 C 1051.28 400.63 1125.45 399.656 1196.78 401.002 C 1193.93 422.791 1193.38 446.991 1192 469.028 L 1184.08 597.539 L 1161.19 965.832 C 1158.96 1004.72 1156.45 1043.58 1153.65 1082.43 C 1150.04 1131.27 1145.68 1186.99 1130.77 1232.92 C 1113.34 1286.91 1057.05 1337.74 1001.22 1347.95 C 926.341 1361.64 845.509 1359.5 769.289 1359.3 C 702.692 1359.12 626.68 1361.63 560.876 1352.66 C 552.575 1351.49 544.307 1350.11 536.079 1348.51 C 538.51 1348.24 538.928 1348.41 540.94 1347 L 540.112 1345.42 C 533.41 1343.1 531.883 1343.54 525.629 1345.9 C 459.686 1329.12 406.265 1268.17 395.448 1202.28 C 394.04 1193.7 390.978 1184.19 391.067 1175.46 C 394.693 1166.13 391.545 1157.12 389.396 1147.51 L 387.811 1147.26 L 388.253 1145.83 C 388.364 1148.16 388.041 1152.07 387.92 1154.52 C 382.306 1115.83 379.762 1066.99 377.25 1027.5 L 365.609 834.908 L 349.538 568.847 C 346.184 514.406 341.381 454.341 339.91 400.301 z M 976.899 1046.68 C 977.328 1050.53 977.538 1055.44 977.811 1059.39 C 977.873 1051.45 978.03 1047.12 979.092 1039.24 L 979.188 1039.81 C 982.193 1020.46 980.816 990.504 980.828 969.931 L 980.836 843.542 L 980.808 741.996 C 980.786 724.675 982.261 702.389 979.338 686.178 L 979.299 686.651 C 978.447 684.214 977.781 671.133 977.545 667.752 C 977.493 672.571 977.28 677.388 976.907 682.193 L 976.821 928.717 L 976.795 1008.56 C 976.791 1018 976.118 1038.57 976.899 1046.68 z M 656.896 1046.58 L 657.808 1058.99 C 657.797 1056.81 657.765 1043.92 658.154 1042.36 C 660.519 1032.88 660.755 1031.8 660.798 1021.92 L 660.82 778.972 L 660.866 722.314 C 660.869 713.649 661.399 697.64 659.75 689.629 C 657.715 679.748 657.891 676.921 657.946 666.895 C 657.376 668.821 657.087 679.299 656.909 682.193 L 656.82 923.873 L 656.794 1006.09 C 656.788 1017.44 656.119 1036.09 656.896 1046.58 z"/>
<path transform="translate(0,0)" fill="rgb(254,0,29)" d="M 976.899 1046.68 C 975.677 1060.95 975.111 1074.05 965.79 1085.75 C 957.93 1095.72 946.435 1102.16 933.83 1103.66 C 920.811 1105.21 907.72 1101.44 897.506 1093.23 C 880.964 1079.97 879.473 1063.03 879.11 1043.11 C 878.777 1024.84 879.024 1006.49 879.037 988.213 L 879.019 867.863 L 879.004 740.618 C 879.005 717.653 878.968 695.508 879.713 672.08 C 881.033 630.638 926.405 609.246 958.754 634.656 C 974.098 646.707 975.372 663.902 976.907 682.193 L 976.821 928.717 L 976.795 1008.56 C 976.791 1018 976.118 1038.57 976.899 1046.68 z"/>
<path transform="translate(0,0)" fill="rgb(254,0,29)" d="M 656.896 1046.58 C 654.503 1075.38 647.109 1099.22 613.892 1103.56 C 601.303 1105.23 588.567 1101.8 578.514 1094.04 C 571.508 1088.57 562.838 1077.49 561.523 1068.57 C 557.775 1043.14 559.016 1016.43 559.035 990.682 L 559.019 873.161 L 559.005 742.185 C 559.006 718.898 559.023 696.343 559.664 672.549 C 560.787 630.87 606.129 609.089 638.754 634.661 C 654.073 646.67 655.371 663.911 656.909 682.193 L 656.82 923.873 L 656.794 1006.09 C 656.788 1017.44 656.119 1036.09 656.896 1046.58 z"/>
<path transform="translate(0,0)" fill="rgb(254,0,29)" fill-opacity="0.45098" d="M 976.907 682.193 C 977.28 677.388 977.493 672.571 977.545 667.752 C 977.781 671.133 978.447 684.214 979.299 686.651 L 979.338 686.178 C 982.261 702.389 980.786 724.675 980.808 741.996 L 980.836 843.542 L 980.828 969.931 C 980.816 990.504 982.193 1020.46 979.188 1039.81 L 979.092 1039.24 C 978.03 1047.12 977.873 1051.45 977.811 1059.39 C 977.538 1055.44 977.328 1050.53 976.899 1046.68 C 976.118 1038.57 976.791 1018 976.795 1008.56 L 976.821 928.717 L 976.907 682.193 z"/>
<path transform="translate(0,0)" fill="rgb(254,0,29)" fill-opacity="0.45098" d="M 656.909 682.193 C 657.087 679.299 657.376 668.821 657.946 666.895 C 657.891 676.921 657.715 679.748 659.75 689.629 C 661.399 697.64 660.869 713.649 660.866 722.314 L 660.82 778.972 L 660.798 1021.92 C 660.755 1031.8 660.519 1032.88 658.154 1042.36 C 657.765 1043.92 657.797 1056.81 657.808 1058.99 L 656.896 1046.58 C 656.119 1036.09 656.788 1017.44 656.794 1006.09 L 656.82 923.873 L 656.909 682.193 z"/>
<path transform="translate(0,0)" fill="rgb(254,0,29)" fill-opacity="0.490196" d="M 387.92 1154.52 C 388.041 1152.07 388.364 1148.16 388.253 1145.83 L 387.811 1147.26 L 389.396 1147.51 C 391.545 1157.12 394.693 1166.13 391.067 1175.46 C 389.554 1167.73 388.784 1162.32 387.92 1154.52 z"/>
<path transform="translate(0,0)" fill="rgb(254,0,29)" fill-opacity="0.498039" d="M 525.629 1345.9 C 531.883 1343.54 533.41 1343.1 540.112 1345.42 L 540.94 1347 C 538.928 1348.41 538.51 1348.24 536.079 1348.51 L 525.629 1345.9 z"/>
</svg>