<svg version="1.1" xmlns="http://www.w3.org/2000/svg" style="display: block;" viewBox="0 0 1536 1536" width="384" height="384" preserveAspectRatio="none">
<path transform="translate(0,0)" fill="rgb(254,254,254)" d="M 699.79 80.4258 C 723.292 79.2354 748.462 79.6274 771.939 79.7456 C 827 80.0229 881.293 76.0173 930.418 105.507 C 973.028 131.085 992.974 170.482 1013.96 213.522 L 1040.6 267.319 C 1045.82 278.083 1051.96 292.612 1057.84 302.62 C 1062.25 305.196 1092.85 303.74 1100.87 303.722 L 1268.63 303.722 C 1295.84 303.717 1325.56 302.27 1352.16 305.149 C 1391.01 310.229 1405.49 359.314 1378.1 386.041 C 1358.01 405.64 1320.65 400.238 1294.31 399.97 C 1290.12 460.322 1286.29 520.697 1282.81 581.094 L 1261.9 918.624 L 1252.63 1066.08 C 1245.16 1175.94 1240.39 1285.69 1157.38 1367.14 C 1086.58 1436.6 1015.89 1450.68 919.914 1454.38 C 891.71 1455.57 863.483 1456.13 835.254 1456.06 L 713.615 1456.1 C 637.939 1456.04 546.231 1456.99 475.251 1431.28 C 394.091 1401.88 325.454 1324.57 305.213 1240.76 C 287.115 1165.82 283.97 1088.13 279.219 1011.51 L 263.472 750.005 L 247.602 487.143 C 246.205 460.656 242.329 425.718 242.161 400.011 C 215.828 400.283 176.518 405.745 157.17 385.362 C 148.229 375.798 143.439 363.082 143.849 349.996 C 144.199 337.23 149.693 325.147 159.083 316.491 C 177.095 299.986 204.34 303.661 227.335 303.693 L 293.25 303.686 L 412.682 303.685 C 436.177 303.691 461.417 303.261 484.725 304.15 C 489.841 288.634 498.627 272.086 505.365 257.042 C 552.055 152.796 575.625 90.961 699.79 80.4258 z M 1106.46 1278.43 C 1126.61 1249.39 1133.98 1230.07 1140.41 1195.32 C 1150.1 1142.96 1153.26 1089.05 1156.7 1036 L 1168.52 845.591 L 1188.44 523.418 C 1190.78 483.744 1194.76 439.593 1196.2 400.228 L 339.158 400.202 C 341.341 413.112 341.974 436.538 342.895 450.579 L 349.773 566.992 L 376.26 1001.52 C 380.755 1074.96 383.172 1164.05 404.155 1234.18 C 424.69 1291.72 482.042 1341.03 542.812 1350.05 C 634.7 1363.67 728.591 1359.11 821.488 1359.31 C 885.889 1359.45 961.749 1360.74 1023.7 1341.55 C 1050.1 1333.37 1089.66 1301.88 1105.94 1279.18 L 1106.46 1278.43 z M 590.496 303.861 L 802.5 303.74 L 951.664 303.82 L 950.924 302.683 C 926.271 264.343 908.451 188.719 860.65 180.12 C 838.015 176.049 793.42 176.972 768.782 176.209 C 761.117 175.972 750.523 177.137 742.354 176.534 C 710.842 177.466 665.977 173.873 645.666 198.546 C 625.033 223.611 603.913 273.367 590.496 303.861 z"/>
<path transform="translate(0,0)" fill="rgb(254,254,254)" d="M 920.425 624.163 C 944.889 622.799 969.273 634.667 974.608 659.51 C 977.811 674.42 976.343 702.103 976.34 718.052 L 976.334 820.451 L 976.321 975.46 C 976.32 1002.18 976.607 1028.87 976.039 1055.58 C 975.479 1081.93 960.135 1097.14 935.647 1103.85 C 912.03 1105.74 886.649 1092.9 881.769 1069.51 C 878.283 1052.81 879.787 1022.31 879.781 1004.6 L 879.772 896.481 L 879.783 747.798 C 879.764 723.501 879.625 699.19 879.896 674.908 C 880.027 663.209 880.777 655.948 887.315 645.868 C 895.401 633.403 906.27 627.397 920.425 624.163 z"/>
<path transform="translate(0,0)" fill="rgb(254,254,254)" d="M 600.415 624.166 C 628.775 622.577 654.076 638.187 655.988 668.149 C 657.12 685.884 656.345 705.506 656.342 723.364 L 656.329 839.449 L 656.323 980.013 C 656.346 1005.32 656.633 1030.56 656.012 1055.86 C 655.369 1082.1 640.017 1097.17 615.638 1103.85 C 592.023 1105.73 566.649 1092.9 561.769 1069.51 C 558.283 1052.81 559.787 1022.31 559.781 1004.6 L 559.772 896.481 L 559.783 747.798 C 559.764 723.501 559.625 699.19 559.896 674.908 C 560.027 663.209 560.777 655.948 567.315 645.868 C 575.397 633.409 586.266 627.397 600.415 624.166 z"/>
</svg>