<svg version="1.1" xmlns="http://www.w3.org/2000/svg" style="display: block;" viewBox="0 0 1536 1536" width="384" height="384" preserveAspectRatio="none">
<path transform="translate(0,0)" fill="rgb(254,0,0)" d="M 558.548 144.477 C 561.032 144.435 563.516 144.408 566 144.398 L 819.144 144.382 L 928.573 144.342 C 976.113 144.333 1031.68 141.308 1076.28 156.269 C 1094.61 162.224 1112.21 170.232 1128.75 180.142 C 1156.28 196.759 1187.91 222.615 1213.82 242.71 C 1270.52 286.675 1329.24 330.156 1379.39 381.608 C 1432.32 435.91 1456.59 493.841 1455.82 569.494 C 1455.38 612.737 1448.42 646.878 1427.33 685.405 C 1392.23 749.544 1339.33 811.532 1292.69 867.849 L 1157.13 1031.7 L 1021.81 1195.2 C 985.147 1239.34 951.58 1281.06 910.794 1321.65 C 821.249 1412.86 722.685 1417.29 631.054 1327.14 C 592.26 1288.98 560.953 1250.48 526.204 1209.03 L 374.539 1025.86 L 238.909 862.205 C 197.744 812.524 152.026 757.847 118.675 702.732 C 90.7571 658.133 83.1052 624.542 80.3551 573.502 C 71.9425 417.368 206.121 335.023 313.444 248.973 C 350.336 219.394 392.896 184.784 436.437 164.791 C 476.531 146.38 514.951 145.036 558.548 144.477 z M 880.782 592.117 C 899.784 591.691 917.639 589.993 931.465 574.464 C 955.544 547.417 939.06 500.164 901.381 497.871 C 869.645 495.035 840.734 496.509 809.042 496.168 C 759.136 496.644 707.963 495.261 658.325 496.444 C 639.354 497.229 620.581 496.1 606.436 511.361 C 580.964 538.547 594.175 582.565 631.012 589.934 C 643.884 592.509 662.657 592.727 675.819 592.408 C 743.433 590.772 813.378 594.701 880.782 592.117 z"/>
</svg>