<svg version="1.1" xmlns="http://www.w3.org/2000/svg" style="display: block;" viewBox="0 0 1536 1536" width="384" height="384" preserveAspectRatio="none">
<path transform="translate(0,0)" fill="rgb(95,61,229)" d="M 760.41 207.91 C 822.195 203.682 875.762 250.223 880.205 311.993 C 884.649 373.763 838.295 427.491 776.541 432.15 C 714.482 436.831 660.43 390.198 655.965 328.124 C 651.499 266.049 698.32 212.16 760.41 207.91 z"/>
<path transform="translate(0,0)" fill="rgb(95,61,229)" d="M 760.408 1103.91 C 822.193 1099.68 875.76 1146.22 880.205 1207.99 C 884.649 1269.76 838.295 1323.49 776.541 1328.15 C 714.483 1332.83 660.431 1286.2 655.965 1224.13 C 651.499 1162.05 698.318 1108.16 760.408 1103.91 z"/>
<path transform="translate(0,0)" fill="rgb(95,61,229)" d="M 760.408 655.912 C 822.193 651.683 875.76 698.223 880.205 759.993 C 884.649 821.762 838.295 875.492 776.541 880.15 C 714.483 884.832 660.431 838.201 655.965 776.126 C 651.499 714.052 698.318 660.163 760.408 655.912 z"/>
</svg>