<svg version="1.1" xmlns="http://www.w3.org/2000/svg" style="display: block;" viewBox="0 0 1536 1536" width="384" height="384" preserveAspectRatio="none">
<defs>
	<linearGradient id="Gradient1" gradientUnits="userSpaceOnUse" x1="1058.14" y1="477.254" x2="987.887" y2="544.685">
		<stop class="stop0" offset="0" stop-opacity="0.470588" stop-color="rgb(0,0,0)"/>
		<stop class="stop1" offset="1" stop-opacity="0.501961" stop-color="rgb(0,0,0)"/>
	</linearGradient>
</defs>
<path transform="translate(0,0)" fill="rgb(0,0,0)" d="M 1068.91 144.429 C 1107.64 142.72 1142.06 151.207 1174.84 172.465 C 1194.37 185.131 1209.41 201.432 1225.82 217.869 L 1273.48 265.631 L 1318.94 310.928 C 1333.76 325.711 1349.14 340.182 1361.05 357.463 C 1374.32 376.577 1383.56 398.19 1388.21 420.988 C 1397.71 466.83 1388.39 514.568 1362.34 553.467 C 1350.06 571.895 1332.47 588.349 1316.76 604.053 L 1265.6 655.166 L 1081.9 838.854 L 786.949 1133.83 L 703.476 1217.32 C 672.247 1248.53 653.402 1270.3 616.642 1295.24 C 550.854 1339.86 501.29 1339.39 429.228 1353.76 L 275.294 1379.25 C 251.208 1383.26 226.853 1387.59 202.701 1391.2 C 187.529 1393.46 173.294 1390.86 161.058 1380.93 C 151.638 1373.26 145.729 1362.09 144.681 1349.99 C 143.361 1335.68 149.654 1305.08 152.254 1289.93 L 163.279 1224.22 L 183.921 1099.92 C 187.839 1076.32 191.605 1050.79 196.287 1027.55 C 198.636 1015.37 201.745 1003.35 205.598 991.567 C 217.941 954.475 237.148 920.035 262.22 890.042 C 276.281 873.495 298.396 852.463 314.119 836.73 L 402.352 748.514 L 678.775 472.082 L 878.095 272.777 L 932.784 218.023 C 977.111 173.437 1003.72 150.019 1068.91 144.429 z M 250.047 1285.36 C 300.339 1277.42 350.58 1269.16 400.767 1260.58 C 440.647 1253.86 499.804 1247.16 535.454 1230.77 C 552.416 1222.9 568.247 1212.8 582.525 1200.73 C 599.442 1186.33 622.674 1161.77 638.878 1145.55 L 738.74 1045.61 L 979.048 805.309 C 1022.4 761.965 1066.65 716.484 1110.68 674.116 C 1111.32 673.838 1269.83 515.266 1271.4 512.89 C 1302.59 480.664 1304.66 435.483 1273.83 402.148 C 1270.44 398.481 1266.93 394.949 1263.41 391.403 L 1177.93 305.858 C 1160.12 288.062 1137.76 263.333 1117.05 249.601 C 1105.89 242.948 1092.18 241.181 1079.75 240.759 C 1038.78 239.368 1015.41 271.274 988.311 298.456 L 933.227 353.56 C 918.443 368.585 903.571 383.524 888.612 398.374 C 881.805 405.117 871.783 414.402 865.606 421.368 L 511.331 775.529 L 397.325 889.516 C 378.573 908.253 350.329 934.843 334.063 954.112 C 320.928 969.787 310.28 987.389 302.493 1006.3 C 289.509 1038.47 285.078 1077.2 279.358 1111.67 L 259.463 1231.66 C 257.562 1243.12 252.995 1275.15 250.047 1285.36 z"/>
<path transform="translate(0,0)" fill="url(#Gradient1)" d="M 865.606 421.368 C 871.783 414.402 881.805 405.117 888.612 398.374 C 903.571 383.524 918.443 368.585 933.227 353.56 C 933.358 354.426 933.489 355.293 933.619 356.159 C 940.198 361.432 951.007 372.396 956.611 377.97 L 1099.69 520.967 C 1125.61 546.879 1155.89 575.78 1180.63 602.394 C 1194.17 590.801 1265.9 514.988 1271.4 512.89 C 1269.83 515.266 1111.32 673.838 1110.68 674.116 C 1111.66 672.101 1112.69 670.781 1113.98 668.976 L 1113.52 667.02 C 1081.65 638.935 872.752 424.047 865.606 421.368 z"/>
</svg>