<svg version="1.1" xmlns="http://www.w3.org/2000/svg" style="display: block;" viewBox="0 0 1536 1536" width="384" height="384" preserveAspectRatio="none">
<path transform="translate(0,0)" fill="rgb(95,61,229)" d="M 1068.82 144.425 C 1110.37 142.014 1148.85 152.653 1182.74 177.263 C 1198.45 188.672 1212.28 203.57 1226.06 217.386 L 1272.8 264.174 L 1319.83 311.168 C 1334.39 325.669 1351.49 341.588 1362.99 358.582 C 1404.25 419.559 1401.59 505.272 1356.47 563.499 C 1343.74 579.931 1327.12 595.843 1312.46 610.483 L 1254.76 668.128 L 1057.47 865.386 L 780.43 1142.45 L 703.777 1219.08 C 605.526 1317.26 570.726 1333.84 431.769 1353.08 C 417.047 1356.34 399.076 1358.73 383.921 1361.21 L 304.913 1374.39 L 243.951 1384.64 C 217.224 1389.17 181.578 1399.76 159.296 1379.7 C 134.692 1357.55 147.072 1316.39 152.08 1286.83 L 163.408 1219.38 L 184.168 1094.54 C 191.137 1052.83 195.608 1016.37 210.499 976.445 C 235.453 909.532 281.033 867.71 330.316 818.556 L 419.169 729.695 L 702.195 446.744 L 874.935 273.983 L 924.478 224.397 C 969.301 179.543 1001.99 148.143 1068.82 144.425 z M 250.926 1285.05 C 278.167 1281.25 307.178 1275.79 334.461 1271.13 C 377.154 1263.83 420.845 1257.41 463.405 1249.79 C 551.577 1235.48 574.156 1210.3 634.904 1149.52 L 728.394 1055.95 L 982.658 801.682 C 1025.58 758.765 1070.81 711.927 1114.42 670.133 C 1099.65 656.662 1084.05 640.498 1069.78 626.25 L 996.99 553.428 C 955.133 511.536 905.818 464.416 865.568 421.638 C 849.14 440.021 829.528 458.82 811.951 476.402 L 727.742 560.633 L 467.108 821.252 L 383.487 904.82 C 352.448 935.859 322.532 961.878 304.856 1003.1 C 288.742 1040.68 286.126 1080.16 278.721 1119.99 C 268.857 1174.44 261.488 1230.85 250.926 1285.05 z M 933.373 354.034 C 943.167 361.542 958.429 377.632 967.651 386.856 L 1023.36 442.613 L 1121.11 540.383 C 1137.48 556.75 1156.38 574.805 1172.12 591.538 C 1175.41 594.98 1179.46 598.983 1182.31 602.694 C 1200.87 583.424 1219.7 564.41 1238.8 545.657 C 1255.13 529.356 1274.12 512.89 1286.14 492.6 C 1297.72 472.813 1297.62 438.988 1286.24 419.323 C 1276.36 403.72 1262.84 390.889 1249.84 377.936 C 1212.88 341.079 1176.04 304.096 1139 267.314 C 1121.41 249.847 1095.82 236.447 1070.32 241.258 C 1035.72 246.973 1026.6 262.785 1002.89 285.222 C 980.021 306.874 957.111 333.993 933.373 354.034 z"/>
</svg>