<svg version="1.1" xmlns="http://www.w3.org/2000/svg" style="display: block;" viewBox="0 0 1536 1536" width="384" height="384" preserveAspectRatio="none">
<path transform="translate(0,0)" fill="rgb(101,62,231)" d="M 671.227 176.497 C 763.18 175.497 855.144 175.954 947.084 177.868 C 983.684 178.318 1020.28 179.372 1056.84 181.03 C 1166.11 185.107 1280.64 190.911 1362.63 272.038 C 1437.06 345.675 1447.06 445.455 1451.86 544.473 C 1453.92 588.613 1455.09 632.79 1455.38 676.978 C 1456.3 746.141 1456.2 815.314 1455.08 884.475 C 1453.85 969.677 1452.95 1069.43 1429.25 1151.4 C 1417.62 1191.6 1392.85 1234.52 1363.25 1264.26 C 1280.77 1347.12 1154.58 1351.27 1045.05 1355.56 C 985.469 1357.69 925.864 1358.95 866.25 1359.32 C 780.579 1360.48 694.895 1360.19 609.234 1358.45 C 565.558 1358.04 521.892 1356.88 478.256 1354.99 C 365.492 1350.45 242.644 1343.64 162.599 1252.35 C 86.7267 1165.82 84.3613 1039.88 81.6882 930.077 C 80.364 853.209 80.0375 776.326 80.7091 699.45 C 81.2874 601.904 80.2057 486.674 104.644 392.12 C 115.454 350.292 139.693 306.068 169.893 274.861 C 252.226 189.783 373.437 185.564 484.124 180.803 C 546.469 178.496 608.842 177.061 671.227 176.497 z M 1354.23 988.75 C 1359.19 858.686 1359.97 728.496 1356.57 598.382 C 1355.39 561.375 1353.68 523.585 1349.95 486.728 C 1349.5 482.189 1348.83 477.955 1348.73 473.372 L 1102.99 612.925 L 1000.32 671.154 C 950.232 699.175 899.11 727.362 843.154 742.031 C 794.324 755.009 742.962 755.088 694.092 742.26 C 618.321 721.89 538.013 672.111 469.166 633.082 L 269.991 520.208 L 214.156 488.425 C 208.462 485.17 192.766 475.665 187.242 473.202 C 185.548 501.783 182.419 528.002 181.161 557.629 C 178.498 631.726 177.138 705.863 177.079 780.008 C 177.11 800.495 177.93 821.637 177.993 842.514 C 178.075 884.357 179.005 926.194 180.781 968 C 183.663 1041.33 185.735 1131.08 236.412 1188.93 C 279.517 1238.13 346.636 1248.1 408.186 1253.66 C 450.297 1257.74 491.413 1258.21 533.501 1259.68 C 661.303 1263.64 789.184 1264.36 917.022 1261.84 C 959.06 1261.17 1001.09 1260.03 1043.1 1258.44 C 1247.52 1251.2 1342.4 1232.41 1353.47 1006.5 C 1353.75 1000.59 1354.01 994.67 1354.23 988.75 z M 213.966 377.622 C 228.484 384.372 244.672 393.995 258.637 401.963 L 322.119 438.015 L 540.585 561.813 C 607.381 600.046 700.087 659.328 778.244 654.829 C 805.256 652.068 823.973 648.27 849.468 637.788 C 894.384 619.322 936.418 595.231 978.564 571.321 L 1096.42 504.463 L 1250.7 417.042 C 1272.13 404.896 1301.55 389.611 1321.79 376.92 C 1283.67 321.066 1251.46 302.051 1183.86 289.39 C 1136.94 280.601 1085.93 278.978 1038.37 277.401 C 989.993 275.619 941.6 274.428 893.197 273.828 L 808.767 272.741 C 792.624 272.511 772.078 271.682 756.255 272.52 C 675.572 272.871 594.897 274.311 514.253 276.842 C 449.186 279.04 382.103 280.163 318.828 297.112 C 271.19 309.872 240.436 337.527 213.966 377.622 z"/>
</svg>