<svg version="1.1" xmlns="http://www.w3.org/2000/svg" style="display: block;" viewBox="0 0 1536 1536" width="384" height="384" preserveAspectRatio="none">
<path transform="translate(0,0)" fill="rgb(254,0,0)" d="M 126.809 80.403 C 151.006 81.1816 157.135 88.2089 173.435 104.611 C 197.738 129.068 222.175 153.504 246.553 177.895 L 419.269 350.593 L 972.638 903.928 L 1292.58 1223.9 L 1393.41 1324.71 C 1409.95 1341.21 1428.17 1358.04 1443.78 1375.26 C 1471.27 1405.58 1451.43 1456.06 1408.05 1456.16 C 1398.39 1456.25 1388.92 1453.42 1380.89 1448.06 C 1371.79 1441.9 1342.15 1410.89 1332.28 1401.03 L 1227.33 1296.07 C 1190.2 1258.94 1146.41 1217.31 1111.24 1179.39 C 977.654 1251.18 824.866 1279.13 674.514 1259.27 C 474.886 1232.75 314.177 1136.36 191.746 976.379 C 158.198 932.42 128.996 885.307 104.553 835.704 C 96.8258 820.314 86.6485 799.064 82.1809 782.633 C 74.1761 753.193 99.598 708.792 112.961 683.435 C 144.454 622.431 183.428 565.59 228.982 514.227 C 266.606 471.107 297.243 444.614 342.347 410.118 L 341.742 409.615 C 327.798 397.848 305.915 374.65 292.615 361.353 L 201.577 270.3 L 128.878 197.704 C 114.942 183.786 99.8299 169.634 87.4236 154.442 C 82.7207 148.668 80.7384 139.878 80.2541 132.529 C 78.1955 101.287 96.9134 82.4167 126.809 80.403 z M 180.237 768.513 C 314.041 1052.82 561.345 1206.28 877.258 1158.72 C 929.529 1148.96 992.386 1132.7 1039.16 1106.8 C 1022.45 1092.38 998.697 1067.22 982.544 1050.97 C 955.683 1023.95 926.691 996.057 900.499 968.612 C 839.573 1004.84 778.23 1018.32 708.109 1000.64 C 646.465 984.804 593.637 945.129 561.245 890.344 C 528.686 835.454 519.336 769.855 535.261 708.054 C 541.227 684.987 553.649 655.043 567.73 635.633 C 528.876 598.739 491.235 558.768 452.855 521.291 C 446.502 515.088 414.782 482.276 410.459 479.643 C 392.004 493.753 375.263 506.581 357.892 522.189 C 281.983 590.866 221.443 674.807 180.237 768.513 z M 811.583 904.813 L 830.498 898.076 C 822.19 892.405 786.935 855.708 778.29 847.026 L 669.74 738.514 C 664.872 733.608 641.652 709.274 637.487 707.442 C 608.915 790.027 634.887 868.63 720.831 903.196 C 749.63 914.779 781.945 911.841 811.583 904.813 z"/>
<path transform="translate(0,0)" fill="rgb(254,0,0)" fill-opacity="0.537255" d="M 410.459 479.643 C 414.782 482.276 446.502 515.088 452.855 521.291 C 491.235 558.768 528.876 598.739 567.73 635.633 C 553.649 655.043 541.227 684.987 535.261 708.054 C 519.336 769.855 528.686 835.454 561.245 890.344 C 593.637 945.129 646.465 984.804 708.109 1000.64 C 778.23 1018.32 839.573 1004.84 900.499 968.612 C 926.691 996.057 955.683 1023.95 982.544 1050.97 C 998.697 1067.22 1022.45 1092.38 1039.16 1106.8 C 992.386 1132.7 929.529 1148.96 877.258 1158.72 C 561.345 1206.28 314.041 1052.82 180.237 768.513 C 221.443 674.807 281.983 590.866 357.892 522.189 C 375.263 506.581 392.004 493.753 410.459 479.643 z"/>
<path transform="translate(0,0)" fill="rgb(254,0,0)" d="M 761.927 272.486 C 807.72 271.336 853.517 274.637 898.672 282.343 C 1090.58 316.69 1253.97 426.199 1364.43 586.365 C 1391.93 625.498 1416.03 666.902 1436.5 710.128 C 1442.94 723.58 1450.14 737.553 1453.68 752.1 C 1455.87 761.121 1456.33 770.068 1454.58 779.202 C 1446.16 823.04 1352.91 982.855 1315.48 1008.02 C 1304.63 1015.31 1292.64 1018.79 1279.68 1016.11 C 1266.67 1013.42 1254.58 1006.06 1247.37 994.746 C 1239.3 982.093 1239.15 966.273 1242.52 952.067 L 1242.88 950.574 C 1250.53 933.947 1267.56 916.156 1278.44 900.538 C 1304.82 862.661 1338.88 810.092 1355.51 767.231 C 1313.26 674.153 1252.51 590.647 1176.96 521.796 C 1030.2 387.818 839.372 349.141 649.507 378.44 C 615.443 383.697 581.832 329.39 614.083 296.498 C 619.344 291.105 625.762 286.978 632.851 284.428 C 643.446 280.531 651.374 280.396 661.951 278.685 C 695.783 273.213 727.836 272.919 761.927 272.486 z"/>
</svg>
