<svg version="1.1" xmlns="http://www.w3.org/2000/svg" style="display: block;" viewBox="0 0 1536 1536" width="384" height="384" preserveAspectRatio="none">
<path transform="translate(0,0)" fill="rgb(255,0,0)" d="M 768.586 272.484 C 789.144 272.741 813.375 272.956 833.582 275.874 C 1005.31 300.675 1145.1 402.291 1265.41 519.778 C 1305.04 558.872 1342.39 600.209 1377.28 643.586 C 1390.87 660.479 1406.7 679.291 1416.33 698.826 C 1436.05 738.86 1436.42 791.778 1418.16 832.357 C 1406.72 857.767 1388.46 877.946 1371.33 899.535 C 1339.36 939.847 1304.36 977.04 1268.26 1013.63 C 1151.21 1129.8 1004.29 1235.09 837.611 1259.81 C 816.023 1263.01 790.475 1263.88 768.872 1264.09 C 583.067 1265.09 415.682 1155.56 286.256 1031.17 C 241.178 987.956 198.93 941.882 159.777 893.235 C 145.327 875.227 130.096 857.268 119.795 836.454 C 109.934 816.527 105.208 795.895 104.814 773.752 C 104.383 749.514 107.741 726.705 117.53 704.327 C 136.986 659.85 206.945 586.059 241.561 549.574 C 249.111 541.616 256.152 533.16 263.787 525.293 C 271.926 516.907 281.01 509.289 289.535 501.289 C 309.836 482.24 329.947 463.759 351.405 445.966 C 453.019 361.71 572.979 292.227 706.059 275.593 C 726.862 272.993 747.659 272.724 768.586 272.484 z M 799.187 1165.96 C 1002.99 1145.54 1172.78 986.992 1297.99 835.525 C 1314.4 815.125 1337.84 790.932 1334.46 762.427 C 1331.37 736.381 1304.06 707.492 1287.03 687.407 C 1162.99 541.101 999.768 391.31 801.111 369.868 C 781.901 367.794 758.726 368.524 739.701 369.405 C 702.943 373.158 669.426 379.273 634.158 391.542 C 472.819 448.288 342.986 572.873 236.123 702.593 C 219.323 722.987 197.992 746.328 201.505 774.501 C 204.541 798.841 229.175 824.859 244.716 843.539 C 282.249 889.277 322.745 932.501 365.943 972.932 C 388.944 994.312 412.846 1014.7 437.583 1034.05 C 521.484 1099.74 624.459 1155.35 731.799 1165.47 C 750.622 1167.25 780.425 1168.18 799.187 1165.96 z"/>
<path transform="translate(0,0)" fill="rgb(255,0,0)" fill-opacity="0.537255" d="M 739.701 369.405 C 758.726 368.524 781.901 367.794 801.111 369.868 C 999.768 391.31 1162.99 541.101 1287.03 687.407 C 1304.06 707.492 1331.37 736.381 1334.46 762.427 C 1337.84 790.932 1314.4 815.125 1297.99 835.525 C 1172.78 986.992 1002.99 1145.54 799.187 1165.96 C 780.425 1168.18 750.622 1167.25 731.799 1165.47 C 624.459 1155.35 521.484 1099.74 437.583 1034.05 C 412.846 1014.7 388.944 994.312 365.943 972.932 C 322.745 932.501 282.249 889.277 244.716 843.539 C 229.175 824.859 204.541 798.841 201.505 774.501 C 197.992 746.328 219.323 722.987 236.123 702.593 C 342.986 572.873 472.819 448.288 634.158 391.542 C 669.426 379.273 702.943 373.158 739.701 369.405 z M 773.48 910.564 C 852.11 907.529 913.446 841.42 910.591 762.784 C 907.736 684.147 841.769 622.66 763.126 625.334 C 684.227 628.017 622.496 694.246 625.36 773.138 C 628.224 852.03 694.595 913.609 773.48 910.564 z"/>
<path transform="translate(0,0)" fill="rgb(255,0,0)" d="M 748.331 528.528 C 880.552 517.702 996.513 616.114 1007.34 748.335 C 1018.16 880.556 919.741 996.515 787.519 1007.33 C 655.304 1018.15 539.352 919.738 528.531 787.523 C 517.71 655.308 616.117 539.353 748.331 528.528 z M 773.48 910.564 C 852.11 907.529 913.446 841.42 910.591 762.784 C 907.736 684.147 841.769 622.66 763.126 625.334 C 684.227 628.017 622.496 694.246 625.36 773.138 C 628.224 852.03 694.595 913.609 773.48 910.564 z"/>
</svg>
