<svg version="1.1" xmlns="http://www.w3.org/2000/svg" style="display: block;" viewBox="0 0 1536 1536" width="384" height="384" preserveAspectRatio="none">
<path transform="translate(0,0)" fill="rgb(100,61,228)" d="M 554.639 272.479 C 579.982 272.135 605.326 271.936 630.672 271.881 C 646.529 271.841 674.316 270.907 688.553 274.177 C 698.767 276.551 708.215 281.466 716.021 288.467 C 728.806 300.007 734.675 315.113 735.347 332.158 C 736.088 349.051 729.974 365.527 718.394 377.847 C 693.451 404.489 654.366 395.515 622.236 397.184 C 503.823 403.337 319.389 372.033 283.575 525.337 C 274.626 568.358 270.304 615.209 270.324 659.2 C 270.383 792.203 265.612 926.054 273.873 1058.78 C 279.899 1155.61 302.067 1234.3 410.063 1253.58 C 491.388 1265.98 590.28 1270.23 672.514 1266.99 C 764.725 1263.35 962.342 1279.84 1043.39 1241.31 C 1072.84 1227.4 1096.82 1204.08 1111.56 1175.04 C 1142.34 1113.06 1137.14 988.544 1138.35 919.453 C 1138.66 901.821 1136.88 866.194 1140.43 850.531 C 1142.99 839.118 1148.5 828.578 1156.41 819.966 C 1185.9 788.515 1239.87 796.861 1258.44 835.805 C 1263.04 845.455 1263.85 856.023 1264.06 866.555 C 1264.24 912.596 1264 958.637 1263.34 1004.67 C 1261.4 1111.36 1254.22 1220.08 1175.47 1300.38 C 1084.66 1392.97 952.988 1389.64 832.878 1391.7 C 758.601 1392.25 684.321 1392.28 610.044 1391.78 C 484.926 1390.03 330.633 1395.48 235.292 1302.05 C 161.516 1229.76 146.776 1109.85 145.195 1011.4 C 144.311 934.425 143.956 857.449 144.13 780.473 C 144.125 745.425 144.311 710.377 144.688 675.331 C 145.835 562.72 149.686 448.982 232.915 363.66 C 318.216 276.215 440.755 274.094 554.639 272.479 z"/>
<path transform="translate(0,0)" fill="rgb(100,61,228)" d="M 982.523 294.777 C 991.315 298.618 1213 523.616 1242.21 552.372 C 1237.18 559.626 1205.72 590.361 1197.69 598.438 L 1091.34 704.625 L 931.122 864.832 L 878.399 917.67 C 810.118 986.224 776.332 1008.84 681.424 1031.81 C 639.998 1041.18 598.7 1053 557.343 1062.84 C 542.197 1066.44 524.482 1071.91 508.914 1071.53 C 496.442 1071.28 484.608 1065.97 476.123 1056.83 C 468.028 1048.02 462.689 1032.36 464.634 1020.64 C 473.397 967.852 490.056 915.461 501.987 863.173 C 506.723 842.417 512.592 819.566 519.527 799.794 C 526.381 779.803 535.389 760.617 546.393 742.575 C 573.923 697.8 617.325 659.282 654.779 621.853 L 772.872 503.747 L 908.556 368.022 C 931.243 345.33 959.24 315.716 982.523 294.777 z"/>
<path transform="translate(0,0)" fill="rgb(100,61,228)" d="M 1198.63 144.429 C 1214.31 143.593 1230.02 144.544 1245.48 147.263 C 1257.3 149.419 1267.01 152.486 1277.98 156.878 C 1406.85 208.502 1430.01 375.125 1329.88 466.486 C 1322.84 472.912 1317.62 479.818 1309.41 485.477 C 1299.29 476.029 1288.15 464.233 1278.3 454.272 L 1128.98 304.958 C 1103.64 279.623 1074.79 252.076 1050.5 226.202 C 1060.64 216.943 1071.2 204.913 1081.66 195.125 C 1115.35 163.598 1152.69 147.236 1198.63 144.429 z"/>
</svg>