<svg version="1.1" xmlns="http://www.w3.org/2000/svg" style="display: block;" viewBox="0 0 1536 1536" width="384" height="384" preserveAspectRatio="none">
<path transform="translate(0,0)" fill="rgb(101,62,228)" d="M 528.629 80.4687 C 567.865 79.4925 608.44 79.9347 647.739 79.9252 L 841.032 79.9167 C 892.38 79.759 943.729 79.8687 995.076 80.246 C 1097.4 81.7451 1220.41 83.6785 1282.75 179.753 C 1324.47 244.043 1326.31 328.708 1327.59 402.981 C 1328.09 452.663 1328.24 502.349 1328.04 552.034 L 1328.04 938.087 L 1328.02 1195.03 L 1328.04 1269.84 C 1327.99 1324.62 1330.35 1376.61 1277.7 1409.85 C 1186.52 1467.41 1118.85 1370.72 1039.24 1344.26 C 1006.73 1333.46 962.545 1367.08 935.792 1384.1 C 888.711 1412.01 841.641 1448.82 785.699 1455.19 C 730.252 1461.5 688.16 1437.93 642.445 1409.72 L 577.437 1369.35 C 556.963 1356.71 536.305 1342.39 511.246 1342.53 C 459.93 1342.83 389.36 1425.44 321.641 1427.68 C 292.225 1428.66 263.404 1416.9 242.117 1396.8 C 214.494 1370.72 209.491 1338.35 208.624 1302.36 C 206.865 1229.41 208.135 1156.18 208.13 1083.19 L 208.118 685.918 L 208.15 466.962 C 208.4 365.33 200.334 231.399 275.359 152.358 C 339.077 85.23 442.068 82.2518 528.629 80.4687 z M 578.827 959.15 C 609.746 955.763 617.802 943.16 638.681 922.232 L 677.284 883.528 L 807.306 753.508 L 942.815 618.014 L 984.431 576.41 C 1006.17 554.703 1026.6 538.73 1022.64 504.543 C 1018.77 471.038 991.333 448.917 958.322 448.327 C 925.126 452.652 918.483 464.21 896.054 487.185 C 885.047 498.419 873.963 509.576 862.802 520.657 L 730.564 652.972 L 590.108 793.374 L 552.092 831.208 C 529.626 853.443 506.66 872.049 513.896 908.009 C 520.229 939.483 546.898 959.552 578.827 959.15 z M 965.488 958.836 C 1000.18 955.787 1025.87 925.244 1022.92 890.542 C 1019.98 855.839 989.51 830.062 954.799 832.904 C 919.942 835.759 894.032 866.382 896.99 901.231 C 899.948 936.079 930.649 961.898 965.488 958.836 z M 582.487 574.738 C 616.992 571.153 642.156 540.421 638.863 505.887 C 635.57 471.352 605.052 445.929 570.491 448.93 C 535.514 451.967 509.718 482.933 513.051 517.883 C 516.383 552.833 547.566 578.365 582.487 574.738 z"/>
</svg>