<svg version="1.1" xmlns="http://www.w3.org/2000/svg" style="display: block;" viewBox="0 0 1536 1536" width="384" height="384" preserveAspectRatio="none">
<path transform="translate(0,0)" fill="rgb(102,63,231)" d="M 683.127 176.481 C 766.5 175.498 849.884 175.983 933.239 177.935 C 1033.41 179.866 1155.75 179.342 1251.44 210.242 C 1293.37 223.78 1329.36 248.265 1360.35 279.191 C 1437.39 356.064 1447.49 462.926 1452.24 565.492 C 1454.2 612.623 1455.32 659.785 1455.61 706.956 C 1456.27 764.895 1456.04 822.84 1454.93 880.772 C 1453.63 962.212 1451.88 1059.06 1429.48 1137.61 C 1416.17 1182.87 1394.3 1221.05 1362.23 1255.14 C 1275.17 1347.66 1142.62 1351.41 1023.1 1355.83 C 966.851 1357.76 910.581 1358.91 854.304 1359.3 L 851.068 1359.35 C 773.479 1360.4 695.877 1360.08 618.3 1358.38 C 575.756 1357.97 533.224 1356.8 490.722 1354.87 C 380.793 1350.32 268.733 1344.03 184.481 1265.01 C 101.014 1186.73 89.3603 1083.26 84.1938 975.349 C 82.7077 949.44 81.7466 923.504 81.3111 897.556 C 80.264 828.611 80.0949 759.655 80.8038 690.705 C 80.7883 648.449 81.8452 606.2 83.9735 563.998 C 88.7444 460.866 98.3055 360.681 173.452 281.672 C 260.396 190.259 379.744 185.966 498.957 180.77 C 560.326 178.541 621.721 177.111 683.127 176.481 z M 1321 1000.25 C 1322.17 974.727 1324.02 947.313 1324.67 921.999 C 1327.2 832.399 1327.36 742.748 1325.16 653.14 C 1324.63 627.425 1324.97 601.944 1323.15 575.831 C 1322.18 561.961 1323.17 536.351 1314.73 524.246 C 1310.27 517.85 1293.43 523.75 1288.19 526.751 C 1269.13 536.446 1250.6 547.758 1231.98 558.287 L 1112.16 626.161 C 1046.85 662.901 982.757 702.623 914.569 733.446 C 760.257 803.2 657.809 758.817 520.389 680.536 L 370.681 595.709 L 301.591 556.592 C 285.455 547.427 246.538 523.088 229.31 520.043 C 224.527 522.025 219.235 524.515 217.885 529.931 C 212.172 552.86 212.321 588.308 211.583 612.13 C 210.051 666.693 209.116 721.27 208.776 775.853 C 208.805 792.056 209.864 807.904 209.935 824.264 C 210.222 891.179 211.549 959.496 217.146 1026.14 C 220.967 1060.28 225.719 1094.15 240.113 1125.77 C 256.614 1162.02 287.73 1189.75 325.156 1203.09 C 360.748 1215.77 396.268 1219.31 433.546 1222.64 C 471.196 1226.01 508.259 1226.51 546.004 1227.91 C 652.452 1231.69 758.983 1232.59 865.479 1230.62 C 915.444 1230.04 965.401 1228.88 1015.34 1227.12 C 1076.55 1225.05 1168.68 1223.23 1224.25 1197.31 C 1260.28 1180.32 1288.09 1149.71 1301.56 1112.22 C 1313.44 1079.36 1318.41 1035.17 1321 1000.25 z"/>
</svg>