<svg version="1.1" xmlns="http://www.w3.org/2000/svg" style="display: block;" viewBox="0 0 1536 1536" width="384" height="384" preserveAspectRatio="none">
<path transform="translate(0,0)" fill="rgb(101,62,231)" d="M 762.815 80.3442 C 795.113 78.0431 818.88 107.622 841.523 127.656 C 977.212 247.709 1107.25 376.966 1206.84 529.276 C 1306.07 681.029 1353.57 835.046 1314.88 1015.77 C 1285.44 1159.54 1199.65 1285.52 1076.67 1365.58 C 950.079 1447.08 796.388 1475.17 649.156 1443.74 C 641.291 1443.12 611.751 1434.65 603.356 1432.13 C 515.43 1405.44 431.391 1355.88 367.124 1290.16 C 255.851 1175.99 200.627 1019.13 208.68 859.433 C 219.238 650.073 371.116 466.013 508.433 319.265 C 519.884 308.351 531.147 303.161 546.786 304.31 C 590.377 307.514 589.261 341.521 600.206 373.06 C 606.783 392.014 628.538 426.361 641.82 441.134 C 647.214 433.332 652.733 425.731 658.165 417.845 C 704.43 350.675 713.714 264.482 717.648 185.068 C 718.233 173.265 718.599 159.225 718.475 147.602 C 718.118 113.905 725.09 85.8825 762.815 80.3442 z M 607.347 1167.35 C 624.072 1166.43 631.173 1162.66 643.612 1151.06 C 656.772 1138.78 669.311 1125.95 682.032 1113.24 L 762.935 1032.29 L 890.662 904.577 C 913.172 882.061 936.156 859.473 958.2 836.425 C 969.687 824.414 975.416 814.901 975.121 797.476 C 974.913 785.222 968.007 772.481 958.715 764.353 C 950.15 756.894 939.255 752.649 927.901 752.346 C 917.305 753.664 907.997 755.523 899.751 762.808 C 880.763 779.583 861.911 799.427 843.98 817.401 L 738.175 923.298 L 628.007 1033.42 C 609.359 1052.06 588.736 1071.21 571.681 1091.12 C 545.76 1121.38 567.874 1165.13 607.347 1167.35 z M 913.496 1167.13 C 948.449 1166.28 976.067 1137.21 975.12 1102.26 C 974.172 1067.31 945.019 1039.77 910.071 1040.82 C 875.264 1041.86 847.863 1070.87 848.807 1105.68 C 849.751 1140.49 878.684 1167.98 913.496 1167.13 z M 625.496 879.133 C 660.398 878.275 687.986 849.267 687.091 814.366 C 686.197 779.464 657.159 751.908 622.259 752.84 C 587.411 753.77 559.905 782.755 560.798 817.603 C 561.692 852.452 590.647 879.989 625.496 879.133 z"/>
</svg>