<svg version="1.1" xmlns="http://www.w3.org/2000/svg" style="display: block;" viewBox="0 0 1536 1536" width="384" height="384" preserveAspectRatio="none">
<path transform="translate(0,0)" fill="rgb(102,63,231)" d="M 634.021 80.4811 L 669.543 80.0926 L 864.554 80.0914 C 960.966 80.8243 1067.78 79.7777 1159.39 108.778 C 1253.04 138.426 1337.49 224.624 1365.31 318.459 C 1390.74 404.228 1391.24 501.327 1391.86 589.999 L 1392.03 846.294 C 1392.21 894.989 1391.98 943.685 1391.35 992.376 C 1390.06 1068.08 1387.11 1146.16 1364.72 1219.37 C 1341.3 1297.21 1277.86 1370.47 1205.88 1407.78 C 1118.78 1452.92 999.043 1454.8 902.978 1455.29 L 881.464 1455.67 C 824.203 1456.16 766.939 1456.29 709.676 1456.05 C 603.853 1455.95 475.039 1458.41 374.536 1426.33 C 327.941 1411.46 291.547 1386.28 256.367 1352.88 C 185.988 1286.06 161.379 1212.37 151.28 1117 C 147.501 1082.49 145.431 1047.82 145.077 1013.11 C 144.101 908.877 143.787 804.64 144.134 700.405 C 144.06 655.367 144.237 610.329 144.666 565.292 C 145.295 486.049 146.998 409.589 166.945 332.017 C 187.805 250.899 247.788 174.897 320.453 133.45 C 409.378 82.7293 533.554 81.6283 634.021 80.4811 z M 955.519 831.385 C 974.691 831.242 990.919 826.243 1004.81 812.348 C 1016.66 800.251 1023.2 783.922 1022.97 766.986 C 1022.86 749.905 1015.72 733.622 1003.24 721.96 C 993.801 713.104 981.891 707.325 969.09 705.387 C 954.997 703.378 920.954 704.026 905.373 704.025 L 794.538 704.033 L 583.468 704.042 C 539.349 703.731 495.229 703.899 451.114 704.544 C 414.13 705.446 383.394 731.811 384.672 770.065 C 385.326 787.077 392.817 803.105 405.449 814.519 C 413.471 821.876 428.008 829.753 438.717 830.59 C 462.981 832.488 489.357 832.007 513.768 832.007 L 646.661 831.98 L 846.288 831.972 C 879.112 831.978 922.009 833.239 954.2 831.462 L 955.519 831.385 z M 635.517 1151.38 C 654.828 1151.29 670.406 1146.57 684.424 1132.53 C 696.468 1120.48 703.156 1104.1 702.98 1087.07 C 702.985 1070.48 696.3 1054.6 684.44 1043.01 C 676.061 1034.76 665.505 1029.06 654.005 1026.58 C 638.012 1023.08 595.12 1023.89 576.406 1024 C 540.297 1024.21 502.758 1023.54 466.722 1024.18 C 461.519 1024.27 456.316 1024.39 451.114 1024.54 C 431.782 1024.97 416.524 1029.95 402.852 1044.23 C 390.717 1056.7 384.17 1073.56 384.715 1090.95 C 385.453 1107.7 392.948 1123.43 405.489 1134.56 C 412.443 1140.81 425.424 1148.74 434.957 1149.61 C 492.318 1154.79 551.11 1150.75 608.77 1151.94 C 617.446 1152.12 626.949 1151.88 635.517 1151.38 z"/>
</svg>