<svg version="1.1" xmlns="http://www.w3.org/2000/svg" style="display: block;" viewBox="0 0 1536 1536" width="384" height="384" preserveAspectRatio="none">
<path transform="translate(0,0)" fill="rgb(102,63,231)" d="M 407.533 136.476 C 469.73 135.864 531.93 135.686 594.13 135.941 L 910.629 135.935 L 1105.83 136.145 C 1199.21 137.177 1313.12 135.149 1384.69 204.329 C 1454.61 271.922 1454.56 382.304 1455.81 472.754 C 1456.83 546.496 1455.5 619.853 1456.03 693.561 C 1452.93 846.298 1482.81 1061.75 1291 1111.1 C 1235.76 1125.32 1185.87 1126.8 1130.05 1127.29 L 1123.71 1127.46 C 1064.55 1128.88 1002.83 1128.06 943.492 1128.07 L 634.878 1128.07 C 565.361 1128.07 495.578 1128.45 426.052 1127.73 C 373.876 1127.13 324.002 1126.34 272.462 1117.37 C 120.601 1090.95 83.904 976.382 81.1324 838.088 C 80.1111 752.019 79.7776 665.944 80.1319 579.87 C 80.0469 541.621 80.1998 503.371 80.5906 465.123 C 81.5649 376.618 82.9776 275.241 148.215 207.627 C 213.86 139.59 319.504 137.932 407.533 136.476 z"/>
<path transform="translate(0,0)" fill="rgb(102,63,231)" d="M 740.916 1208.55 C 755.038 1208 769.173 1207.88 783.302 1208.19 C 866.547 1209.56 948.56 1228.53 1023.95 1263.85 C 1039.44 1271.05 1061.18 1281.03 1072.66 1293.25 C 1094.85 1316.93 1092.94 1362.41 1068.16 1383.63 C 1042.7 1405.44 1012.84 1403.27 984.795 1388.54 C 925.191 1357.24 860.184 1341.37 793.248 1337.4 C 724.778 1332.65 647.407 1346.89 584.384 1373.05 C 561.956 1381.32 540.52 1398.3 516.208 1399.78 C 479.501 1402.02 449.221 1375.86 448.129 1338.88 C 446.774 1293.02 478.688 1278.87 514.21 1262.85 C 585.449 1229.95 662.502 1211.49 740.916 1208.55 z"/>
</svg>