<svg version="1.1" xmlns="http://www.w3.org/2000/svg" style="display: block;" viewBox="0 0 1536 1536" width="384" height="384" preserveAspectRatio="none">
<path transform="translate(0,0)" fill="rgb(101,62,231)" d="M 749.746 80.4464 C 756.956 80.1211 764.174 79.9987 771.391 80.0793 C 945.52 81.603 1092.63 208.533 1117.1 381.867 C 1120.88 408.634 1120.07 436.27 1120.08 463.259 L 1119.92 545.304 C 1154.58 552.826 1204.97 585.278 1230.17 610.284 C 1302.08 681.665 1311 751.334 1320.12 846.998 C 1324.34 891.243 1327.28 924.624 1327.9 969.71 C 1329.05 1026.25 1326.41 1082.81 1320.01 1139 C 1317.03 1167.28 1313.98 1195.62 1309.22 1223.52 C 1290.66 1332.32 1206.96 1421.65 1098.47 1444.18 C 1071.88 1449.7 1045.93 1450.65 1018.9 1451.68 C 996.516 1452.69 974.116 1453.42 951.711 1453.87 C 897.421 1455.09 843.121 1455.8 788.818 1456.01 C 721.419 1456.12 654.021 1455.43 586.638 1453.92 C 561.506 1453.41 536.382 1452.55 511.274 1451.34 C 455.271 1449 417.84 1445.24 367.17 1418.13 C 303.209 1383.78 255.564 1325.36 234.771 1255.8 C 224.946 1223.12 221.623 1188.33 217.748 1154.46 C 214.216 1123.6 211.02 1091.59 209.477 1060.53 C 206.022 985.434 208.548 910.185 217.029 835.493 C 219.885 808.604 224.292 768.23 230.546 742.494 C 236.003 720.29 244.168 698.841 254.858 678.629 C 289.851 613.807 346.187 566.131 417.018 544.957 C 416.803 541.599 416.63 538.239 416.497 534.877 C 415.619 513.219 416.119 488.257 416.097 466.533 C 416.612 440.242 415.131 412.617 418.33 386.508 C 438.862 218.98 581.185 86.8176 749.746 80.4464 z M 544.102 531.757 C 565.267 529.74 595.411 530.058 617.301 529.522 C 673.56 528.402 729.829 527.913 786.098 528.055 C 825.873 528.206 865.646 528.595 905.416 529.222 C 930.814 529.795 967.576 531.686 992.627 530.743 C 990.047 453.495 1001.47 388.255 960.339 318.825 C 949.47 300.357 936.041 283.52 920.451 268.817 C 876.243 227.618 812.779 203.704 752.172 209.383 C 687.574 215.838 638.577 240.291 595.932 290.485 C 535.098 362.088 543.931 443.195 544.102 531.757 z M 1033.46 1054.3 C 1068.1 1049.04 1091.9 1016.68 1086.61 982.051 C 1081.32 947.419 1048.94 923.644 1014.31 928.965 C 979.727 934.28 955.987 966.612 961.272 1001.2 C 966.557 1035.79 998.869 1059.56 1033.46 1054.3 z M 521.464 1054.3 C 556.099 1049.04 579.901 1016.69 574.612 982.055 C 569.323 947.425 536.948 923.648 502.322 928.964 C 467.733 934.274 443.989 966.605 449.272 1001.2 C 454.555 1035.79 486.867 1059.56 521.464 1054.3 z M 777.464 1054.3 C 812.099 1049.04 835.9 1016.69 830.612 982.056 C 825.323 947.425 792.948 923.648 758.322 928.964 C 723.733 934.274 699.989 966.605 705.272 1001.2 C 710.555 1035.79 742.867 1059.56 777.464 1054.3 z"/>
</svg>