<svg version="1.1" xmlns="http://www.w3.org/2000/svg" style="display: block;" viewBox="0 0 1536 1536" width="384" height="384" preserveAspectRatio="none">
<path transform="translate(0,0)" fill="rgb(100,61,228)" d="M 356.627 656.472 L 357.796 656.444 C 423.595 654.916 492.924 655.939 558.917 655.934 L 918.499 655.939 L 1110.14 655.962 C 1167.06 656.005 1230.45 655.128 1286.49 664.374 C 1325.01 670.729 1364.31 686.448 1392.87 713.738 C 1448 766.421 1453.58 843.485 1455.27 915.299 C 1456.07 963.234 1456.33 1011.18 1456.03 1059.12 C 1455.95 1145.16 1461.86 1264.42 1397.73 1330.25 C 1342.53 1386.91 1253.98 1390.24 1180.38 1391.32 C 1116.04 1393.38 1045.7 1392.06 981.019 1392.07 L 628.908 1392.07 L 431.748 1392.06 C 235.337 1392.05 87.672 1395.21 81.1988 1151.65 C 80.2663 1098.02 79.9197 1044.39 80.1591 990.757 C 80.4874 902.709 73.2323 785.813 138.234 718.407 C 194.243 660.327 281.393 657.998 356.627 656.472 z M 1038.54 1019.53 C 1060.42 990.547 1093.01 955.664 1051.55 921.765 C 1034.85 908.106 1009.21 910.202 993.862 924.172 C 984.174 932.989 976.266 945.458 968.155 955.897 C 947.788 980.139 919.483 1031.59 886.398 1036.45 C 846.814 1042.27 804.42 1039.18 764.451 1040.09 C 736.288 1039.98 678.693 1041.4 653.243 1037.33 C 644.797 1036.01 636.76 1032.8 629.728 1027.93 C 606.59 1012.04 583.144 973.656 565.216 951.657 C 550.06 933.06 538.447 911.206 510.02 912.376 C 493.834 915.094 481.673 920.213 472.392 934.506 C 454.183 962.549 470.746 984.573 487.951 1006.85 C 527.757 1058.39 565.428 1119.91 635.594 1130.45 C 679.803 1137.24 724.625 1135.29 769.258 1136 C 811.159 1136.11 860.676 1136.58 901.385 1130.25 C 964.23 1120.47 1002.23 1067.42 1038.54 1019.53 z"/>
<path transform="translate(0,0)" fill="rgb(100,61,228)" d="M 439.082 400.463 C 486.891 398.723 542.143 399.942 590.445 399.936 L 865.626 399.927 L 1028.53 399.949 C 1070.99 399.96 1115.27 399.06 1157.36 404.664 C 1231.57 414.546 1297.74 472.364 1317.85 544.385 C 1322.29 560.301 1324.21 576.177 1326.75 592.428 C 1273.39 576.397 1157.58 576.186 1100.5 576.052 L 588.292 576.057 C 518.907 575.618 449.52 575.828 380.139 576.687 C 319.307 578.041 268.968 578.613 209.319 592.073 C 216.617 540.224 228.061 501.742 265.579 462.937 C 316.113 410.669 370.11 401.97 439.082 400.463 z"/>
<path transform="translate(0,0)" fill="rgb(100,61,228)" d="M 567.278 144.461 C 597.702 143.351 631.765 143.965 662.434 143.959 L 825.119 143.975 L 929.976 144.025 C 961.939 144.101 992.919 144.283 1024.75 148.047 C 1101.3 157.1 1168.04 213.559 1189.55 287.556 C 1193.98 302.805 1195.25 317.993 1198.98 333.166 C 1159.63 318.062 1021.35 320.07 972.5 320.059 L 612.539 320.027 C 568.209 319.804 523.878 319.99 479.551 320.584 C 432.325 321.202 384.557 321.311 338.291 332.068 C 344.226 268.865 372.178 217.793 424.235 180.997 C 468.702 149.566 514.548 145.68 567.278 144.461 z"/>
</svg>