<svg version="1.1" xmlns="http://www.w3.org/2000/svg" style="display: block;" viewBox="0 0 1536 1536" width="384" height="384" preserveAspectRatio="none">
<path transform="translate(0,0)" fill="rgb(100,61,228)" d="M 1017.72 816.44 C 1051.67 814.509 1087.64 816.377 1121.61 815.928 C 1201.85 814.866 1262.12 813.015 1325.15 869.691 C 1404.73 941.251 1391.53 1025.25 1392.07 1122.17 C 1393.06 1200.82 1394.81 1265.78 1337.15 1327.18 C 1298.12 1368.74 1249.16 1388.96 1192.84 1391.3 C 1191.61 1391.38 1190.38 1391.46 1189.15 1391.52 C 1156.77 1393.11 1121.11 1391.72 1088.41 1392.09 C 1008.53 1392.85 946.572 1395.63 883.927 1339.1 C 803.644 1266.65 816.969 1185.52 816.088 1088.17 C 815.375 1009.37 812.204 945.521 869.112 883.361 C 909.871 838.841 958.018 818.919 1017.72 816.44 z"/>
<path transform="translate(0,0)" fill="rgb(100,61,228)" d="M 366.343 144.456 L 367.925 144.412 C 400.743 143.562 434.753 144.246 467.078 144.005 C 541.631 143.451 600.78 147.383 657.348 202.201 C 702.232 244.919 722.131 303.603 719.74 365.537 C 715.878 465.575 741.35 578.983 662.305 657.565 C 612.706 706.873 564.506 718.321 498.117 719.268 C 493.803 719.448 489.489 719.59 485.173 719.692 C 454.556 720.438 423.673 719.715 393.403 719.97 C 320.065 720.586 263.073 715.471 207.401 662.321 C 165.602 622.415 146.331 572.129 144.98 514.865 C 144.233 477.656 143.97 440.438 144.194 403.221 C 144.526 325.815 143.689 267.676 201.648 206.907 C 248.583 157.698 301.264 145.892 366.343 144.456 z"/>
<path transform="translate(0,0)" fill="rgb(100,61,228)" d="M 1038.08 144.456 L 1042.74 144.334 C 1075.37 143.597 1109.19 144.249 1141.36 144.021 C 1215.3 143.497 1273.62 148.08 1329.61 202.466 C 1375.69 246.503 1394.27 305.615 1391.8 368.908 C 1387.93 468.442 1412.91 580.096 1333.73 658.166 C 1284.1 707.101 1236.31 718.279 1170.05 719.267 C 1166.76 719.412 1163.47 719.532 1160.17 719.625 C 1129.69 720.501 1099.02 719.761 1068.82 719.997 C 994.169 720.582 936.77 716.667 879.806 662.693 C 838.754 623.795 818.474 573.198 817.032 517.011 C 816.258 479.679 815.976 442.339 816.186 404.999 C 816.478 327.104 815.247 268.298 873.416 207.168 C 920.394 157.799 972.88 145.947 1038.08 144.456 z"/>
<path transform="translate(0,0)" fill="rgb(100,61,228)" d="M 365.815 816.482 L 372.381 816.319 C 405.509 815.932 438.639 815.843 471.768 816.051 C 546.741 816.782 600.232 819.259 657.907 874.757 C 704.668 919.44 722.29 979.033 719.841 1042.9 C 716.033 1142.16 740.578 1252.32 661.739 1330.14 C 612.24 1379.01 564.391 1390.32 498.1 1391.26 L 489.782 1391.54 C 457.813 1392.49 425.81 1391.71 394.232 1391.97 C 320.739 1392.56 264.004 1387.87 207.963 1334.83 C 166.457 1295.54 146.478 1245.14 145.024 1188.4 C 144.267 1151.04 143.994 1113.67 144.205 1076.31 C 144.53 998.474 143.301 940.308 201.423 879.212 C 248.629 829.59 300.44 818.08 365.815 816.482 z"/>
</svg>