<svg version="1.1" xmlns="http://www.w3.org/2000/svg" style="display: block;" viewBox="0 0 1536 1536" width="384" height="384" preserveAspectRatio="none">
<path transform="translate(0,0)" fill="rgb(102,63,231)" d="M 678.354 144.471 C 755.82 142.744 836.173 144.588 913.674 145.505 C 928.304 145.678 983.274 146.236 994.146 148.235 C 994.478 148.627 994.811 149.018 995.144 149.41 C 991.163 161.279 980.155 182.916 976.496 194.106 C 963.952 232.021 959.101 272.057 962.225 311.87 C 967.956 394.912 1008.14 460.035 1069.83 513.596 C 1051.43 511.284 1020.48 512.028 1001.26 512.031 L 889.905 512.058 L 513.613 512.082 C 484.141 512.149 457.465 509.088 435.372 531.625 C 423.129 543.916 416.4 560.651 416.728 577.997 C 417.301 594.934 424.685 610.923 437.207 622.342 C 446.726 631.08 460.836 638.01 473.669 638.861 C 498.746 640.523 525.848 639.979 550.984 639.985 L 695.46 639.962 L 926.116 639.977 C 969.128 639.978 1011.99 640.314 1055.02 639.347 C 1095.61 638.435 1124.97 604.205 1117.95 564.063 C 1116.72 557.026 1112.52 550.283 1112.06 542.794 C 1112.47 542.455 1112.88 542.116 1113.28 541.777 C 1117.87 543.989 1124.92 547.496 1129.26 549.498 C 1162.52 564.815 1199.49 573.8 1236.05 575.039 C 1320.82 577.911 1390.12 548.227 1451.44 491.006 C 1460.33 638.533 1455.98 792.334 1450.55 939.997 C 1448.23 1003.22 1437.82 1073.5 1404.92 1128.42 C 1398.16 1141.83 1381.11 1162.11 1370.53 1172.84 C 1296.57 1247.89 1191.77 1250.84 1092.75 1256.42 C 1034.19 1259.59 975.566 1261.65 916.922 1262.6 C 889.408 1263.05 839.143 1261.45 814.227 1272.22 C 803.523 1276.84 781.968 1296.59 772.532 1304.46 C 739.368 1332.27 706.468 1360.38 673.835 1388.81 C 653.758 1406.24 626.235 1432.09 604.369 1445.01 C 570.441 1465.07 518.225 1456.72 491.33 1428.41 C 461.724 1397.25 464.018 1369.7 464.064 1331.11 L 464.556 1265.61 C 464.553 1263.99 463.911 1258.23 461.9 1258.01 C 434.305 1255.04 405.012 1254.46 377.306 1252.36 C 301.293 1246.59 224.687 1230.94 168.701 1175.21 C 96.5327 1105.54 88.6438 1010.3 84.406 915.681 C 83.0682 885.811 81.6014 856.999 81.2097 826.999 C 80.1232 755.8 80.0041 684.588 80.8527 613.386 C 80.9903 574.399 82.1248 535.423 84.2548 496.495 C 88.7162 401.491 94.5231 307.558 165.088 235.694 C 244.57 154.749 365.569 155.138 471.246 150.158 C 540.241 146.98 609.289 145.084 678.354 144.471 z M 826.613 895.461 C 846.543 895.113 862.805 890.749 877.127 875.857 C 889.12 863.628 895.588 847.026 895.029 829.907 C 894.16 800.674 871.989 773.905 842.713 769.939 C 824.16 767.426 804.371 768.038 785.607 768.031 L 704.279 768.015 L 565.68 768.03 C 540.82 768.038 511.403 767.354 486.883 768.503 C 466.137 768.76 449.734 772.534 434.696 788.137 C 422.994 800.428 416.558 816.804 416.758 833.773 C 417.196 850.31 424.181 865.996 436.179 877.386 C 459.753 899.978 493.531 895.995 524.052 896.009 L 599.385 896.021 L 741.262 895.992 C 767.015 895.981 794.971 896.499 820.536 895.703 C 822.562 895.639 824.588 895.559 826.613 895.461 z"/>
<path transform="translate(0,0)" fill="rgb(102,63,231)" d="M 1235.66 79.873 C 1350.78 72.9889 1449.61 160.885 1456.22 276.021 C 1462.82 391.158 1374.69 489.779 1259.53 496.105 C 1144.78 502.408 1046.57 414.64 1039.98 299.898 C 1033.4 185.156 1120.93 86.7336 1235.66 79.873 z"/>
</svg>