<svg version="1.1" xmlns="http://www.w3.org/2000/svg" style="display: block;" viewBox="0 0 1536 1536" width="384" height="384" preserveAspectRatio="none">
<path transform="translate(0,0)" fill="rgb(255,1,0)" d="M 503.958 240.47 C 514.978 240.318 526 240.425 537.016 240.789 C 631.082 243.81 713.629 284.402 786.532 341.847 C 799.205 351.832 821.292 369.597 832.055 381.066 C 839.421 373.368 847.684 365.954 855.668 359.087 C 952.027 275.409 1064.5 227.795 1193.35 241.845 C 1453.52 270.215 1582.04 540.721 1491.57 774.383 C 1440.46 906.385 1369.91 998.096 1276.99 1100.45 C 1240.52 1141.05 1201.87 1179.63 1161.2 1216.02 C 1149.58 1226.62 1138.28 1237.54 1126.28 1247.72 C 1113.93 1260.18 1088.2 1281.05 1073.85 1293.06 C 1047.19 1315.41 1020.09 1337.23 992.558 1358.5 C 971.912 1374.42 951.187 1390.86 927.816 1402.51 C 869.586 1431.54 795 1431.17 736.699 1402.63 C 708.104 1388.63 679.372 1364.84 654.132 1345.02 C 590.08 1294.7 528.537 1241.27 469.725 1184.91 C 322.857 1043.44 150.012 842.615 144.058 628.467 C 138.209 418.105 289.529 244.293 503.958 240.47 z"/>
</svg>