<?xml version="1.0" standalone="no"?>
<!DOCTYPE svg PUBLIC "-//W3C//DTD SVG 20010904//EN"
 "http://www.w3.org/TR/2001/REC-SVG-20010904/DTD/svg10.dtd">
<svg version="1.0" xmlns="http://www.w3.org/2000/svg"
 width="384.000000pt" height="384.000000pt" viewBox="0 0 384.000000 384.000000"
 preserveAspectRatio="xMidYMid meet">

<g transform="translate(0.000000,384.000000) scale(0.100000,-0.100000)"
fill="#000000" stroke="none">
<path d="M955 3386 c-392 -76 -675 -372 -741 -774 -75 -456 186 -973 786
-1555 223 -217 542 -482 660 -549 83 -47 147 -63 260 -63 192 0 258 36 614
334 601 503 978 1010 1082 1456 29 124 25 340 -8 465 -108 405 -429 673 -833
697 -282 16 -538 -81 -802 -304 l-52 -44 -88 71 c-156 127 -312 210 -473 252
-99 25 -308 33 -405 14z m380 -256 c144 -45 274 -127 434 -273 139 -127 164
-127 302 0 162 148 290 228 439 274 99 31 302 34 394 5 188 -57 331 -178 416
-351 168 -340 67 -721 -317 -1200 -107 -133 -325 -359 -488 -505 -174 -155
-402 -336 -461 -366 -116 -57 -223 -40 -352 55 -272 202 -693 598 -866 816
-331 417 -450 756 -371 1060 35 138 133 289 240 373 84 66 207 120 310 136 71
11 251 -3 320 -24z"/>
</g>
</svg>
