<?xml version="1.0" standalone="no"?>
<!DOCTYPE svg PUBLIC "-//W3C//DTD SVG 20010904//EN"
 "http://www.w3.org/TR/2001/REC-SVG-20010904/DTD/svg10.dtd">
<svg version="1.0" xmlns="http://www.w3.org/2000/svg"
 width="384.000000pt" height="384.000000pt" viewBox="0 0 384.000000 384.000000"
 preserveAspectRatio="xMidYMid meet">

<g transform="translate(0.000000,384.000000) scale(0.100000,-0.100000)"
fill="#000000" stroke="none">
<path d="M854 3469 c-228 -14 -372 -65 -475 -168 -153 -153 -179 -307 -179
-1061 0 -754 26 -908 179 -1061 107 -107 242 -152 498 -169 193 -12 1893 -12
2086 0 256 17 391 62 498 169 153 153 179 307 179 1061 0 754 -26 908 -179
1061 -107 107 -242 152 -498 169 -173 11 -1931 11 -2109 -1z m2288 -256 c138
-39 192 -93 231 -231 21 -76 22 -90 22 -742 0 -652 -1 -666 -22 -742 -39 -138
-93 -192 -231 -231 l-77 -22 -1145 0 -1145 0 -77 22 c-138 39 -192 93 -231
231 -21 76 -22 90 -22 742 0 652 1 666 22 742 46 163 127 223 331 248 37 4
562 7 1167 6 1096 -1 1100 -2 1177 -23z"/>
<path d="M1760 749 c-165 -18 -381 -84 -515 -157 -109 -59 -107 -190 4 -223
35 -10 45 -8 142 34 211 92 375 124 592 114 151 -7 275 -34 414 -92 172 -72
164 -70 205 -52 68 29 94 111 54 171 -23 36 -187 115 -311 151 -184 53 -409
74 -585 54z"/>
</g>
</svg>
