<svg version="1.1" xmlns="http://www.w3.org/2000/svg" style="display: block;" viewBox="0 0 1536 1536" width="384" height="384" preserveAspectRatio="none">
<path transform="translate(0,0)" fill="rgb(0,0,0)" d="M 758.861 112.394 C 759.917 112.348 760.975 112.308 762.032 112.273 C 803.214 110.934 832.925 124.452 863.389 150.571 C 882.555 167.003 902.342 183.324 921.653 199.62 L 1073.12 327.144 L 1316.06 531.741 L 1394.28 597.558 C 1408.71 609.676 1423.47 621.83 1437.55 634.355 C 1449.13 644.659 1455.48 654.498 1455.83 670.666 C 1456.14 683.57 1451.22 696.052 1442.21 705.291 C 1431.37 716.49 1418.85 721.262 1403.36 719.642 C 1384.56 717.678 1373.31 706.742 1360.52 694.107 C 1359.58 707.119 1360.07 725.434 1360.06 738.72 L 1360.06 817.21 C 1360.06 914.335 1360.94 1012.67 1359.74 1109.64 C 1356.98 1201.91 1357.51 1288.48 1286.42 1356.77 C 1200.56 1439.26 1077.44 1420.57 968.359 1424.4 C 898.669 1426.85 912.051 1358.86 912.07 1310.48 L 912.03 1115.21 C 912.002 1071.52 913.459 1026.39 907.712 983.042 C 905.451 965.169 898.198 953.002 879.364 949.586 C 846.875 943.694 812.287 944.543 779.34 944.343 C 748.008 944.168 716.529 943.824 685.28 946.203 C 646 949.193 630.562 950.412 626.687 993.714 C 623.015 1034.75 624.067 1075.02 624.062 1116.06 L 624.081 1313.8 C 624.085 1329.8 625.094 1371.67 622.732 1385.03 C 621.261 1393.78 617.279 1401.91 611.271 1408.44 C 599.704 1420.76 585.257 1424.48 568.681 1424.39 C 515.282 1424.12 462.868 1424.88 409.585 1420.21 C 346.562 1414.69 295.747 1401.42 249.166 1356.67 C 223.045 1332.03 203.781 1301.02 193.268 1266.69 C 172.372 1196.1 176.047 1078.9 176.045 1002.96 L 176.058 804.58 C 176.061 768.443 176.6 730.825 175.861 694.776 C 163.515 704.953 150.024 717.911 133.564 719.95 C 121.143 721.488 107.442 716.969 97.6891 709.239 C 87.9099 701.614 81.6479 690.344 80.3393 678.013 C 77.0628 647.693 97.6727 634.169 118.046 617.032 L 162.703 579.628 L 308.965 456.431 L 560.657 244.401 L 638.146 179.216 C 678.735 144.706 702.105 117.856 758.861 112.394 z M 272.74 613.199 C 271.003 627.334 272.016 665.309 272.019 681.424 L 272.057 815.817 L 272.076 1035.24 C 272.096 1092.04 271.211 1146.62 277.772 1202.92 C 286.52 1277.99 330.544 1316.36 404.295 1322.92 C 445.834 1326.62 486.033 1327.82 527.868 1327.94 L 528.043 1127.73 C 528.051 1085.23 527.687 1043.41 529.639 1000.96 C 537.086 839.025 655.659 848.262 778.202 848.006 C 869.848 848.478 978.549 843.571 1000.87 959.114 C 1011.41 1013.67 1008.06 1079.29 1008.07 1135.22 L 1008.03 1327.94 C 1051.12 1326.96 1094.12 1327.55 1136.93 1322.24 C 1171.56 1317.94 1198.93 1309.42 1223.84 1283.41 C 1242.01 1264.43 1250.88 1243.74 1255.56 1218.03 C 1263.12 1173.54 1263.75 1123.65 1263.92 1078.43 L 1264.04 948.867 L 1264.04 735.473 C 1264.05 698.508 1264.17 661.441 1263.98 624.472 C 1263.96 620.885 1263.82 616.926 1263.26 613.385 C 1255.13 605.405 1242.74 595.596 1233.83 588.115 L 1183.09 545.487 L 1019.51 407.722 L 863.832 276.69 C 842.533 258.813 821.384 240.711 800.097 222.82 C 785.388 210.456 778.189 207.385 758.755 209.366 C 752.545 211.04 748.407 212.648 743.346 216.785 C 722.065 234.185 700.939 252.243 679.924 269.947 L 558.467 372.263 L 374.576 527.112 C 340.945 555.432 305.75 584.283 272.74 613.199 z"/>
</svg>