<svg version="1.1" xmlns="http://www.w3.org/2000/svg" style="display: block;" viewBox="0 0 1536 1536" width="384" height="384" preserveAspectRatio="none">
<path transform="translate(0,0)" fill="rgb(98,62,230)" d="M 755.679 112.442 C 760.275 112.285 764.873 112.19 769.472 112.157 C 864.637 111.831 951.147 181.768 1023.27 237.172 L 1149.16 335.037 C 1205.04 378.804 1262.52 420.145 1313.92 469.259 C 1388.26 540.31 1391.83 616.833 1392 714.641 L 1392.04 951.467 C 1392.03 1021.66 1392.43 1088.01 1386.72 1157.53 C 1376.2 1285.42 1321.05 1380.79 1189.05 1408.51 C 1120.59 1422.89 1061.64 1422.72 992.532 1423.7 C 922.523 1424.18 852.511 1424.3 782.5 1424.06 L 581.562 1424.02 C 500.948 1423.8 416.215 1424.48 337.947 1406.43 C 251.621 1386.53 188.801 1327.41 164.862 1242.15 C 144.767 1170.59 145.071 1097.44 144.467 1023.7 L 144.133 854.974 L 144.207 731.443 C 144.379 681.065 143.438 635.948 154.313 586.272 C 173.581 498.261 242.954 447.261 310.464 394.362 L 409.22 317.486 C 446.773 288.023 484.483 258.761 522.349 229.7 C 589.453 178.38 668.436 116.721 755.679 112.442 z M 576.058 1296.37 C 600.942 1295.45 628.351 1295.96 653.423 1295.95 L 785.5 1295.96 L 896.681 1295.94 C 916.951 1295.94 940.228 1295.43 960.317 1296.36 C 958.654 1197.4 962.377 1098.06 958.506 999.106 C 956.804 955.587 964.291 891.238 929.582 858.747 C 900.089 831.14 846.08 834.089 808.235 832.669 C 793.653 832.214 772.738 831.735 758.677 832.239 C 756.773 832.304 754.869 832.386 752.966 832.486 C 709.857 833.025 637.287 828.49 605.196 859.999 C 572.619 891.986 579.168 955.356 577.538 997.562 C 574.825 1067.81 576.46 1138.81 576.044 1209.16 C 575.808 1237.15 577.033 1268.95 576.058 1296.37 z"/>
</svg>
