<svg version="1.1" xmlns="http://www.w3.org/2000/svg" style="display: block;" viewBox="0 0 1536 1536" width="384" height="384" preserveAspectRatio="none">
<path transform="translate(0,0)" fill="rgb(254,0,0)" d="M 747.545 113.371 C 765.189 110.035 799.101 113.706 815.98 119.28 C 831.446 124.509 845.972 132.189 859.001 142.027 C 885.28 161.847 915.164 189.526 940.993 210.943 L 1142.43 380.519 L 1343.65 549.873 C 1374.46 575.933 1406.38 601.878 1436.81 628.127 C 1468.44 655.416 1459.85 714.536 1420.59 731.148 C 1398.35 740.556 1385 737.809 1362.65 730.151 C 1364.51 762.958 1364.16 798.428 1363.69 831.567 C 1362.02 948.757 1367.92 1065.16 1358.86 1182.18 C 1353.38 1253.06 1335.85 1308.46 1282.83 1357.79 C 1219.18 1417 1141.44 1422.24 1058.7 1423.56 C 1025.88 1424.09 991.002 1424.93 958.271 1423.94 C 957.417 1415.07 958.064 1397.25 958.112 1387.47 L 958.222 1319.85 L 958.193 1090.93 C 958.149 1051.77 959.498 1012.98 953.88 974.112 C 941.335 887.32 855.235 899.644 790.249 896.98 C 760.277 896.141 726.251 897.718 696.279 898.087 C 666.357 899.544 625.141 902.083 604.068 925.856 C 570.474 963.755 579.708 1027.26 577.527 1075.06 C 574.327 1145.2 575.928 1217.04 575.888 1287.46 C 575.862 1331.87 574.268 1380.74 576.32 1424.86 C 560.301 1423.25 533.596 1424.31 516.873 1424.04 C 456.248 1423.09 394.07 1424.46 335.618 1405.98 C 279.873 1387.77 233.373 1348.64 205.922 1296.82 C 167.46 1222.63 172.608 1100.25 172.571 1017.09 L 172.579 839.879 C 172.594 824.961 170.771 742.076 173.603 733.734 C 174.052 732.412 173.631 731.825 173.281 730.491 L 171.283 729.81 C 150.219 741.735 123.062 738.348 103.923 724.136 C 91.4556 714.778 83.2112 700.854 81.0001 685.423 C 78.9302 670.041 81.4713 647.114 92.4488 635.749 C 118.013 609.281 150.698 583.911 178.986 560.338 L 336.054 428.425 L 586.655 217.576 L 643.999 169.021 C 677.99 140 700.417 119.114 747.545 113.371 z"/>
</svg>