<svg version="1.1" xmlns="http://www.w3.org/2000/svg" style="display: block;" viewBox="0 0 1536 1536" width="384" height="384" preserveAspectRatio="none">
<path transform="translate(0,0)" fill="rgb(98,59,230)" fill-opacity="0.517647" d="M 105.211 306.299 C 114.524 266.962 143.706 224.562 172.596 197.09 C 254.314 119.385 385.803 122.41 491.515 117.653 C 672.731 110.527 854.154 110.376 1035.38 117.203 C 1045.57 120.865 1064.24 121.509 1069.77 123.855 C 1066.46 123.869 1056.38 123.949 1053.68 125.519 C 1068.68 128.908 1090.76 124.689 1105.97 124.083 C 1120.81 123.493 1145.38 126.007 1159.28 123.925 C 1200.64 127.57 1266.26 134.951 1302.92 155.526 C 1299.81 155.189 1296.79 154.42 1294.13 155.831 C 1293.5 158.869 1293.57 157.747 1295.35 161.151 L 1296.9 161.724 L 1296.72 158.589 C 1298.68 157.141 1299.05 157.339 1301.48 157.142 L 1302.92 155.526 C 1310.49 159.021 1317.89 162.86 1325.11 167.03 L 1322.71 171.009 C 1324.29 174.913 1326.08 178.02 1330.68 177.066 L 1331.47 174.302 L 1333.99 173.21 C 1444.37 251.404 1447.61 359.219 1452.44 483.725 C 1454.93 545.492 1455.94 607.308 1455.48 669.123 C 1455.98 730.975 1455.03 792.83 1452.64 854.638 C 1449.48 940.295 1446.8 1038.27 1395.48 1110.72 C 1367.8 1150.07 1328.72 1179.98 1283.52 1196.44 C 1277.17 1198.75 1264.92 1203.47 1258.5 1204.12 L 1261.1 1201.01 L 1260.4 1199.96 L 1253.16 1199.82 C 1251.14 1202.07 1251.46 1200.87 1251.45 1203.31 C 1253.88 1203.66 1256.06 1203.89 1258.5 1204.12 C 1253.1 1206.86 1229.36 1211.62 1222.93 1212.27 C 1225.48 1209.71 1224.93 1211.15 1225.34 1208.16 C 1222.01 1206.31 1214.19 1208.04 1212.04 1210.97 C 1215.17 1211.59 1219.05 1211.78 1222.29 1212.04 C 1209.89 1215.54 1196.61 1216.24 1183.82 1217.82 C 1149.96 1221.98 1115.09 1222.97 1080.98 1225.06 C 1071.78 1225.62 1038.57 1227.92 1030.34 1226.89 C 1033.19 1224.7 1042.11 1224.67 1046.51 1224.29 C 1040.22 1223.91 1038.02 1224.54 1031.76 1223.1 C 1024.02 1221.33 1010.29 1224.26 1001.96 1224.01 C 971.7 1223.12 942.068 1222.98 911.8 1224.09 C 895.387 1224.68 884.017 1224.08 867.826 1226.92 C 874.353 1227 880.884 1226.95 887.364 1227.72 C 882.142 1228.44 876.912 1229.1 871.677 1229.72 C 885.718 1229.57 910.461 1228.7 923.249 1230.09 L 922.027 1230.21 C 891.414 1233.12 850.662 1227.99 820.729 1237.41 C 804.571 1242.5 783.998 1262.86 770.619 1274.13 C 740.005 1299.84 709.59 1325.78 679.375 1351.96 C 666.99 1362.8 654.545 1373.35 642.082 1384.07 C 624.113 1399.53 606.083 1417.15 581.662 1421.1 C 583.83 1419.91 585.379 1419.39 586.607 1417.27 L 585.197 1415.88 C 577.279 1415.21 566.811 1418.46 558.982 1418.72 C 554.335 1418.88 545.093 1416.14 539.847 1415.9 C 532.058 1415.55 537.288 1417.82 529.967 1417.99 L 529.283 1419.45 C 512.9 1417.31 493.122 1399.17 482.874 1386.72 L 486.287 1381.88 C 486.538 1378.56 486.315 1378.39 484.758 1375.31 C 481.383 1373.26 483.151 1373.69 479.291 1373.87 L 477.273 1377.2 C 463.508 1363.12 464.592 1327.16 464.604 1308.48 L 464.827 1254.47 C 464.906 1247.19 465.891 1232.7 463.241 1226.83 C 458.919 1223.19 444.403 1224.47 436.79 1223.23 L 435.611 1223.03 C 441.664 1222.09 451.378 1224.25 456.322 1221.43 L 455.127 1219.9 C 446.794 1216.32 437.168 1221.63 426.262 1220.63 C 430.677 1220.07 433.7 1219.73 438.059 1218.56 L 437.92 1217.51 C 433.109 1215.34 387.748 1216.59 381.759 1218.56 C 386.242 1220.56 395.66 1217.26 407.446 1221.63 L 408.669 1222.09 C 361.683 1221.3 296.965 1212.8 253.479 1196.73 C 255.947 1196.27 256.434 1196.44 258.219 1194.69 L 257.485 1192.99 C 253.423 1190.77 244.793 1188.46 240.249 1188.7 L 238.893 1191 C 223.025 1184.63 203.694 1172.88 190.664 1161.83 L 192.614 1157.32 C 189.967 1153.92 189.821 1153.88 185.183 1153.39 L 186.777 1152.67 C 185.992 1151.25 185.586 1150.36 184.915 1148.9 L 183.539 1151.39 C 181.784 1147.98 182.409 1147.89 179.599 1146.64 L 177.206 1151.23 C 163.499 1140.18 136.575 1108.6 129.361 1093.03 C 133.749 1089.86 134.12 1083.32 129.541 1080.36 C 126.504 1081.49 127.382 1081.37 125.311 1085.06 C 123.088 1082.69 121.139 1077.95 119.65 1074.86 L 120.826 1072.83 C 121.696 1072.35 122.565 1071.87 123.435 1071.4 C 126.013 1057.7 115.243 1054.26 110.51 1045.46 L 109.664 1046.73 C 110.209 1048.62 110.084 1049.18 110.153 1051.14 C 107.181 1043.36 103.177 1033.09 102.908 1024.88 C 104.221 1029 105.268 1033.16 107.776 1036.68 L 109.439 1035.7 C 111.735 1030.76 111.86 1018.47 107.276 1014.27 C 105.984 1013.09 104.426 1013.68 102.573 1013.8 L 101.564 1010.88 C 100.934 1015.34 102.068 1018.85 102.398 1023.4 C 86.6337 996.153 83.9275 852.6 82.6985 815.512 C 79.5164 719.333 79.5526 623.075 82.8071 526.898 C 84.9845 454.68 84.079 379.641 104.176 309.693 C 103.92 315.254 102.986 322.484 102.468 328.204 C 104.798 323.04 108.682 315.746 108.804 310.292 C 107.658 308.389 107.23 307.154 105.211 306.299 z M 91.8011 933.146 C 94.6835 925.938 94.6428 917.147 90.1239 910.655 C 88.7151 917.618 87.4267 924.475 88.8211 931.558 L 90.6869 933.396 L 91.8011 933.146 z M 95.1647 971.963 C 98.8884 963.364 96.8958 963.257 94.2199 954.412 L 93.0524 953.432 C 92.2991 958.42 91.511 966.951 92.7574 971.77 L 94.2984 972.454 L 95.1647 971.963 z M 299.865 1207.86 L 303.002 1206.74 L 303.095 1205.18 C 300.277 1203.14 300.147 1203.12 296.689 1202.4 L 291.258 1204.82 L 291.516 1205.98 L 299.865 1207.86 z"/>
<path transform="translate(0,0)" fill="rgb(101,62,230)" d="M 1036.15 479.501 C 1060.69 479.565 1080.75 479.099 1099.91 497.307 C 1112.62 509.394 1119.7 524.753 1120.07 542.333 C 1120.46 559.842 1113.66 576.747 1101.25 589.102 C 1094.22 596.205 1081.99 604.45 1072.01 605.976 C 1048.83 609.519 1023.01 608.513 999.427 608.511 L 893.291 608.504 L 500.75 608.626 C 499.969 608.645 499.187 608.657 498.406 608.662 C 474.483 608.896 451.978 607.218 434.3 589.133 C 397.377 551.191 419.45 484.818 473.477 480.558 C 494.239 478.92 514.496 479.502 535.301 479.502 L 647.747 479.507 L 1036.15 479.501 z"/>
<path transform="translate(0,0)" fill="rgb(101,62,230)" d="M 811.459 735.496 C 837.085 735.539 857.213 734.897 876.856 754.224 C 889.078 766.091 896.004 782.382 896.07 799.417 C 896.163 816.652 889.317 833.2 877.073 845.33 C 854.197 868.2 824.478 864.53 794.496 864.529 L 733.586 864.52 L 502.235 864.62 C 477.023 864.938 454.811 864.671 435.568 846.076 C 422.39 833.342 416.256 818.681 416.061 800.359 C 415.745 783.01 422.605 766.302 435.021 754.181 C 457.452 731.891 485.528 735.518 514.663 735.506 L 578.758 735.501 L 811.459 735.496 z"/>
<path transform="translate(0,0)" fill="rgb(101,62,230)" fill-opacity="0.631373" d="M 90.1239 910.655 C 94.6428 917.147 94.6835 925.938 91.8011 933.146 L 90.6869 933.396 L 88.8211 931.558 C 87.4267 924.475 88.7151 917.618 90.1239 910.655 z"/>
<path transform="translate(0,0)" fill="rgb(101,62,230)" fill-opacity="0.627451" d="M 93.0524 953.432 L 94.2199 954.412 C 96.8958 963.257 98.8884 963.364 95.1647 971.963 L 94.2984 972.454 L 92.7574 971.77 C 91.511 966.951 92.2991 958.42 93.0524 953.432 z"/>
<path transform="translate(0,0)" fill="rgb(101,62,230)" fill-opacity="0.603922" d="M 296.689 1202.4 C 300.147 1203.12 300.277 1203.14 303.095 1205.18 L 303.002 1206.74 L 299.865 1207.86 L 291.516 1205.98 L 291.258 1204.82 L 296.689 1202.4 z"/>
<path transform="translate(0,0)" fill="rgb(101,62,230)" fill-opacity="0.580392" d="M 867.826 1226.92 C 884.017 1224.08 895.387 1224.68 911.8 1224.09 C 942.068 1222.98 971.7 1223.12 1001.96 1224.01 C 1010.29 1224.26 1024.02 1221.33 1031.76 1223.1 C 1038.02 1224.54 1040.22 1223.91 1046.51 1224.29 C 1042.11 1224.67 1033.19 1224.7 1030.34 1226.89 C 1004.51 1228.12 978.66 1229.09 952.805 1229.8 C 945.435 1229.94 930.214 1230.58 923.249 1230.09 C 910.461 1228.7 885.718 1229.57 871.677 1229.72 C 876.912 1229.1 882.142 1228.44 887.364 1227.72 C 880.884 1226.95 874.353 1227 867.826 1226.92 z"/>
<path transform="translate(0,0)" fill="rgb(101,62,230)" fill-opacity="0.494118" d="M 1035.38 117.203 C 1073.98 118.569 1121.39 120.313 1159.28 123.925 C 1145.38 126.007 1120.81 123.493 1105.97 124.083 C 1090.76 124.689 1068.68 128.908 1053.68 125.519 C 1056.38 123.949 1066.46 123.869 1069.77 123.855 C 1064.24 121.509 1045.57 120.865 1035.38 117.203 z"/>
<path transform="translate(0,0)" fill="rgb(101,62,230)" fill-opacity="0.596078" d="M 408.669 1222.09 L 407.446 1221.63 C 395.66 1217.26 386.242 1220.56 381.759 1218.56 C 387.748 1216.59 433.109 1215.34 437.92 1217.51 L 438.059 1218.56 C 433.7 1219.73 430.677 1220.07 426.262 1220.63 C 437.168 1221.63 446.794 1216.32 455.127 1219.9 L 456.322 1221.43 C 451.378 1224.25 441.664 1222.09 435.611 1223.03 C 428.535 1223.35 415.623 1222.75 408.669 1222.09 z"/>
<path transform="translate(0,0)" fill="rgb(101,62,230)" fill-opacity="0.619608" d="M 529.283 1419.45 L 529.967 1417.99 C 537.288 1417.82 532.058 1415.55 539.847 1415.9 C 545.093 1416.14 554.335 1418.88 558.982 1418.72 C 566.811 1418.46 577.279 1415.21 585.197 1415.88 L 586.607 1417.27 C 585.379 1419.39 583.83 1419.91 581.662 1421.1 C 571.063 1425.94 541.462 1422.52 529.283 1419.45 z"/>
<path transform="translate(0,0)" fill="rgb(101,62,230)" fill-opacity="0.639216" d="M 110.153 1051.14 C 110.084 1049.18 110.209 1048.62 109.664 1046.73 L 110.51 1045.46 C 115.243 1054.26 126.013 1057.7 123.435 1071.4 C 122.565 1071.87 121.696 1072.35 120.826 1072.83 L 119.65 1074.86 C 116.336 1067.05 112.827 1059.18 110.153 1051.14 z"/>
<path transform="translate(0,0)" fill="rgb(101,62,230)" fill-opacity="0.635294" d="M 102.398 1023.4 C 102.068 1018.85 100.934 1015.34 101.564 1010.88 L 102.573 1013.8 C 104.426 1013.68 105.984 1013.09 107.276 1014.27 C 111.86 1018.47 111.735 1030.76 109.439 1035.7 L 107.776 1036.68 C 105.268 1033.16 104.221 1029 102.908 1024.88 L 102.398 1023.4 z"/>
<path transform="translate(0,0)" fill="rgb(101,62,230)" fill-opacity="0.533333" d="M 177.206 1151.23 L 179.599 1146.64 C 182.409 1147.89 181.784 1147.98 183.539 1151.39 L 184.915 1148.9 C 185.586 1150.36 185.992 1151.25 186.777 1152.67 L 185.183 1153.39 C 189.821 1153.88 189.967 1153.92 192.614 1157.32 L 190.664 1161.83 C 184.525 1158.65 181.855 1156.16 177.206 1151.23 z"/>
<path transform="translate(0,0)" fill="rgb(101,62,230)" fill-opacity="0.611765" d="M 238.893 1191 L 240.249 1188.7 C 244.793 1188.46 253.423 1190.77 257.485 1192.99 L 258.219 1194.69 C 256.434 1196.44 255.947 1196.27 253.479 1196.73 L 238.893 1191 z"/>
<path transform="translate(0,0)" fill="rgb(101,62,230)" fill-opacity="0.631373" d="M 477.273 1377.2 L 479.291 1373.87 C 483.151 1373.69 481.383 1373.26 484.758 1375.31 C 486.315 1378.39 486.538 1378.56 486.287 1381.88 L 482.874 1386.72 L 477.273 1377.2 z"/>
<path transform="translate(0,0)" fill="rgb(101,62,230)" fill-opacity="0.498039" d="M 1325.11 167.03 L 1333.99 173.21 L 1331.47 174.302 L 1330.68 177.066 C 1326.08 178.02 1324.29 174.913 1322.71 171.009 L 1325.11 167.03 z"/>
<path transform="translate(0,0)" fill="rgb(101,62,230)" fill-opacity="0.627451" d="M 125.311 1085.06 C 127.382 1081.37 126.504 1081.49 129.541 1080.36 C 134.12 1083.32 133.749 1089.86 129.361 1093.03 L 125.311 1085.06 z"/>
<path transform="translate(0,0)" fill="rgb(101,62,230)" fill-opacity="0.619608" d="M 105.211 306.299 C 107.23 307.154 107.658 308.389 108.804 310.292 C 108.682 315.746 104.798 323.04 102.468 328.204 C 102.986 322.484 103.92 315.254 104.176 309.693 L 105.211 306.299 z"/>
<path transform="translate(0,0)" fill="rgb(101,62,230)" fill-opacity="0.592157" d="M 1222.29 1212.04 C 1219.05 1211.78 1215.17 1211.59 1212.04 1210.97 C 1214.19 1208.04 1222.01 1206.31 1225.34 1208.16 C 1224.93 1211.15 1225.48 1209.71 1222.93 1212.27 L 1222.29 1212.04 z"/>
<path transform="translate(0,0)" fill="rgb(101,62,230)" fill-opacity="0.588235" d="M 1253.16 1199.82 L 1260.4 1199.96 L 1261.1 1201.01 L 1258.5 1204.12 C 1256.06 1203.89 1253.88 1203.66 1251.45 1203.31 C 1251.46 1200.87 1251.14 1202.07 1253.16 1199.82 z"/>
<path transform="translate(0,0)" fill="rgb(101,62,230)" fill-opacity="0.52549" d="M 1295.35 161.151 C 1293.57 157.747 1293.5 158.869 1294.13 155.831 C 1296.79 154.42 1299.81 155.189 1302.92 155.526 L 1301.48 157.142 C 1299.05 157.339 1298.68 157.141 1296.72 158.589 L 1296.9 161.724 L 1295.35 161.151 z"/>
</svg>