<svg version="1.1" xmlns="http://www.w3.org/2000/svg" style="display: block;" viewBox="0 0 1536 1536" width="384" height="384" preserveAspectRatio="none">
<defs>
	<linearGradient id="Gradient1" gradientUnits="userSpaceOnUse" x1="735.499" y1="927.498" x2="799.501" y2="991.502">
		<stop class="stop0" offset="0" stop-opacity="0.517647" stop-color="rgb(99,58,230)"/>
		<stop class="stop1" offset="1" stop-opacity="0.54902" stop-color="rgb(96,60,230)"/>
	</linearGradient>
</defs>
<path transform="translate(0,0)" fill="rgb(101,62,231)" d="M 762.867 80.3327 C 793.395 77.8609 822.209 108.535 844.83 127.216 C 972.715 232.8 1086.1 354.806 1182.05 490.072 C 1249.3 586.648 1308.22 710.129 1323.91 826.687 C 1361.92 1109.22 1171.52 1380.81 893.731 1442.26 C 814.86 1459.71 740.176 1460.38 659.792 1445.96 C 567.937 1426.78 485.275 1389.46 412.161 1329.14 C 300.01 1236.62 227.346 1104.01 210.94 959.217 C 207.178 926.016 207.2 858.607 212.093 825.847 C 236.448 662.788 328.595 512.785 431.583 387.245 C 443.174 373.116 471.954 336.975 484.757 328.278 C 491.355 323.713 499.036 320.959 507.032 320.291 C 545.874 316.859 555.578 345.881 567.733 374.1 C 572.723 385.847 578.458 397.263 584.903 408.279 C 595.76 426.519 604.276 434.012 619.963 447.06 C 646.034 398.446 667.28 347.395 683.395 294.639 C 695.332 254.862 702.361 215.522 710.66 175.032 C 718.611 136.241 713.754 87.5992 762.867 80.3327 z M 500.379 455.65 L 499.751 456.769 C 494.614 465.753 478.074 485.822 471.018 495.121 C 455.762 515.276 441.141 535.903 427.178 556.974 C 335.021 696.138 276.216 846.603 320.098 1014.14 C 351.372 1131.73 427.403 1232.42 531.938 1294.69 C 564.363 1313.6 609.537 1334.43 646.222 1342.95 C 762.799 1376.32 889.108 1358.46 994.631 1299.8 C 1101.22 1239.99 1179.89 1140.53 1213.53 1023.03 C 1254.74 878.624 1219.02 744.026 1145.95 616.913 C 1071.83 487.988 972.103 374.341 863.051 273.887 C 846.816 258.933 818.571 229.235 801.126 217.576 C 785.821 315.581 749.506 412.094 702.501 499.097 C 693.948 514.927 682.578 541.668 668.242 551.653 C 644.708 568.045 621.308 557.088 599.276 545.905 C 564.012 528.006 533.163 506.239 510.665 473.136 C 507.08 467.901 502.63 461.632 500.379 455.65 z"/>
<path transform="translate(0,0)" fill="url(#Gradient1)" d="M 583.984 1162.56 C 575.193 1156.3 568.031 1149.18 563.764 1139.05 C 558.723 1127.08 559.136 1110.51 564.434 1098.67 C 570.513 1085.08 643.8 1015.54 658.969 1000.39 L 773.721 885.644 L 853.537 805.825 C 865.373 793.984 880.174 778.178 892.091 767.162 C 897.561 762.118 903.874 758.074 910.743 755.213 C 923.031 755.001 933.828 756.838 945.141 761.81 C 949.212 763.598 953.638 767.414 957.713 769.443 C 958.046 769.61 962.458 766.611 963.404 766.227 C 980.917 789.629 980.389 815.221 959.902 836.797 C 938.704 859.122 916.658 880.676 894.886 902.453 L 766.223 1031.08 L 680.421 1116.93 C 667.472 1129.88 639.634 1161.18 623.717 1165.73 L 625.554 1162.68 L 624.914 1160.96 C 620.36 1158.97 609.275 1163.42 604.983 1163.12 C 598.199 1162.65 592.709 1158.55 584.772 1159.99 L 583.984 1162.56 z"/>
<path transform="translate(0,0)" fill="rgb(101,62,231)" fill-opacity="0.533333" d="M 854.414 1076.18 C 862.445 1059.47 877.318 1047.05 895.194 1042.14 C 913.07 1037.22 932.199 1040.29 947.642 1050.55 C 946.548 1052.13 945.464 1053.71 944.389 1055.3 C 951.66 1064.08 960.889 1065.95 968.49 1073.33 C 977.5 1089.9 978.752 1109.6 971.911 1127.18 C 965.071 1144.76 950.833 1158.43 932.991 1164.56 C 933.357 1162.11 933.525 1163.26 932.434 1161 C 924.467 1159.71 917.787 1163.8 911.593 1163.4 C 906.445 1163.07 899.03 1159.79 892.383 1159.2 C 889.239 1160.32 889.135 1160.35 887.19 1162.96 C 870.88 1156.05 858.155 1142.7 852.036 1126.08 C 854.305 1126.5 854.245 1126.42 856.554 1126.07 C 857.966 1122.6 852.404 1105.14 852.966 1098.51 C 853.575 1091.33 861.276 1079.74 857.653 1075.03 L 854.414 1076.18 z"/>
<path transform="translate(0,0)" fill="rgb(101,62,231)" fill-opacity="0.533333" d="M 566.936 787.115 C 575.18 770.739 590.043 758.677 607.765 753.98 C 625.487 749.283 644.373 752.4 659.646 762.543 C 658.658 764.891 658.259 765.383 656.432 767.169 C 662.701 775.504 673.458 778.412 680.498 785.323 C 689.509 801.898 690.76 821.601 683.917 839.183 C 677.075 856.764 662.834 870.438 644.989 876.562 L 644.98 874.357 C 642.311 871.832 639.244 872.352 635.788 873.434 C 621.917 877.774 613.244 871.907 602.32 871.09 L 601.744 872.194 C 605.048 872.557 612.883 872.687 613.921 876.11 C 609.869 877.077 607.181 872.9 601.146 875.748 C 589.827 871.387 579.977 863.905 572.742 854.169 C 574.937 854.378 574.795 854.307 576.82 853.368 C 578.184 848.951 574.857 845.475 570.702 844.442 L 569.173 845.503 L 569.918 850.043 C 567.55 846.274 565.58 842.269 564.041 838.091 C 565.397 838.663 566.743 838.706 568.241 838.909 C 569.967 836.735 565.076 820.104 564.725 813.724 C 564.088 802.151 572.822 795.849 569.422 787.775 L 566.936 787.115 z"/>
<path transform="translate(0,0)" fill="rgb(101,62,231)" fill-opacity="0.494118" d="M 910.743 755.213 C 928.959 749.094 949.571 752.422 963.404 766.227 C 962.458 766.611 958.046 769.61 957.713 769.443 C 953.638 767.414 949.212 763.598 945.141 761.81 C 933.828 756.838 923.031 755.001 910.743 755.213 z"/>
<path transform="translate(0,0)" fill="rgb(101,62,231)" fill-opacity="0.592157" d="M 566.936 787.115 L 569.422 787.775 C 572.822 795.849 564.088 802.151 564.725 813.724 C 565.076 820.104 569.967 836.735 568.241 838.909 C 566.743 838.706 565.397 838.663 564.041 838.091 C 557.904 821.432 558.952 802.973 566.936 787.115 z"/>
<path transform="translate(0,0)" fill="rgb(101,62,231)" fill-opacity="0.596078" d="M 854.414 1076.18 L 857.653 1075.03 C 861.276 1079.74 853.575 1091.33 852.966 1098.51 C 852.404 1105.14 857.966 1122.6 856.554 1126.07 C 854.245 1126.42 854.305 1126.5 852.036 1126.08 C 846.045 1109.81 846.903 1091.8 854.414 1076.18 z"/>
<path transform="translate(0,0)" fill="rgb(101,62,231)" fill-opacity="0.619608" d="M 887.19 1162.96 C 889.135 1160.35 889.239 1160.32 892.383 1159.2 C 899.03 1159.79 906.445 1163.07 911.593 1163.4 C 917.787 1163.8 924.467 1159.71 932.434 1161 C 933.525 1163.26 933.357 1162.11 932.991 1164.56 C 918.049 1169.69 901.738 1169.12 887.19 1162.96 z"/>
<path transform="translate(0,0)" fill="rgb(101,62,231)" fill-opacity="0.611765" d="M 601.146 875.748 C 607.181 872.9 609.869 877.077 613.921 876.11 C 612.883 872.687 605.048 872.557 601.744 872.194 L 602.32 871.09 C 613.244 871.907 621.917 877.774 635.788 873.434 C 639.244 872.352 642.311 871.832 644.98 874.357 L 644.989 876.562 C 630.734 881.453 615.21 881.165 601.146 875.748 z"/>
<path transform="translate(0,0)" fill="rgb(101,62,231)" fill-opacity="0.619608" d="M 583.984 1162.56 L 584.772 1159.99 C 592.709 1158.55 598.199 1162.65 604.983 1163.12 C 609.275 1163.42 620.36 1158.97 624.914 1160.96 L 625.554 1162.68 L 623.717 1165.73 C 609.8 1169.04 597.1 1167.53 583.984 1162.56 z"/>
<path transform="translate(0,0)" fill="rgb(101,62,231)" fill-opacity="0.462745" d="M 659.646 762.543 C 668.349 768.323 675.508 776.144 680.498 785.323 C 673.458 778.412 662.701 775.504 656.432 767.169 C 658.259 765.383 658.658 764.891 659.646 762.543 z"/>
<path transform="translate(0,0)" fill="rgb(101,62,231)" fill-opacity="0.462745" d="M 947.642 1050.55 C 956.343 1056.33 963.5 1064.15 968.49 1073.33 C 960.889 1065.95 951.66 1064.08 944.389 1055.3 C 945.464 1053.71 946.548 1052.13 947.642 1050.55 z"/>
<path transform="translate(0,0)" fill="rgb(101,62,231)" fill-opacity="0.607843" d="M 569.918 850.043 L 569.173 845.503 L 570.702 844.442 C 574.857 845.475 578.184 848.951 576.82 853.368 C 574.795 854.307 574.937 854.378 572.742 854.169 C 571.747 852.831 570.806 851.455 569.918 850.043 z"/>
</svg>