<?xml version="1.0" standalone="no"?>
<!DOCTYPE svg PUBLIC "-//W3C//DTD SVG 20010904//EN"
 "http://www.w3.org/TR/2001/REC-SVG-20010904/DTD/svg10.dtd">
<svg version="1.0" xmlns="http://www.w3.org/2000/svg"
 width="384.000000pt" height="384.000000pt" viewBox="0 0 384.000000 384.000000"
 preserveAspectRatio="xMidYMid meet">

<g transform="translate(0.000000,384.000000) scale(0.100000,-0.100000)"
fill="#000000" stroke="none">
<path d="M1193 3469 c-409 -28 -636 -162 -748 -444 -71 -179 -85 -359 -85
-1105 0 -586 9 -798 39 -945 67 -326 250 -509 576 -576 147 -30 359 -39 945
-39 570 0 783 8 929 36 334 62 524 248 592 579 30 147 39 359 39 945 0 586 -9
798 -39 945 -68 332 -257 517 -593 580 -46 8 -148 20 -228 25 -172 12 -1252
11 -1427 -1z m1375 -309 c473 -29 563 -119 592 -592 13 -211 13 -1085 0 -1296
-29 -473 -119 -563 -592 -592 -90 -5 -353 -10 -585 -10 l-423 0 0 1250 0 1250
423 0 c232 0 495 -5 585 -10z"/>
<path d="M2582 2570 c-13 -6 -96 -67 -185 -137 -321 -254 -392 -342 -392 -493
0 -148 56 -220 357 -461 217 -174 249 -191 320 -169 102 30 151 155 92 238 -8
12 -105 94 -214 182 -109 88 -208 172 -220 187 l-21 26 33 35 c18 19 119 103
224 188 211 169 230 193 221 272 -9 77 -66 133 -144 138 -26 2 -59 -1 -71 -6z"/>
</g>
</svg>
