<svg version="1.1" xmlns="http://www.w3.org/2000/svg" style="display: block;" viewBox="0 0 1536 1536" width="384" height="384" preserveAspectRatio="none">
<path transform="translate(0,0)" fill="rgb(98,60,227)" d="M 1037.82 144.464 L 1041.83 144.36 C 1074.47 143.586 1108.27 144.238 1140.46 144.013 C 1214.58 143.497 1273.28 147.813 1329.42 202.284 C 1375.52 246.234 1394.2 305.213 1391.79 368.538 C 1388.01 468.076 1412.85 580.142 1333.73 658.166 C 1284.1 707.102 1236.27 718.285 1170.03 719.268 C 1167.05 719.388 1164.08 719.493 1161.1 719.582 C 1130 720.516 1098.83 719.763 1068.04 719.995 C 993.916 720.553 936.753 716.489 880.074 662.947 C 838.834 623.989 818.49 573.367 817.031 517.011 C 816.257 479.73 815.976 442.44 816.186 405.15 C 816.47 327.251 815.193 268.368 873.416 207.168 C 920.263 157.926 972.754 145.941 1037.82 144.464 z"/>
<path transform="translate(0,0)" fill="rgb(98,60,227)" d="M 365.925 816.459 L 371.161 816.324 C 403.974 815.597 438.096 816.277 470.408 816.041 C 544.138 815.503 602.166 820.413 657.905 874.757 C 704.574 919.458 722.284 978.711 719.837 1042.71 C 716.044 1141.89 740.588 1252.37 661.734 1330.14 C 612.161 1379.04 564.416 1390.32 498.087 1391.26 L 490.152 1391.53 C 458.585 1392.48 427.074 1391.75 395.837 1391.98 C 321.752 1392.52 264.729 1388.48 208.063 1334.92 C 166.573 1295.71 146.464 1245.19 145.031 1188.51 C 144.259 1150.95 143.984 1113.38 144.206 1075.82 C 144.526 998.168 143.445 940.148 201.423 879.212 C 248.713 829.509 300.475 818.117 365.925 816.459 z"/>
<path transform="translate(0,0)" fill="rgb(98,60,227)" fill-opacity="0.517647" d="M 839.289 1278.86 C 831.253 1267.44 821.213 1234.42 819.75 1220.46 C 815.903 1183.75 816.315 1141.51 816.654 1104.43 C 816.987 1068 814.701 1016.81 820.571 981.829 C 829.154 930.687 862.378 882.15 904.834 852.8 C 926.551 837.749 951.117 827.301 977.022 822.097 C 1013.91 814.485 1069.95 816.959 1109.41 816.75 C 1143.17 816.571 1197.25 815.276 1228.57 821.061 C 1280.16 831.094 1325.75 860.974 1355.53 904.273 C 1370.28 925.829 1380.7 950.047 1386.21 975.578 C 1393.6 1010.62 1391.33 1066.94 1391.49 1104.46 C 1391.64 1138.53 1393.06 1193.99 1387 1226.18 C 1377.39 1278.85 1347.16 1325.5 1303.01 1355.79 C 1279.86 1371.53 1239.9 1388.65 1211.35 1388.82 C 1214.07 1386.05 1217.05 1388.21 1221.73 1385.61 L 1220.95 1384.4 C 1214.44 1382.91 1172.5 1385.72 1161.71 1385.77 C 1116.58 1386.38 1071.41 1385.38 1026.28 1385.78 C 1018.73 1385.84 994.265 1380.01 990.59 1386.47 L 992.441 1388.38 C 982.314 1388.47 972.935 1385.19 962.917 1382.86 C 968.653 1382.1 971.257 1384.16 977.318 1382.28 C 974.025 1380.08 955.437 1375.84 950.966 1375.43 L 950.752 1376.22 L 954.315 1380.08 C 950.024 1378.58 945.767 1376.99 941.545 1375.31 C 944.982 1375.38 944.833 1375.47 947.949 1374.12 L 948 1372.91 C 944.895 1370.49 937.238 1367.98 933.299 1368.54 L 932.062 1371.08 C 927.269 1367.94 920.991 1365.62 915.511 1362.33 C 896.722 1351.09 876.926 1335.55 864.315 1317.56 C 867.116 1319.42 867.658 1320.17 870.793 1319.96 L 871.756 1318.6 C 871.29 1314.61 867.488 1309.9 863.175 1310.17 C 861.737 1313.39 862.354 1312.78 863.419 1317.13 C 857.887 1311.37 843.137 1289.32 840.392 1282.22 C 842.944 1284.63 842.051 1284.49 844.982 1285.02 L 846.275 1283.24 C 846.932 1278.65 845.994 1275.23 843.519 1271.36 C 840.871 1271.84 840.579 1271.7 838.335 1273.28 L 839.289 1278.86 z"/>
<path transform="translate(0,0)" fill="rgb(98,60,227)" fill-opacity="0.517647" d="M 156.709 280.062 C 174.713 229.376 212.084 187.899 260.625 164.727 C 278.921 156.215 298.393 150.507 318.389 147.793 C 353.868 142.776 395.27 144.875 431.473 144.741 C 467.354 144.609 505.961 143.37 541.423 146.931 C 611.927 154.01 671.46 199.836 700.791 263.13 C 708.571 279.754 713.836 297.442 716.412 315.614 C 719.551 337.203 719.553 359.851 719.471 381.63 C 719.258 428.117 720.153 474.659 718.823 521.122 C 716.604 598.681 670.518 670.665 598.75 701.532 C 581.367 709.008 558.81 716.522 539.791 716.821 C 543.153 715.472 547.827 714.8 549.587 712.979 C 545.551 711.217 533.934 712.381 528.992 712.573 C 463.296 715.12 396.607 715.43 330.984 711.799 C 326.346 711.543 320.414 710.188 317.694 714.444 L 319.589 716.336 C 309.418 716.225 301.391 713.376 291.477 710.842 C 297.055 710.327 299.732 711.768 305.846 710.709 C 304.245 708.027 282.225 702.077 278.478 704.162 L 282.333 708.07 C 277.649 706.537 273.778 704.98 269.229 703.125 C 271.469 703.146 273.968 702.889 276.232 702.719 L 277.251 701.441 C 274.408 698.785 265.207 696.072 261.315 696.461 L 261.261 697.686 C 264.522 699.212 265.868 699.914 268.397 702.472 C 242.506 694.6 209.16 667.42 192.348 646.019 C 197.051 648.974 196.713 649.578 200.065 645.85 C 200.256 638.973 191.36 639.923 186.814 633.101 C 186.961 629.662 186.722 630.895 189.397 627.727 L 187.98 625.702 C 187.085 626.641 187.293 626.685 186.206 627.141 L 185.187 625.406 C 183.395 626.287 185.941 625.685 184.048 629.498 L 182.663 629.555 C 181.282 627.337 180.9 626.787 179.208 624.81 L 177.5 625.238 C 174.55 622.221 169.96 614.294 168.391 610.234 C 169.494 611.182 170.59 612.036 171.727 612.938 C 176.09 609.648 175.53 605.706 172.932 601.416 C 169.613 599.301 171.38 599.696 167.437 600.252 C 165.83 602.856 166.575 602.788 167.285 606.847 C 141.588 570.193 143.818 486.233 144.636 441.713 C 145.409 399.654 140.799 334.757 152.049 295.891 C 152.084 298.669 152.385 301.071 152.682 303.833 L 153.119 299.348 C 154.577 298.888 154.093 299.151 156.067 299.736 L 158.553 298.094 C 160.31 293.623 161.894 282.646 156.709 280.062 z M 150.981 547.515 C 153.867 540.27 155.384 535.124 148.812 529.366 C 148.405 534.503 147.556 540.78 148.678 545.702 C 149.87 546.959 149.59 547.071 150.981 547.515 z"/>
<path transform="translate(0,0)" fill="rgb(98,60,227)" fill-opacity="0.631373" d="M 148.812 529.366 C 155.384 535.124 153.867 540.27 150.981 547.515 C 149.59 547.071 149.87 546.959 148.678 545.702 C 147.556 540.78 148.405 534.503 148.812 529.366 z"/>
<path transform="translate(0,0)" fill="rgb(98,60,227)" fill-opacity="0.596078" d="M 992.441 1388.38 L 990.59 1386.47 C 994.265 1380.01 1018.73 1385.84 1026.28 1385.78 C 1071.41 1385.38 1116.58 1386.38 1161.71 1385.77 C 1172.5 1385.72 1214.44 1382.91 1220.95 1384.4 L 1221.73 1385.61 C 1217.05 1388.21 1214.07 1386.05 1211.35 1388.82 C 1185.5 1392.19 1143.36 1391.15 1116.13 1391.12 C 1075.67 1391.08 1032.44 1392.47 992.441 1388.38 z"/>
<path transform="translate(0,0)" fill="rgb(98,60,227)" fill-opacity="0.607843" d="M 319.589 716.336 L 317.694 714.444 C 320.414 710.188 326.346 711.543 330.984 711.799 C 396.607 715.43 463.296 715.12 528.992 712.573 C 533.934 712.381 545.551 711.217 549.587 712.979 C 547.827 714.8 543.153 715.472 539.791 716.821 C 513.105 720.2 472.491 719.115 444.56 719.14 C 403.362 719.177 360.43 720.319 319.589 716.336 z"/>
<path transform="translate(0,0)" fill="rgb(98,60,227)" fill-opacity="0.603922" d="M 177.5 625.238 L 179.208 624.81 C 180.9 626.787 181.282 627.337 182.663 629.555 L 184.048 629.498 C 185.941 625.685 183.395 626.287 185.187 625.406 L 186.206 627.141 C 187.293 626.685 187.085 626.641 187.98 625.702 L 189.397 627.727 C 186.722 630.895 186.961 629.662 186.814 633.101 C 191.36 639.923 200.256 638.973 200.065 645.85 C 196.713 649.578 197.051 648.974 192.348 646.019 C 186.23 638.698 182.592 633.289 177.5 625.238 z"/>
<path transform="translate(0,0)" fill="rgb(98,60,227)" fill-opacity="0.6" d="M 282.333 708.07 L 278.478 704.162 C 282.225 702.077 304.245 708.027 305.846 710.709 C 299.732 711.768 297.055 710.327 291.477 710.842 C 289.556 710.687 284.272 708.778 282.333 708.07 z"/>
<path transform="translate(0,0)" fill="rgb(98,60,227)" fill-opacity="0.623529" d="M 156.709 280.062 C 161.894 282.646 160.31 293.623 158.553 298.094 L 156.067 299.736 C 154.093 299.151 154.577 298.888 153.119 299.348 L 152.682 303.833 C 152.385 301.071 152.084 298.669 152.049 295.891 C 153.254 289.781 154.646 285.971 156.709 280.062 z"/>
<path transform="translate(0,0)" fill="rgb(98,60,227)" fill-opacity="0.603922" d="M 954.315 1380.08 L 950.752 1376.22 L 950.966 1375.43 C 955.437 1375.84 974.025 1380.08 977.318 1382.28 C 971.257 1384.16 968.653 1382.1 962.917 1382.86 C 959.741 1382 957.407 1381.21 954.315 1380.08 z"/>
<path transform="translate(0,0)" fill="rgb(98,60,227)" fill-opacity="0.647059" d="M 167.285 606.847 C 166.575 602.788 165.83 602.856 167.437 600.252 C 171.38 599.696 169.613 599.301 172.932 601.416 C 175.53 605.706 176.09 609.648 171.727 612.938 C 170.59 612.036 169.494 611.182 168.391 610.234 L 167.285 606.847 z"/>
<path transform="translate(0,0)" fill="rgb(98,60,227)" fill-opacity="0.65098" d="M 839.289 1278.86 L 838.335 1273.28 C 840.579 1271.7 840.871 1271.84 843.519 1271.36 C 845.994 1275.23 846.932 1278.65 846.275 1283.24 L 844.982 1285.02 C 842.051 1284.49 842.944 1284.63 840.392 1282.22 L 839.289 1278.86 z"/>
<path transform="translate(0,0)" fill="rgb(98,60,227)" fill-opacity="0.6" d="M 932.062 1371.08 L 933.299 1368.54 C 937.238 1367.98 944.895 1370.49 948 1372.91 L 947.949 1374.12 C 944.833 1375.47 944.982 1375.38 941.545 1375.31 L 932.062 1371.08 z"/>
<path transform="translate(0,0)" fill="rgb(98,60,227)" fill-opacity="0.627451" d="M 863.419 1317.13 C 862.354 1312.78 861.737 1313.39 863.175 1310.17 C 867.488 1309.9 871.29 1314.61 871.756 1318.6 L 870.793 1319.96 C 867.658 1320.17 867.116 1319.42 864.315 1317.56 L 863.419 1317.13 z"/>
<path transform="translate(0,0)" fill="rgb(98,60,227)" fill-opacity="0.6" d="M 268.397 702.472 C 265.868 699.914 264.522 699.212 261.261 697.686 L 261.315 696.461 C 265.207 696.072 274.408 698.785 277.251 701.441 L 276.232 702.719 C 273.968 702.889 271.469 703.146 269.229 703.125 L 268.397 702.472 z"/>
</svg>