<svg version="1.1" xmlns="http://www.w3.org/2000/svg" style="display: block;" viewBox="0 0 1536 1536" width="384" height="384" preserveAspectRatio="none">
<path transform="translate(0,0)" fill="rgb(96,59,226)" fill-opacity="0.517647" d="M 231.056 1383.37 C 223.42 1379.33 213.913 1351.58 212.363 1343.37 C 208.272 1321.71 208.747 1298.71 208.706 1276.7 L 208.677 1204.47 L 208.671 951.982 L 208.676 549.325 L 208.763 422.675 C 208.858 386.956 209.773 351.032 212.226 316.511 C 220.305 202.816 272.633 116.009 390.547 92.6342 C 458.721 79.1195 521.566 80.7679 590.487 80.7486 L 772.632 80.7396 L 951.405 80.7691 C 1032.83 80.8139 1154.52 76.4576 1224.02 122.688 L 1221.45 126.18 C 1222.58 130.405 1225.54 131.468 1229.57 132.457 L 1230.94 131.738 L 1231.28 129.179 L 1233.33 128.081 L 1239.29 132.632 C 1238.38 144.63 1240.42 140.89 1248.31 149.131 C 1255.88 155.138 1268.89 172.992 1279.6 174.122 C 1285.05 183.423 1290.94 191.922 1295.63 201.65 C 1312.59 236.868 1319.52 274.925 1323.34 313.478 C 1326.9 349.332 1327.25 384.481 1327.4 420.405 L 1327.52 530.09 L 1327.53 878.374 L 1327.52 1173.72 L 1327.53 1261.12 C 1327.52 1290.39 1329.56 1321.85 1321.88 1350.4 C 1315.08 1375.72 1298.15 1398.53 1275.21 1411.48 C 1247.74 1426.98 1218.57 1431.85 1187.89 1423.26 C 1139.36 1409.66 1069.85 1346.42 1030.06 1342.57 C 1013.08 1340.93 998.15 1346.72 983.526 1354.84 C 932.058 1383.42 858.157 1441.36 803.248 1452.62 L 806.681 1448.59 C 802.969 1445.55 796.935 1447.82 792.537 1448.73 C 774.786 1452.38 757.21 1449.47 739.471 1447.73 C 735.698 1447.36 735.142 1448.19 732.572 1450.4 L 733.765 1452.21 C 728.2 1451.95 719.718 1448.55 713.86 1446.77 C 718.287 1446.31 724.778 1448.93 727.196 1445.21 L 726.578 1443.86 C 723.765 1442.7 723.03 1441.57 720.913 1439.36 L 720.119 1438.52 C 714.957 1437.89 711.078 1444.47 703.545 1438.43 C 701.403 1436.71 698.601 1438.28 696.178 1439.26 C 686.004 1436.81 659.911 1420.76 650.395 1415.05 C 618.758 1396.03 587.585 1375.53 555.769 1356.77 C 545.471 1350.7 529.994 1343.27 518.237 1342.43 C 508.023 1341.77 497.783 1343.29 488.206 1346.91 C 474.244 1352.08 462.783 1360.19 450.24 1367.61 C 395.516 1400 338.155 1450 271.236 1416.77 C 264.916 1413.63 258.926 1410.32 252.771 1406.8 C 256.213 1404.99 256.573 1403.24 260.802 1402.98 L 261.803 1403.61 C 265.292 1405.78 269.736 1409.02 274.172 1407.43 C 273.034 1406.3 272.243 1405.48 270.775 1404.84 C 260.858 1400.51 263.558 1399.41 254.505 1402.27 C 253.326 1400.14 253.39 1399.84 251.254 1398.59 C 247.513 1398.35 249.001 1397.89 245.939 1400.32 C 240.05 1395.31 233.903 1390.71 231.056 1383.37 C 234.117 1385.23 232.345 1385.52 237.618 1387.75 L 239.227 1386.95 L 239.466 1384.14 C 237.456 1380.81 235.944 1378.56 231.774 1378.37 C 230.093 1380.58 230.57 1379.68 231.056 1383.37 z M 299.158 1423.52 L 302.077 1421.07 C 300.406 1418.89 297.598 1418.81 294.77 1418.77 C 291.13 1419.7 290.736 1419.15 288.603 1421.41 C 291.855 1423.04 295.474 1423.11 299.158 1423.52 z"/>
<path transform="translate(0,0)" fill="rgb(100,61,227)" d="M 953.552 448.323 C 969.736 446.685 984.248 450.326 997.526 459.857 C 1011.35 469.575 1020.6 484.53 1023.12 501.243 C 1026.04 520.445 1021.46 539.325 1008.12 553.612 C 988.898 574.192 968.77 593.823 948.854 613.739 L 826.411 736.159 L 687.069 875.522 L 642.968 919.654 C 625.246 937.379 611.53 955.603 585.243 958.933 C 526.273 966.064 490.017 902.42 526.451 855.517 C 533.526 846.409 543.215 837.683 551.493 829.458 L 588.421 792.661 L 712.347 668.748 L 850.246 530.783 L 892.205 488.657 C 911.686 469.102 924.476 451.57 953.552 448.323 z"/>
<path transform="translate(0,0)" fill="rgb(100,61,227)" d="M 567.227 448.297 C 602.33 443.469 634.691 468.038 639.473 503.148 C 644.255 538.257 619.643 570.585 584.528 575.321 C 549.477 580.049 517.222 555.493 512.449 520.449 C 507.675 485.404 532.189 453.117 567.227 448.297 z"/>
<path transform="translate(0,0)" fill="rgb(100,61,227)" d="M 951.247 832.295 C 986.347 827.478 1018.7 852.051 1023.47 887.157 C 1028.25 922.263 1003.64 954.585 968.528 959.32 C 933.474 964.047 901.217 939.486 896.449 904.438 C 891.681 869.39 916.204 837.104 951.247 832.295 z"/>
<path transform="translate(0,0)" fill="rgb(100,61,227)" fill-opacity="0.603922" d="M 294.77 1418.77 C 297.598 1418.81 300.406 1418.89 302.077 1421.07 L 299.158 1423.52 C 295.474 1423.11 291.855 1423.04 288.603 1421.41 C 290.736 1419.15 291.13 1419.7 294.77 1418.77 z"/>
<path transform="translate(0,0)" fill="rgb(100,61,227)" fill-opacity="0.611765" d="M 733.765 1452.21 L 732.572 1450.4 C 735.142 1448.19 735.698 1447.36 739.471 1447.73 C 757.21 1449.47 774.786 1452.38 792.537 1448.73 C 796.935 1447.82 802.969 1445.55 806.681 1448.59 L 803.248 1452.62 C 801.885 1452.59 790.262 1454.19 787.248 1454.37 C 768.369 1455.45 752.375 1456.43 733.765 1452.21 z"/>
<path transform="translate(0,0)" fill="rgb(100,61,227)" fill-opacity="0.478431" d="M 1248.31 149.131 C 1250.19 148.925 1249.51 149.076 1251.23 148.154 L 1248.98 144.996 L 1249.49 143.878 L 1252.19 143.311 C 1258.55 149.023 1275.24 167.065 1279.6 174.122 C 1268.89 172.992 1255.88 155.138 1248.31 149.131 z"/>
<path transform="translate(0,0)" fill="rgb(100,61,227)" fill-opacity="0.576471" d="M 696.178 1439.26 C 698.601 1438.28 701.403 1436.71 703.545 1438.43 C 711.078 1444.47 714.957 1437.89 720.119 1438.52 L 720.913 1439.36 C 723.03 1441.57 723.765 1442.7 726.578 1443.86 L 727.196 1445.21 C 724.778 1448.93 718.287 1446.31 713.86 1446.77 C 708.031 1445.69 701.276 1442.15 696.178 1439.26 z"/>
<path transform="translate(0,0)" fill="rgb(100,61,227)" fill-opacity="0.470588" d="M 1239.29 132.632 C 1240.86 133.991 1251.94 143.022 1252.19 143.311 L 1249.49 143.878 L 1248.98 144.996 L 1251.23 148.154 C 1249.51 149.076 1250.19 148.925 1248.31 149.131 C 1240.42 140.89 1238.38 144.63 1239.29 132.632 z"/>
<path transform="translate(0,0)" fill="rgb(100,61,227)" fill-opacity="0.537255" d="M 245.939 1400.32 C 249.001 1397.89 247.513 1398.35 251.254 1398.59 C 253.39 1399.84 253.326 1400.14 254.505 1402.27 C 263.558 1399.41 260.858 1400.51 270.775 1404.84 C 272.243 1405.48 273.034 1406.3 274.172 1407.43 C 269.736 1409.02 265.292 1405.78 261.803 1403.61 L 260.802 1402.98 C 256.573 1403.24 256.213 1404.99 252.771 1406.8 C 250.524 1405.04 248.005 1402.38 245.939 1400.32 z"/>
<path transform="translate(0,0)" fill="rgb(100,61,227)" fill-opacity="0.490196" d="M 1224.02 122.688 C 1226.74 124.074 1231.26 126.093 1233.33 128.081 L 1231.28 129.179 L 1230.94 131.738 L 1229.57 132.457 C 1225.54 131.468 1222.58 130.405 1221.45 126.18 L 1224.02 122.688 z"/>
<path transform="translate(0,0)" fill="rgb(100,61,227)" fill-opacity="0.611765" d="M 231.056 1383.37 C 230.57 1379.68 230.093 1380.58 231.774 1378.37 C 235.944 1378.56 237.456 1380.81 239.466 1384.14 L 239.227 1386.95 L 237.618 1387.75 C 232.345 1385.52 234.117 1385.23 231.056 1383.37 z"/>
</svg>