<svg version="1.1" xmlns="http://www.w3.org/2000/svg" style="display: block;" viewBox="0 0 1536 1536" width="384" height="384" preserveAspectRatio="none">
<path transform="translate(0,0)" fill="rgb(98,60,227)" d="M 555.515 272.478 C 581.261 272.105 607.009 271.935 632.757 271.969 C 648.589 271.934 674.472 270.825 689.035 274.302 C 699.276 276.764 708.726 281.783 716.5 288.89 C 752.343 321.565 734.939 386.418 686.356 395.183 C 666.419 398.78 643.58 397.154 623.191 397.158 C 591.785 397.273 560.38 397.566 528.977 398.036 C 477.439 399.076 413.001 402.08 365.33 422.21 C 327.405 438.225 293.719 481.109 284.726 520.998 C 267.264 603.781 268.556 692.298 269.518 777.112 C 270.847 894.206 262.801 1016.12 284.074 1131.47 C 297.122 1202.22 340.792 1240.83 410.066 1253.57 C 491.893 1266.11 591.019 1270 673.898 1266.96 C 765.597 1263.6 963.443 1279.52 1043.76 1241.14 C 1073.15 1227.17 1097.05 1203.81 1111.69 1174.75 C 1142.08 1113.27 1137.21 989.924 1138.31 920.956 C 1138.6 902.979 1136.85 866.809 1140.33 850.987 C 1142.87 839.277 1148.51 828.467 1156.68 819.695 C 1187.08 787.552 1243.35 797.751 1259.78 839.057 C 1263.58 848.607 1263.95 858.601 1264.06 868.731 C 1264.25 915.577 1263.98 962.423 1263.25 1009.26 C 1260.98 1114.74 1253.32 1220.9 1175.49 1300.34 C 1096.42 1381.05 985.881 1389.03 879.138 1391.01 C 806.234 1392.1 733.321 1392.44 660.41 1392.04 C 349.624 1391.82 150.789 1385.88 145.175 1011.11 C 144.299 933.898 143.957 856.682 144.151 779.466 C 144.124 745.268 144.307 711.069 144.699 676.873 C 145.346 610.476 146.854 543.012 165.894 478.768 C 178.362 435.57 201.301 396.118 232.675 363.912 C 318.226 276.111 440.575 274.103 555.515 272.478 z"/>
<path transform="translate(0,0)" fill="rgb(98,60,227)" fill-opacity="0.517647" d="M 982.52 295.916 C 995.96 302.852 1018.08 327.403 1029.81 339.124 L 1096.02 405.323 C 1141.66 450.972 1187.7 496.426 1232.73 542.695 C 1236.57 546.65 1238.82 549.076 1238.75 554.785 C 1225.8 571.451 1196.18 599.583 1180.52 615.262 L 1075.47 720.293 L 919.829 875.912 C 900.326 895.418 879.927 915.196 861.004 934.905 C 821.36 976.199 774.888 1006.38 719.559 1021.91 C 702.309 1026.75 684.601 1031.12 667.077 1035.44 L 602.939 1051.47 C 586.947 1055.42 549.686 1065.94 535.175 1068.07 L 537.079 1064.67 C 531.387 1061.69 519.689 1066.64 513.394 1066.58 C 508.173 1066.54 501.024 1064.25 495.714 1063.95 C 490.425 1063.66 491.235 1063.59 487.929 1066.44 C 467.922 1052.37 461.423 1035.93 465.752 1011.29 C 471.821 981.018 479.765 950.545 487.41 920.613 C 498.878 875.716 508.008 830.555 524.172 787.088 C 548.898 720.598 601.189 675.754 650 626.954 L 794.081 482.902 L 916.299 360.66 C 933.417 343.536 964.884 310.285 982.52 295.916 z"/>
<path transform="translate(0,0)" fill="rgb(98,60,227)" d="M 1198.69 144.433 C 1215.22 143.524 1231.8 144.637 1248.06 147.749 C 1259.53 150.052 1269.25 153.265 1279.98 157.693 C 1406.52 209.931 1429.47 374.533 1330.93 465.314 C 1323.69 471.984 1317.92 479.886 1309.42 485.497 C 1299.64 476.392 1288.05 464.019 1278.36 454.285 L 1127.55 303.444 C 1102.46 278.376 1074.58 251.764 1050.52 226.201 C 1060.87 216.723 1071.45 204.66 1082.17 194.665 C 1115.7 163.408 1153.01 147.186 1198.69 144.433 z"/>
<path transform="translate(0,0)" fill="rgb(98,60,227)" fill-opacity="0.611765" d="M 487.929 1066.44 C 491.235 1063.59 490.425 1063.66 495.714 1063.95 C 501.024 1064.25 508.173 1066.54 513.394 1066.58 C 519.689 1066.64 531.387 1061.69 537.079 1064.67 L 535.175 1068.07 C 516.382 1071.76 505.742 1073.64 487.929 1066.44 z"/>
</svg>