<svg version="1.1" xmlns="http://www.w3.org/2000/svg" style="display: block;" viewBox="0 0 1536 1536" width="384" height="384" preserveAspectRatio="none">
<path transform="translate(0,0)" fill="rgb(98,59,230)" fill-opacity="0.517647" d="M 101.265 975.759 C 98.6825 970.882 95.5481 957.778 94.2155 952.014 C 80.4608 892.523 80.8089 826.263 80.7115 765.407 L 80.6698 620.929 L 80.7375 491.975 C 81.0041 345.388 83.3066 185.369 261.276 149.168 C 344.673 132.204 428.583 136.784 513.264 136.768 L 794.262 136.759 L 1048.63 136.768 C 1140.46 136.786 1272.74 129.087 1352.1 178.6 L 1349.65 182.293 C 1350.79 186.633 1353.61 187.156 1357.72 188.044 L 1358.56 187.587 L 1358.88 185.032 L 1361.36 184.076 C 1364.57 186.711 1368.12 189.366 1370.8 192.49 C 1373.03 198.254 1373.66 195.89 1375.53 198.783 L 1374.97 200.136 C 1373.29 199.832 1372.07 199.361 1370.57 199.785 C 1378.37 208.311 1397.34 228.404 1407.77 230.875 C 1456.73 302.776 1455.15 403.58 1455.39 487.597 L 1455.48 624.55 L 1455.45 765.069 C 1455.35 871.032 1458.9 1014 1360.4 1080.08 C 1277.51 1135.7 1146.25 1127.21 1050.21 1127.23 L 782.569 1127.25 L 499.079 1127.22 C 425.305 1127.21 346.24 1129.86 273.557 1117.56 C 246.359 1112.96 215.441 1103.5 191.488 1089.85 C 189.603 1088.78 183.027 1085.14 181.779 1083.74 C 183.339 1082.99 182.841 1083.38 183.845 1081.97 C 182.466 1078.02 178.496 1073.67 174.122 1075.73 L 174.002 1078.5 C 170.71 1077.15 165.362 1072.35 162.443 1069.94 C 142.181 1053.15 122.263 1026.93 111.618 1002.87 C 112.961 1000.46 113.2 1000.62 115.476 998.917 L 114.667 1000.14 L 115.505 999.751 C 117.196 993.595 112.983 982.352 107.365 979.255 L 105.517 979.908 C 104.603 977.418 104.179 975.432 102.282 973.629 L 101.265 975.759 z M 91.6406 919.317 C 93.3968 913.573 96.0627 902.344 89.1064 899.371 C 88.3796 905.174 87.1101 911.421 89.0167 916.912 L 91.6406 919.317 z M 1243.25 1119.3 L 1247.02 1118.32 L 1247.47 1117.17 C 1243.81 1114.96 1242.56 1114.9 1238.46 1114.01 C 1235.82 1115.47 1233.53 1116.02 1232.78 1118.3 C 1236.25 1119.58 1239.51 1119.28 1243.25 1119.3 z"/>
<path transform="translate(0,0)" fill="rgb(98,59,230)" fill-opacity="0.662745" d="M 89.1064 899.371 C 96.0627 902.344 93.3968 913.573 91.6406 919.317 L 89.0167 916.912 C 87.1101 911.421 88.3796 905.174 89.1064 899.371 z"/>
<path transform="translate(0,0)" fill="rgb(98,59,230)" fill-opacity="0.611765" d="M 1238.46 1114.01 C 1242.56 1114.9 1243.81 1114.96 1247.47 1117.17 L 1247.02 1118.32 L 1243.25 1119.3 C 1239.51 1119.28 1236.25 1119.58 1232.78 1118.3 C 1233.53 1116.02 1235.82 1115.47 1238.46 1114.01 z"/>
<path transform="translate(0,0)" fill="rgb(98,59,230)" d="M 740.918 1208.55 C 755.039 1208 769.173 1207.88 783.301 1208.19 C 867.01 1209.57 949.467 1228.74 1025.2 1264.43 C 1040.38 1271.53 1061.39 1281.24 1072.66 1293.25 C 1094.84 1316.93 1092.94 1362.4 1068.16 1383.63 C 1042.71 1405.44 1012.83 1403.27 984.796 1388.54 C 925.188 1357.24 860.185 1341.37 793.248 1337.4 C 724.788 1332.64 647.399 1346.89 584.385 1373.05 C 561.958 1381.32 540.518 1398.3 516.208 1399.78 C 479.5 1402.02 449.222 1375.86 448.129 1338.88 C 446.775 1293.02 478.687 1278.87 514.21 1262.85 C 585.45 1229.95 662.504 1211.49 740.918 1208.55 z"/>
<path transform="translate(0,0)" fill="rgb(98,59,230)" fill-opacity="0.478431" d="M 1370.8 192.49 C 1380.03 197.713 1403.26 221.666 1407.77 230.875 C 1397.34 228.404 1378.37 208.311 1370.57 199.785 C 1372.07 199.361 1373.29 199.832 1374.97 200.136 L 1375.53 198.783 C 1373.66 195.89 1373.03 198.254 1370.8 192.49 z"/>
<path transform="translate(0,0)" fill="rgb(98,59,230)" fill-opacity="0.619608" d="M 101.265 975.759 L 102.282 973.629 C 104.179 975.432 104.603 977.418 105.517 979.908 L 107.365 979.255 C 112.983 982.352 117.196 993.595 115.505 999.751 L 114.667 1000.14 L 115.476 998.917 C 113.2 1000.62 112.961 1000.46 111.618 1002.87 C 107.628 993.191 104.283 985.849 101.265 975.759 z"/>
<path transform="translate(0,0)" fill="rgb(98,59,230)" fill-opacity="0.501961" d="M 1352.1 178.6 C 1354.79 180.033 1359.22 182.147 1361.36 184.076 L 1358.88 185.032 L 1358.56 187.587 L 1357.72 188.044 C 1353.61 187.156 1350.79 186.633 1349.65 182.293 L 1352.1 178.6 z"/>
<path transform="translate(0,0)" fill="rgb(98,59,230)" fill-opacity="0.596078" d="M 174.002 1078.5 L 174.122 1075.73 C 178.496 1073.67 182.466 1078.02 183.845 1081.97 C 182.841 1083.38 183.339 1082.99 181.779 1083.74 C 179.466 1082.37 176.309 1080.07 174.002 1078.5 z"/>
</svg>