<svg version="1.1" xmlns="http://www.w3.org/2000/svg" style="display: block;" viewBox="0 0 1536 1536" width="384" height="384" preserveAspectRatio="none">
<path transform="translate(0,0)" fill="rgb(96,59,226)" fill-opacity="0.517647" d="M 118.704 1302.85 C 98.2472 1279.31 86.5603 1220.43 83.8713 1189.47 C 81.0027 1152.44 80.5126 1115.42 80.7203 1078.28 C 81.0395 1068.38 80.2444 1057.59 80.6941 1047.79 C 85.688 938.969 57.8864 783.37 152.959 705.288 C 224.255 646.734 358.074 656.764 446.465 656.762 L 713.523 656.761 L 1048.25 656.778 L 1152.1 656.786 C 1236.33 656.84 1343.16 654.433 1403.39 723.978 C 1457.21 786.992 1455.57 880.409 1455.44 958.971 C 1455.31 1033.09 1457.53 1106.42 1452.77 1180.68 C 1448.67 1244.74 1429.12 1312.76 1372.5 1351.17 C 1335.61 1376.21 1283.37 1387.1 1238.59 1389.04 C 1238.18 1389 1237.77 1388.96 1237.37 1388.92 L 1237.85 1388.31 C 1240.53 1387.11 1246.11 1386.89 1249.26 1386.6 L 1248.8 1386.13 L 1242.1 1386.18 C 1241.47 1385.82 1238.88 1384.3 1238.21 1384.28 C 1219.03 1383.86 1196.21 1385.36 1177.32 1385.5 C 1141.38 1385.76 1105.73 1385.63 1069.99 1385.64 L 480.328 1385.67 C 441.535 1385.71 382.25 1385.34 341.984 1385.69 C 341.421 1386.05 340.857 1386.41 340.293 1386.77 C 335.222 1387.52 331.399 1387.97 326.288 1388.31 C 336.255 1390.78 384.723 1388.45 387.739 1390.92 C 378.279 1391.8 352.8 1391.32 342.501 1391.08 C 291.496 1389.93 234.94 1386.81 188.071 1364.88 C 177.431 1359.91 167.396 1353.41 157.561 1347.16 C 160.423 1347.37 160.363 1347.39 163.144 1346.74 L 163.551 1345.35 C 160.98 1341.28 154.44 1336.16 150 1340.33 C 139.73 1331.67 130.597 1321.74 122.818 1310.78 C 124.99 1307.63 126.765 1306.07 126.814 1302.77 C 124.042 1298.2 123.279 1297.64 119.292 1294.24 C 117.671 1293.94 117.625 1293.58 116.708 1294.12 C 115.798 1297.28 117.352 1299.63 118.704 1302.85 z M 92.9876 1217.81 C 92.3497 1206.71 94.7091 1208.58 88.8431 1199.52 C 88.3339 1204.45 87.2627 1210.94 88.3319 1215.58 C 90.6644 1218.21 89.2164 1217.39 92.9876 1217.81 z M 306.829 1387.01 L 308.945 1384.68 C 303.837 1382.88 297.881 1383.69 292.319 1383.18 L 289.692 1385.64 C 291.874 1388.77 302.793 1387.23 306.829 1387.01 z M 1280.23 1383.44 L 1282.56 1382.07 L 1282.25 1380.54 C 1278.54 1378.86 1277.87 1378.89 1273.76 1378.79 L 1269.49 1381.45 L 1269.32 1382.53 C 1272.81 1383.52 1276.56 1383.36 1280.23 1383.44 z"/>
<path transform="translate(0,0)" fill="rgb(96,59,226)" d="M 506.791 912.307 C 544.486 908.332 558.816 944.298 579.146 968.619 C 599.935 993.491 621.321 1034.05 657.241 1037.15 C 689.398 1039.93 723.198 1039.52 755.59 1039.58 C 779.923 1039.66 804.255 1039.54 828.586 1039.25 C 847.361 1039.01 867.345 1039.14 885.911 1035.74 C 910.854 1031.18 928.05 1005.44 942.969 986.97 C 951.342 974.711 963.131 962.425 970.88 950.017 C 988.539 921.742 1019.25 896.624 1053.03 921.662 C 1063.3 929.369 1070.02 940.91 1071.64 953.65 C 1075.02 979.035 1054.5 999.994 1039.62 1019.39 C 1001.54 1070.3 965.119 1122.46 897.185 1131.83 C 863.868 1135.53 826.286 1137.99 792.695 1136.56 C 724.442 1133.66 633.289 1148.12 574.773 1106.46 C 564.59 1099.16 555.115 1090.91 546.473 1081.84 C 524.716 1059.15 506.106 1032.41 486.934 1007.45 C 478.019 995.848 466.994 982.19 464.652 967.46 C 462.535 954.904 465.59 942.025 473.123 931.758 C 481.821 919.997 492.603 914.325 506.791 912.307 z"/>
<path transform="translate(0,0)" fill="rgb(96,59,226)" fill-opacity="0.654902" d="M 88.8431 1199.52 C 94.7091 1208.58 92.3497 1206.71 92.9876 1217.81 C 89.2164 1217.39 90.6644 1218.21 88.3319 1215.58 C 87.2627 1210.94 88.3339 1204.45 88.8431 1199.52 z"/>
<path transform="translate(0,0)" fill="rgb(96,59,226)" fill-opacity="0.611765" d="M 292.319 1383.18 C 297.881 1383.69 303.837 1382.88 308.945 1384.68 L 306.829 1387.01 C 302.793 1387.23 291.874 1388.77 289.692 1385.64 L 292.319 1383.18 z"/>
<path transform="translate(0,0)" fill="rgb(96,59,226)" fill-opacity="0.623529" d="M 1273.76 1378.79 C 1277.87 1378.89 1278.54 1378.86 1282.25 1380.54 L 1282.56 1382.07 L 1280.23 1383.44 C 1276.56 1383.36 1272.81 1383.52 1269.32 1382.53 L 1269.49 1381.45 L 1273.76 1378.79 z"/>
<path transform="translate(0,0)" fill="rgb(96,59,226)" d="M 439.556 400.462 C 487.314 398.731 542.389 399.962 590.769 399.962 L 863.727 399.941 L 1028.18 399.958 C 1070.63 399.97 1114.83 399.095 1156.92 404.604 C 1231.32 414.34 1297.71 472.225 1317.85 544.416 C 1322.28 560.33 1324.21 576.174 1326.77 592.418 C 1273 576.391 1157.97 576.2 1100.5 576.052 L 588.525 576.059 C 518.885 575.609 449.243 575.825 379.608 576.705 C 319.311 578.056 268.47 578.694 209.343 592.049 C 216.912 543.436 223.375 513.196 255.59 474.317 C 306.025 413.446 364.782 402.044 439.556 400.462 z"/>
<path transform="translate(0,0)" fill="rgb(96,59,226)" d="M 567.503 144.46 C 597.856 143.346 631.93 143.967 662.534 143.961 L 824.713 143.978 L 929.973 144.027 C 961.935 144.104 992.945 144.284 1024.77 148.049 C 1101.31 157.106 1168.06 213.57 1189.55 287.557 C 1193.98 302.808 1195.25 317.986 1198.98 333.165 C 1159.33 318.073 1021.54 320.054 972.5 320.056 L 610.632 320.025 C 567.45 319.798 524.268 319.982 481.09 320.575 C 433.134 321.181 385.413 321.169 338.348 332.025 C 343.743 269.247 372.685 217.433 424.233 181.008 C 468.791 149.523 514.689 145.672 567.503 144.46 z"/>
<path transform="translate(0,0)" fill="rgb(96,59,226)" fill-opacity="0.607843" d="M 387.739 1390.92 C 384.723 1388.45 336.255 1390.78 326.288 1388.31 C 331.399 1387.97 335.222 1387.52 340.293 1386.77 C 344.99 1387.98 378.612 1387.53 385.602 1387.53 L 496.856 1387.49 L 951.886 1387.49 C 1029.22 1387.49 1106.59 1387.53 1183.93 1387.43 C 1187.31 1387.42 1200.4 1386.55 1201.62 1388.22 C 1199.17 1389.99 1198.16 1388.93 1194.8 1390.8 C 1160.09 1392.12 1118.65 1391.11 1083.55 1391.12 L 874.855 1391.14 L 560.725 1391.13 C 503.426 1391.13 444.969 1391.72 387.739 1390.92 z"/>
<path transform="translate(0,0)" fill="rgb(96,59,226)" fill-opacity="0.588235" d="M 340.293 1386.77 C 340.857 1386.41 341.421 1386.05 341.984 1385.69 C 382.25 1385.34 441.535 1385.71 480.328 1385.67 L 1069.99 1385.64 C 1105.73 1385.63 1141.38 1385.76 1177.32 1385.5 C 1196.21 1385.36 1219.03 1383.86 1238.21 1384.28 C 1238.88 1384.3 1241.47 1385.82 1242.1 1386.18 L 1248.8 1386.13 L 1249.26 1386.6 C 1246.11 1386.89 1240.53 1387.11 1237.85 1388.31 L 1237.37 1388.92 C 1222.93 1390.53 1209.32 1390.8 1194.8 1390.8 C 1198.16 1388.93 1199.17 1389.99 1201.62 1388.22 C 1200.4 1386.55 1187.31 1387.42 1183.93 1387.43 C 1106.59 1387.53 1029.22 1387.49 951.886 1387.49 L 496.856 1387.49 L 385.602 1387.53 C 378.612 1387.53 344.99 1387.98 340.293 1386.77 z"/>
<path transform="translate(0,0)" fill="rgb(96,59,226)" fill-opacity="0.635294" d="M 118.704 1302.85 C 117.352 1299.63 115.798 1297.28 116.708 1294.12 C 117.625 1293.58 117.671 1293.94 119.292 1294.24 C 123.279 1297.64 124.042 1298.2 126.814 1302.77 C 126.765 1306.07 124.99 1307.63 122.818 1310.78 L 118.704 1302.85 z"/>
<path transform="translate(0,0)" fill="rgb(96,59,226)" fill-opacity="0.529412" d="M 150 1340.33 C 154.44 1336.16 160.98 1341.28 163.551 1345.35 L 163.144 1346.74 C 160.363 1347.39 160.423 1347.37 157.561 1347.16 C 154.777 1345.37 152.373 1342.7 150 1340.33 z"/>
</svg>