<svg version="1.1" xmlns="http://www.w3.org/2000/svg" style="display: block;" viewBox="0 0 1536 1536" width="384" height="384" preserveAspectRatio="none">
<path transform="translate(0,0)" fill="rgb(98,59,230)" fill-opacity="0.517647" d="M 164.169 1191.27 C 155.101 1163.41 150.328 1113.71 148.341 1084.06 C 145.516 1041.9 144.897 994.608 144.807 952.458 L 144.651 785.566 L 144.753 601.296 C 144.808 567.925 145.473 535.764 146.522 502.594 C 149.895 395.845 157.57 297.592 228.798 212.257 C 303.224 123.091 388.155 95.2573 501.145 85.8532 C 590.46 78.4196 678.965 81.462 768.491 80.7659 C 881.105 82.0059 995.684 75.6845 1107.1 95.1123 C 1143.12 101.393 1206.94 121.89 1235.35 145.522 C 1234.41 152.553 1234.2 150.49 1238.39 156.375 C 1241.59 157.889 1240.4 157.863 1243.53 157.416 C 1245.49 154.648 1244.6 155.081 1247.34 153.939 C 1337.09 226.582 1370.62 295.416 1383.85 410.036 C 1391.52 476.494 1391.31 540.173 1391.43 606.859 L 1391.5 769.173 L 1391.42 934.499 C 1391.25 1059.5 1394.77 1213.34 1313.66 1316.34 C 1268.23 1374.03 1201.15 1422.39 1127.87 1435.91 L 1128.7 1433.02 C 1126.4 1431.14 1124.05 1432.03 1120.31 1432.23 L 1119.35 1434.46 C 1121.24 1436.22 1124.64 1435.74 1127.87 1435.91 C 1117.45 1439.31 1105.44 1440.87 1094.53 1442.79 C 1052.51 1450.17 1009.18 1452.87 966.567 1454.25 C 961.698 1454.41 942.627 1455.1 938.888 1454.42 C 945.587 1450.6 986.934 1453.17 989.719 1449.98 C 985.803 1449.46 982.501 1447.93 978.088 1447.74 C 970.1 1447.42 962.06 1447.98 954.064 1448.16 L 910.029 1449.13 C 888.823 1449.54 867.612 1449.7 846.401 1449.6 L 673.334 1449.55 C 644.587 1449.47 616.294 1448.48 587.615 1449.13 C 593.742 1450.42 599.833 1449.6 606.295 1450.81 C 600.281 1452.16 595.746 1452.11 589.569 1452.15 L 589.578 1452.57 C 599.242 1453.3 671.094 1453.55 672.74 1454.9 C 657.712 1455.81 640.993 1455.09 625.831 1455.08 C 575.952 1455.06 525.821 1452.85 476.208 1447.84 C 463.642 1446.57 443.269 1444.27 431.742 1440.11 C 434.331 1439.92 439.259 1439.95 441.105 1438.57 C 438.579 1436.69 436.381 1434.95 433.637 1433.37 C 429.029 1435.65 427.84 1436.12 422.558 1436.4 L 422.648 1437.15 C 425.569 1438.09 428.481 1439.05 431.383 1440.04 C 424.883 1440.84 417.593 1438.9 411.745 1436.09 C 414.304 1436.02 415.951 1436.28 418.062 1434.89 L 417.483 1433.41 C 414.367 1431.98 409.585 1430.51 406.416 1432.29 L 406.541 1433.47 L 411.385 1436.02 C 396.441 1436.23 351.929 1418.18 337.511 1411.5 C 275.249 1382.66 203.091 1308.13 180.511 1242.81 C 182.975 1246.41 183.495 1248.59 187.017 1249.68 L 188.639 1248.68 C 189.583 1244.25 188.371 1237.79 185.814 1234.81 C 180.873 1229.06 181.586 1219.26 176.35 1214.84 L 174.742 1215.18 C 170.67 1221.65 178.075 1223.12 175.982 1232.29 C 172.998 1222.27 170.376 1216.47 167.852 1205.56 C 169.673 1207.41 170.593 1210 171.674 1212.41 C 172.583 1210.85 173.518 1209.31 174.477 1207.79 C 175.192 1202.42 171.319 1184.85 165.748 1182.91 C 163.657 1185.65 164.315 1187.26 164.169 1191.27 z M 156.135 1120.77 C 157.383 1113.68 160.735 1103.94 153.824 1099.27 C 152.126 1106.2 151.38 1111.39 152.782 1118.47 C 154.242 1120.01 154.146 1120.19 156.135 1120.77 z M 1054.25 1447.3 L 1058.54 1446.35 L 1059.21 1444.94 C 1055.21 1442.4 1051.28 1442.06 1046.78 1443.31 C 1043.99 1443.73 1040.68 1443.82 1038.65 1445.58 C 1041.73 1447.38 1050.44 1447.24 1054.25 1447.3 z M 463.106 1443.9 L 465.979 1443.17 L 466.254 1441.91 C 462.457 1439.98 461.279 1439.88 457.049 1439.11 C 454.303 1440.49 453.192 1440.37 452.267 1442.52 C 455.844 1443.74 459.306 1443.68 463.106 1443.9 z M 1110.52 1438.9 L 1110.27 1436.51 C 1107.16 1434.69 1104.5 1435.06 1100.81 1434.98 L 1099.96 1437.92 C 1103.03 1439.96 1106.4 1439.18 1110.52 1438.9 z"/>
<path transform="translate(0,0)" fill="rgb(101,62,230)" d="M 940.563 703.503 C 965.141 703.555 985.18 703.405 1004.36 721.575 C 1016.58 733.314 1023.66 749.421 1024.03 766.366 C 1024.49 783.657 1017.87 800.386 1005.69 812.67 C 999.139 819.343 986.164 828.371 976.939 829.862 C 954.873 833.427 930.613 832.516 908.155 832.515 L 816.529 832.506 L 469.165 832.638 C 444.02 832.652 422.648 832.521 403.173 813.878 C 390.361 801.613 384.205 785.602 384.066 767.978 C 383.841 750.969 390.522 734.596 402.582 722.6 C 410.42 714.682 422.31 707.27 433.366 705.632 C 454.086 702.564 477.129 703.516 498.246 703.517 L 594.013 703.523 L 940.563 703.503 z"/>
<path transform="translate(0,0)" fill="rgb(101,62,230)" d="M 620.11 1023.5 C 644.962 1023.7 664.449 1022.87 683.975 1041.25 C 696.391 1052.92 703.591 1069.1 703.952 1086.14 C 704.476 1103.48 697.907 1120.29 685.762 1132.68 C 678.788 1139.87 666.682 1147.92 656.866 1149.69 C 633.857 1153.82 605.557 1152.54 581.934 1152.53 L 468.75 1152.63 C 443.213 1152.61 422.94 1152.54 403.027 1133.59 C 390.181 1121.36 384.186 1105.88 384.022 1088.23 C 383.748 1071.18 390.418 1054.75 402.499 1042.72 C 420.695 1024.29 440.445 1023.38 464.91 1023.5 C 478.325 1023.57 491.953 1023.49 505.386 1023.5 L 620.11 1023.5 z"/>
<path transform="translate(0,0)" fill="rgb(101,62,230)" fill-opacity="0.643137" d="M 153.824 1099.27 C 160.735 1103.94 157.383 1113.68 156.135 1120.77 C 154.146 1120.19 154.242 1120.01 152.782 1118.47 C 151.38 1111.39 152.126 1106.2 153.824 1099.27 z"/>
<path transform="translate(0,0)" fill="rgb(101,62,230)" fill-opacity="0.603922" d="M 1046.78 1443.31 C 1051.28 1442.06 1055.21 1442.4 1059.21 1444.94 L 1058.54 1446.35 L 1054.25 1447.3 C 1050.44 1447.24 1041.73 1447.38 1038.65 1445.58 C 1040.68 1443.82 1043.99 1443.73 1046.78 1443.31 z"/>
<path transform="translate(0,0)" fill="rgb(101,62,230)" fill-opacity="0.623529" d="M 457.049 1439.11 C 461.279 1439.88 462.457 1439.98 466.254 1441.91 L 465.979 1443.17 L 463.106 1443.9 C 459.306 1443.68 455.844 1443.74 452.267 1442.52 C 453.192 1440.37 454.303 1440.49 457.049 1439.11 z"/>
<path transform="translate(0,0)" fill="rgb(101,62,230)" fill-opacity="0.615686" d="M 1100.81 1434.98 C 1104.5 1435.06 1107.16 1434.69 1110.27 1436.51 L 1110.52 1438.9 C 1106.4 1439.18 1103.03 1439.96 1099.96 1437.92 L 1100.81 1434.98 z"/>
<path transform="translate(0,0)" fill="rgb(101,62,230)" fill-opacity="0.607843" d="M 606.295 1450.81 C 610.84 1451.96 614.841 1451.02 618.094 1451.17 C 648.792 1452.65 935.394 1449.87 937.601 1452.27 L 931.807 1454.82 C 846.317 1455.23 758.068 1456.14 672.74 1454.9 C 671.094 1453.55 599.242 1453.3 589.578 1452.57 L 589.569 1452.15 C 595.746 1452.11 600.281 1452.16 606.295 1450.81 z"/>
<path transform="translate(0,0)" fill="rgb(101,62,230)" fill-opacity="0.588235" d="M 606.295 1450.81 C 599.833 1449.6 593.742 1450.42 587.615 1449.13 C 616.294 1448.48 644.587 1449.47 673.334 1449.55 L 846.401 1449.6 C 867.612 1449.7 888.823 1449.54 910.029 1449.13 L 954.064 1448.16 C 962.06 1447.98 970.1 1447.42 978.088 1447.74 C 982.501 1447.93 985.803 1449.46 989.719 1449.98 C 986.934 1453.17 945.587 1450.6 938.888 1454.42 L 931.807 1454.82 L 937.601 1452.27 C 935.394 1449.87 648.792 1452.65 618.094 1451.17 C 614.841 1451.02 610.84 1451.96 606.295 1450.81 z"/>
<path transform="translate(0,0)" fill="rgb(101,62,230)" fill-opacity="0.635294" d="M 175.982 1232.29 C 178.075 1223.12 170.67 1221.65 174.742 1215.18 L 176.35 1214.84 C 181.586 1219.26 180.873 1229.06 185.814 1234.81 C 188.371 1237.79 189.583 1244.25 188.639 1248.68 L 187.017 1249.68 C 183.495 1248.59 182.975 1246.41 180.511 1242.81 C 179.999 1242.09 176.625 1233.76 175.982 1232.29 z"/>
<path transform="translate(0,0)" fill="rgb(101,62,230)" fill-opacity="0.647059" d="M 164.169 1191.27 C 164.315 1187.26 163.657 1185.65 165.748 1182.91 C 171.319 1184.85 175.192 1202.42 174.477 1207.79 C 173.518 1209.31 172.583 1210.85 171.674 1212.41 C 170.593 1210 169.673 1207.41 167.852 1205.56 C 167.234 1201.9 165.153 1195.35 164.169 1191.27 z"/>
<path transform="translate(0,0)" fill="rgb(101,62,230)" fill-opacity="0.486275" d="M 1235.35 145.522 C 1238.1 147.361 1245.3 151.941 1247.34 153.939 C 1244.6 155.081 1245.49 154.648 1243.53 157.416 C 1240.4 157.863 1241.59 157.889 1238.39 156.375 C 1234.2 150.49 1234.41 152.553 1235.35 145.522 z"/>
<path transform="translate(0,0)" fill="rgb(101,62,230)" fill-opacity="0.584314" d="M 431.383 1440.04 C 428.481 1439.05 425.569 1438.09 422.648 1437.15 L 422.558 1436.4 C 427.84 1436.12 429.029 1435.65 433.637 1433.37 C 436.381 1434.95 438.579 1436.69 441.105 1438.57 C 439.259 1439.95 434.331 1439.92 431.742 1440.11 L 431.383 1440.04 z"/>
<path transform="translate(0,0)" fill="rgb(101,62,230)" fill-opacity="0.607843" d="M 411.385 1436.02 L 406.541 1433.47 L 406.416 1432.29 C 409.585 1430.51 414.367 1431.98 417.483 1433.41 L 418.062 1434.89 C 415.951 1436.28 414.304 1436.02 411.745 1436.09 L 411.385 1436.02 z"/>
<path transform="translate(0,0)" fill="rgb(101,62,230)" fill-opacity="0.603922" d="M 1120.31 1432.23 C 1124.05 1432.03 1126.4 1431.14 1128.7 1433.02 L 1127.87 1435.91 C 1124.64 1435.74 1121.24 1436.22 1119.35 1434.46 L 1120.31 1432.23 z"/>
</svg>