<?xml version="1.0" standalone="no"?>
<!DOCTYPE svg PUBLIC "-//W3C//DTD SVG 20010904//EN"
 "http://www.w3.org/TR/2001/REC-SVG-20010904/DTD/svg10.dtd">
<svg version="1.0" xmlns="http://www.w3.org/2000/svg"
 width="384.000000pt" height="384.000000pt" viewBox="0 0 384.000000 384.000000"
 preserveAspectRatio="xMidYMid meet">

<g transform="translate(0.000000,384.000000) scale(0.100000,-0.100000)"
fill="#000000" stroke="none">
<path d="M1309 3470 c-188 -21 -331 -118 -408 -275 -37 -76 -49 -134 -57 -281
l-7 -119 -51 -25 c-72 -35 -164 -131 -202 -210 -40 -82 -52 -137 -60 -289 l-7
-122 -56 -27 c-108 -53 -190 -161 -226 -299 -46 -177 -46 -909 0 -1086 47
-181 161 -295 342 -342 32 -8 119 -20 193 -25 176 -13 2124 -13 2301 0 322 23
471 126 534 368 47 182 47 906 0 1085 -36 137 -120 249 -228 301 l-54 27 -7
121 c-8 151 -20 206 -59 287 -38 78 -132 176 -204 211 l-50 25 -7 119 c-8 149
-20 205 -59 285 -39 80 -133 176 -211 215 -116 59 -118 59 -756 62 -322 1
-619 -2 -661 -6z m1291 -256 c55 -26 114 -86 136 -139 9 -23 18 -81 22 -137
l5 -98 -843 0 -843 0 5 98 c7 113 24 161 76 215 44 46 78 65 135 77 23 4 317
8 652 7 600 -2 611 -2 655 -23z m315 -637 c22 -10 57 -35 79 -55 58 -56 77
-108 83 -226 l6 -101 -1163 0 -1163 0 5 100 c6 116 23 163 76 218 44 46 79 65
135 77 23 4 461 7 972 7 872 -2 932 -3 970 -20z m205 -626 c112 -15 152 -30
196 -75 73 -72 83 -146 83 -596 0 -450 -10 -524 -83 -596 -44 -45 -84 -60
-196 -75 -85 -11 -2315 -11 -2400 0 -112 15 -152 30 -196 75 -73 72 -83 146
-83 596 0 450 10 524 83 596 43 44 85 61 186 74 78 10 2331 11 2410 1z"/>
<path d="M1230 1542 c-44 -22 -74 -79 -65 -122 7 -32 127 -200 196 -275 53
-57 119 -99 194 -122 53 -16 98 -18 365 -18 267 0 312 2 365 18 75 23 141 65
194 122 69 75 189 243 196 275 10 45 -21 101 -69 124 -36 17 -43 18 -80 5 -33
-11 -54 -31 -109 -104 -102 -135 -149 -182 -193 -194 -51 -14 -556 -14 -607 0
-46 13 -84 50 -183 180 -96 127 -133 147 -204 111z"/>
</g>
</svg>
