<svg version="1.1" xmlns="http://www.w3.org/2000/svg" style="display: block;" viewBox="0 0 1536 1536" width="384" height="384" preserveAspectRatio="none">
<path transform="translate(0,0)" fill="rgb(254,1,0)" d="M 983.073 80.472 C 998.765 80.3059 1014.44 81.5253 1029.92 84.1159 C 1067.31 90.5739 1111.04 104.551 1147.84 114.798 C 1192.1 127.716 1236.89 139.308 1278.83 158.804 C 1353.51 193.522 1388.94 261.54 1390.7 341.741 C 1392.14 407.567 1391.88 472.569 1391.88 538.169 L 1391.89 882.486 L 1391.86 1091.19 C 1391.83 1135.33 1393.06 1190.01 1387.02 1232.72 C 1380.74 1271.11 1365.37 1305.25 1338.86 1333.68 C 1288.13 1388.09 1207.45 1403.34 1138.91 1424.25 C 1093.29 1438.17 1043.51 1452.27 996.147 1455.82 C 958.05 1458.69 922.54 1448.25 894.444 1422.06 C 869.44 1399.89 853.067 1361.34 851.842 1327.89 C 820.789 1328.74 789.184 1328.22 758.086 1328.23 C 650.469 1328.27 524.128 1333.28 478.544 1211.73 C 464.385 1175.68 451.606 1111.81 487.235 1085.37 C 511.141 1067.62 546.577 1067.8 570.013 1086.27 C 600.954 1110.65 586.653 1148.01 605.746 1177.13 C 609.125 1182.3 617.584 1187.41 623.412 1189.34 C 663.497 1200.96 709.028 1198.05 750.452 1199.06 C 768.602 1199.51 785.521 1199.97 803.433 1200.33 C 817.361 1200.61 835.25 1199.55 848.432 1200.99 C 846.59 1161.45 848.118 1110.48 848.118 1069.97 L 848.123 816.57 L 848.103 503.235 C 848.089 449.462 846.798 389.125 848.398 335.866 C 815.436 336.857 782.719 336.321 748.418 337.592 C 707.876 339.094 656.955 334.669 617.891 349.23 C 609.34 352.417 601.554 363.533 599.131 371.993 C 591.683 398.312 594.186 427.295 572.321 447.555 C 547.171 470.858 503.581 469.375 480.455 443.872 C 466.16 428.108 463.398 412.262 464.583 391.634 C 467.318 344.014 484.134 293.582 519.489 260.232 C 578.974 204.613 671.904 208.784 748.074 208.361 C 780.474 208.181 820.117 207.408 851.971 208.856 C 851.941 182.052 868.175 138.463 887.486 120.041 C 918.523 90.4335 941.862 81.3498 983.073 80.472 z"/>
<path transform="translate(0,0)" fill="rgb(254,1,0)" d="M 516.493 545.315 C 559.204 538.978 596.359 577.358 627.094 603.055 C 669.516 638.524 745.596 699.7 751.354 758.096 C 759.344 839.149 650.249 910.433 596.14 957.575 C 586.676 965.795 569.656 978.897 559.327 984.49 C 520.351 1005.6 467.146 981.416 464.591 935.286 C 460.203 884.129 497.595 871.729 530.595 843.45 C 534.411 840.18 541.86 836.299 544.386 833.435 L 542.958 832.317 C 515.311 831.239 482.667 832.23 454.59 832.241 L 294.627 832.2 C 268.112 832.211 241.513 832.394 215.056 832.323 C 193.651 832.265 175.972 828.316 160.896 812.182 C 148.089 798.511 143.89 784.956 144.148 766.75 C 144.575 736.675 163.471 709.661 194.481 705.807 C 211.309 703.715 228.073 704.345 245.188 704.348 L 325.052 704.356 L 475.062 704.359 C 498.582 704.354 524.129 703.641 547.374 704.285 C 528.67 690.286 487.819 662.287 475.136 645.002 C 469.894 637.954 466.461 629.726 465.141 621.042 C 459.224 583.976 478.013 551.108 516.493 545.315 z"/>
</svg>