<svg version="1.1" xmlns="http://www.w3.org/2000/svg" style="display: block;" viewBox="0 0 1536 1536" width="384" height="384" preserveAspectRatio="none">
<path transform="translate(0,0)" fill="rgb(0,0,0)" d="M 974.061 80.377 C 1024.49 77.4675 1090.7 99.3387 1139.81 113.214 C 1195.85 129.048 1261.57 145.561 1309.84 177.79 C 1350.22 204.761 1379.24 254.796 1385.53 302.577 C 1394.04 362.916 1392.04 426.111 1392.05 487.31 L 1392.08 751.591 L 1392.06 1035.11 C 1392.05 1097.84 1393.85 1157.93 1387.53 1219.92 C 1374.46 1348.01 1275.69 1386.81 1165.3 1415.73 C 1118.21 1428.07 1071.5 1444.6 1022.87 1452.71 C 982.019 1459.53 942.427 1457.65 907.695 1431.96 C 869.897 1404.25 859.126 1373.08 852.235 1328.73 C 811.552 1326.59 766.942 1329.13 725.853 1328.27 C 623.328 1326.14 524.609 1331.51 477.586 1221.63 C 467.986 1192.63 453.224 1140.71 478.633 1117.24 C 503.589 1092.52 550.888 1104.79 557.868 1139.68 C 566.115 1180.91 564.701 1215.24 614.909 1224.69 C 644.124 1230.18 672.893 1231.03 702.998 1231.54 C 751.269 1232.35 799.676 1231.98 848.02 1231.93 L 848.006 626.691 C 848.007 520.542 846.61 410.575 848.326 304.734 C 796.643 304.038 744.954 304.05 693.271 304.772 C 662.579 305.396 619.224 306.842 591.642 319.346 C 552.306 338.958 571.268 392.281 544.995 418.834 C 514.936 447.879 462.364 425.85 464.335 383.196 C 467.445 315.888 496.672 251.024 564.198 226.313 C 616.826 207.054 679.579 208.137 735.413 207.997 L 851.877 208.073 C 861.362 137.107 899.468 87.4416 974.061 80.377 z M 1209.73 1300.74 C 1271.08 1278.95 1290.57 1253.73 1294.05 1188.18 C 1296.82 1135.85 1296.04 1084.18 1296.05 1031.83 L 1296.07 792.463 L 1296.04 548.732 L 1296.02 445.703 C 1296 398.974 1298.44 341.589 1285.27 296.291 C 1276.72 272.393 1256.25 254.224 1233.64 244.808 C 1190.83 226.982 1144.75 214.199 1100.09 201.923 C 1064.1 192.031 1009.6 173.517 972.626 177.399 C 962.91 181.521 956.743 185.875 953.047 196.008 C 946.995 212.598 945.189 238.1 944.828 255.815 C 943.588 316.744 944.058 378.182 944.054 439.128 L 944.041 766.729 L 944.047 1097.03 C 944.05 1157.94 943.601 1219.35 944.775 1280.28 C 945.134 1298.93 946.931 1323.62 953.339 1340.99 C 960.777 1361.15 984.585 1361.33 1002.17 1358.19 C 1045.22 1351.25 1087.12 1337.36 1129.13 1325.89 C 1151.13 1319.6 1189.09 1309.21 1209.73 1300.74 z"/>
<path transform="translate(0,0)" fill="rgb(0,0,0)" d="M 539.792 560.28 C 550.755 560.199 562.123 562.282 571.154 568.896 C 613.423 599.852 657.289 634.989 694.494 671.783 C 705.893 682.937 716.561 694.816 726.43 707.344 C 742.095 727.568 754.507 751.158 750.898 777.49 C 742.823 836.409 633.746 919.698 587.168 955.509 C 571.852 967.284 558.068 978.465 537.548 975.578 C 524.443 973.715 512.631 966.677 504.756 956.039 C 488.212 933.238 496.399 901.995 518.643 886.547 C 532.466 876.946 545.769 864.685 559.335 854.671 C 574.644 843.372 589.094 827.979 604.506 817.265 L 605.743 816.413 C 577.925 815.528 544.705 816.322 516.5 816.33 L 283.642 816.336 L 224.293 816.432 C 200.659 816.464 177.31 819.797 158.718 802.672 C 149.696 794.472 144.418 782.94 144.107 770.752 C 143.641 757.275 148.502 744.157 157.637 734.238 C 175.259 715.469 207.877 719.838 231.849 719.899 L 303.284 719.964 L 498.073 720.021 C 532.714 720.027 570.895 720.812 605.311 719.735 C 587.677 704.966 571.126 690.296 552.982 675.803 C 538.195 662.992 518.035 651.176 505.29 636.539 C 492.075 621.363 493.912 593.727 506.135 578.469 C 516.068 566.068 524.8 562.694 539.792 560.28 z"/>
</svg>