<svg version="1.1" xmlns="http://www.w3.org/2000/svg" style="display: block;" viewBox="0 0 1536 1536" width="384" height="384" preserveAspectRatio="none">
<path transform="translate(0,0)" fill="rgb(254,1,0)" d="M 614.207 80.457 C 617.55 80.4744 620.893 80.5316 624.234 80.6283 C 657.898 81.4389 689.805 95.8236 712.703 120.514 C 732.257 141.545 748.972 180.14 748.087 208.686 C 750.22 208.491 752.358 208.37 754.498 208.323 C 790.522 207.651 827.297 208.355 863.328 208.419 C 938.89 208.552 1026.43 206.844 1084.25 263.995 C 1119.38 300.728 1134.63 348.731 1135.68 398.588 C 1137.9 478.532 1022.83 488.01 1008.5 411.451 C 1000.52 368.77 1003.58 348.347 955.089 341.844 C 924.963 337.803 898.092 338.05 868.025 337.665 L 751.876 336.093 L 752.016 1200.8 C 763.541 1199.72 783.511 1200.39 795.631 1200.34 C 818.302 1200.05 840.971 1199.6 863.637 1199 C 895.825 1198.34 953.109 1200.13 982.126 1186.89 C 1018.56 1170.26 993.199 1098.95 1040.89 1079.03 C 1074.4 1065.04 1113.76 1073.01 1130.24 1106.88 C 1142.36 1131.8 1132.18 1182.61 1123.09 1207.84 C 1110.96 1235.93 1102.46 1255.98 1078.24 1277.46 C 1014.74 1333.79 922.352 1327.31 842.775 1328.18 C 816.965 1328.46 772.853 1329.61 748.346 1327.98 C 747.43 1357.81 732.486 1394.6 711.886 1416.26 C 688.686 1440.76 656.725 1455.06 623.001 1456.04 C 605.133 1456.41 587.272 1455.02 569.676 1451.89 C 531.725 1445.22 491.223 1432.16 453.984 1421.79 C 409.179 1409.31 363.375 1396.37 321.097 1376.89 C 302.758 1368.44 285.289 1357.26 270.739 1343.22 C 222.503 1297.09 209.941 1245.12 208.898 1180.16 C 207.754 1108.89 208.118 1037.77 208.117 966.506 L 208.11 615.939 L 208.139 437.003 C 208.164 392.868 207.364 348.239 213.204 304.268 C 220.809 247.016 256.881 191.927 308.427 164.868 C 357.69 139.008 416.765 125.626 470.091 109.825 C 517.221 95.8607 564.66 81.5123 614.207 80.457 z"/>
<path transform="translate(0,0)" fill="rgb(254,1,0)" d="M 1220.48 545.316 C 1228.94 544.061 1243.93 543.875 1252 546.991 C 1280.29 557.912 1304.14 582.401 1328.24 600.73 C 1344.1 613.664 1361.03 629.302 1376.02 642.556 C 1442.96 701.77 1492.6 765.953 1420.77 847.961 C 1383.85 890.114 1343.64 923.206 1299.69 957.936 C 1288.17 967.042 1276.11 977.054 1263.33 984.492 C 1222.93 1004.81 1172.96 982.771 1168.62 935.761 C 1163.89 884.453 1201.39 871.786 1234.6 843.45 C 1238.38 840.219 1245.89 836.269 1248.39 833.435 L 1246.96 832.317 C 1219.36 831.309 1187.03 832.289 1159.03 832.231 C 1078.69 832.064 998.263 832.358 917.926 832.302 C 896.533 832.287 879.717 827.777 864.659 811.948 C 851.067 798.055 848.041 783.686 848.342 764.89 C 848.809 735.682 868.678 709.356 898.533 705.816 C 916.723 703.659 934.933 704.347 953.345 704.35 L 1042.74 704.357 L 1181.78 704.357 C 1203.48 704.351 1231.01 703.334 1252.06 704.446 C 1249.29 702.769 1246.59 700.99 1243.95 699.114 C 1234.4 692.244 1223.99 684.045 1214.78 676.871 C 1195.16 661.319 1173.01 647.396 1169.02 620.657 C 1163.5 583.786 1182.09 551.129 1220.48 545.316 z"/>
</svg>