<svg version="1.1" xmlns="http://www.w3.org/2000/svg" style="display: block;" viewBox="0 0 1536 1536" width="384" height="384" preserveAspectRatio="none">
<path transform="translate(0,0)" fill="rgb(0,0,0)" d="M 605.472 80.3855 C 637.588 78.7535 665.857 84.8012 692.196 104.041 C 730.492 132.016 740.705 163.83 747.703 207.56 C 818.153 210.015 890.967 205.02 961.6 211.002 C 1012.99 215.001 1063.07 228.846 1097.17 270.518 C 1120.85 299.455 1137.91 351.521 1135.21 389.126 C 1129.2 444.279 1050.52 446.675 1041 392.505 C 1035.65 362.067 1033.53 324.1 997.933 314.992 C 935.986 299.138 866.29 306.203 802.723 304.372 C 785.861 303.887 768.054 305.954 751.907 303.825 L 751.878 1231.8 L 864.192 1231.95 C 901.832 1231.85 939.215 1231.42 976.277 1226.29 C 1020.13 1220.22 1033.83 1198.86 1038.79 1156.9 C 1040.73 1140.49 1045.41 1122.4 1060.11 1112.54 C 1083.06 1097.16 1112.89 1103.65 1128.68 1126.17 C 1142.09 1146.35 1132.6 1182.72 1127.41 1204.76 C 1088.88 1340.5 953.907 1327.29 841.617 1328.31 C 813.117 1328.57 775.89 1330.36 748.143 1327.91 C 741.009 1360.57 739.131 1381.62 716.243 1409.6 C 651.153 1489.19 543.392 1446.38 460.977 1423.16 C 378.711 1399.98 277.225 1378.4 234.495 1295.45 C 207.313 1242.68 208.358 1180.59 208.124 1122.51 L 208.041 1024.56 L 208.018 726.741 L 208.036 480.042 C 208.047 421.433 206.061 361.455 214.234 303.516 C 222.752 243.121 259.431 189.805 314.538 162.929 C 359.529 140.986 408.532 127.791 456.655 114.179 C 505.62 100.329 554.558 84.6168 605.472 80.3855 z M 410.542 1307.92 C 444.169 1318.21 477.921 1328.09 511.792 1337.55 C 544.295 1346.67 577.807 1357.04 611.559 1359.47 C 631.657 1360.92 645.37 1351.73 649.517 1331.72 C 655.533 1302.69 655.668 1271.98 655.853 1242.43 L 656.041 1165.85 L 656.064 921.697 L 656.054 491.286 L 656.033 350.336 C 656.026 321.498 657.008 290.229 655.401 261.564 C 653.421 226.254 657.676 167.991 605.601 177.352 C 562.768 182.251 517.683 197.304 476.045 208.905 C 436.967 220.696 396.637 230.064 359.728 247.795 C 323.144 265.368 309.86 296.467 306.932 334.732 C 302.71 389.898 304.072 445.527 304.063 500.746 L 304.048 778.655 L 304.063 1042.68 C 304.071 1097.35 302.547 1151.21 307.377 1205.75 C 313.318 1272.81 353.666 1289.79 410.542 1307.92 z"/>
<path transform="translate(0,0)" fill="rgb(0,0,0)" d="M 1243.79 560.28 C 1254.76 560.199 1266.12 562.28 1275.15 568.895 C 1317.42 599.852 1361.29 634.988 1398.49 671.782 C 1409.89 682.937 1420.56 694.816 1430.43 707.344 C 1446.09 727.565 1458.51 751.161 1454.9 777.49 C 1446.82 836.415 1337.75 919.693 1291.17 955.508 C 1275.85 967.283 1262.07 978.466 1241.55 975.578 C 1228.44 973.716 1216.63 966.677 1208.76 956.038 C 1196.95 939.759 1197.16 911.959 1211.31 896.852 C 1227.53 881.965 1245.89 868.33 1263.34 854.671 C 1277.83 843.324 1293.84 827.458 1308.51 817.265 L 1309.75 816.413 C 1281.93 815.527 1248.7 816.322 1220.5 816.33 L 988.147 816.336 L 928.367 816.431 C 905.05 816.464 882.021 819.743 863.439 803.316 C 854.233 795.306 848.707 783.878 848.144 771.689 C 847.421 757.899 852.284 744.4 861.636 734.24 C 879.273 715.45 911.92 719.84 935.918 719.899 L 1006.96 719.963 L 1202.17 720.02 C 1236.79 720.026 1274.92 720.808 1309.31 719.736 C 1291.68 704.967 1275.13 690.296 1256.98 675.803 C 1242.19 662.992 1222.04 651.175 1209.29 636.539 C 1196.08 621.366 1197.91 593.724 1210.13 578.469 C 1220.07 566.069 1228.8 562.694 1243.79 560.28 z"/>
</svg>