<?xml version="1.0" standalone="no"?>
<!DOCTYPE svg PUBLIC "-//W3C//DTD SVG 20010904//EN"
 "http://www.w3.org/TR/2001/REC-SVG-20010904/DTD/svg10.dtd">
<svg version="1.0" xmlns="http://www.w3.org/2000/svg"
 width="384.000000pt" height="384.000000pt" viewBox="0 0 384.000000 384.000000"
 preserveAspectRatio="xMidYMid meet">

<g transform="translate(0.000000,384.000000) scale(0.100000,-0.100000)"
fill="#000000" stroke="none">
<path d="M575 3186 c-67 -29 -105 -106 -91 -181 9 -47 59 -102 104 -115 26 -8
449 -10 1354 -8 1312 3 1317 3 1344 24 53 39 69 71 69 134 0 63 -16 95 -69
134 -27 21 -31 21 -1354 23 -1088 2 -1332 0 -1357 -11z"/>
<path d="M575 2066 c-67 -29 -105 -106 -91 -181 9 -47 59 -102 104 -115 26 -8
449 -10 1354 -8 1312 3 1317 3 1344 24 53 39 69 71 69 134 0 63 -16 95 -69
134 -27 21 -31 21 -1354 23 -1088 2 -1332 0 -1357 -11z"/>
<path d="M575 946 c-67 -29 -105 -106 -91 -181 9 -47 59 -102 104 -115 26 -8
449 -10 1354 -8 1312 3 1317 3 1344 24 53 39 69 71 69 134 0 63 -16 95 -69
134 -27 21 -31 21 -1354 23 -1088 2 -1332 0 -1357 -11z"/>
</g>
</svg>
