<svg version="1.1" xmlns="http://www.w3.org/2000/svg" style="display: block;" viewBox="0 0 1536 1536" width="384" height="384" preserveAspectRatio="none">
<path transform="translate(0,0)" fill="rgb(254,1,0)" d="M 257.033 256.439 C 280.834 255.871 306.778 256.372 330.779 256.372 L 474.258 256.373 L 904.99 256.377 L 1159.75 256.347 L 1239.62 256.334 C 1268.1 256.33 1299.19 251.825 1322.1 270.671 C 1348.84 292.664 1351.67 336.834 1328.77 362.45 C 1315.2 377.623 1301.94 382.44 1282.25 383.989 C 1205.83 385.368 1125.61 384.243 1048.96 384.239 L 614.898 384.233 L 372.854 384.276 L 297.237 384.299 C 267.647 384.3 236.605 388.7 213.108 368.271 C 186.537 345.169 184.698 300.934 208.634 275.472 C 223.099 260.085 237.067 257.302 257.033 256.439 z"/>
<path transform="translate(0,0)" fill="rgb(254,1,0)" d="M 257.033 704.439 L 932.095 704.38 L 1166.97 704.351 L 1241.5 704.32 C 1269.27 704.313 1299.01 700.151 1321.59 718.25 C 1348.83 740.078 1351.8 784.672 1328.77 810.451 C 1315.23 825.611 1301.92 830.44 1282.25 831.989 C 1205.69 833.37 1125.34 832.243 1048.55 832.239 L 613.757 832.234 L 372.117 832.276 L 297.059 832.3 C 267.506 832.3 236.584 836.679 213.108 816.271 C 186.534 793.169 184.703 748.937 208.632 723.472 C 223.088 708.089 237.077 705.302 257.033 704.439 z"/>
<path transform="translate(0,0)" fill="rgb(254,1,0)" d="M 257.158 1152.43 L 942.172 1152.37 L 1171.45 1152.36 L 1242.96 1152.35 C 1270.6 1152.34 1299.28 1148.18 1321.74 1166.37 C 1348.82 1188.32 1351.82 1232.68 1328.75 1258.45 C 1315.15 1273.63 1302 1278.43 1282.25 1279.99 C 1205.64 1281.35 1125.51 1280.24 1048.7 1280.24 L 613.279 1280.23 L 372.304 1280.28 L 296.109 1280.3 C 266.74 1280.3 236.471 1284.57 213.108 1264.27 C 186.525 1241.17 184.71 1196.93 208.633 1171.47 C 223.131 1156.04 237.15 1153.3 257.158 1152.43 z"/>
</svg>