<svg version="1.1" xmlns="http://www.w3.org/2000/svg" style="display: block;" viewBox="0 0 1536 1536" width="384" height="384" preserveAspectRatio="none">
<path transform="translate(0,0)" fill="rgb(100,61,231)" d="M 186.863 144.336 C 202.157 143.388 216.205 147.557 227.271 158.52 C 250.502 181.533 273.507 204.784 296.613 227.926 L 433.839 365.135 L 892.003 823.329 L 1218.67 1149.96 L 1323.83 1255.09 C 1341.53 1272.77 1359.87 1290.49 1377.15 1308.54 C 1386.7 1318.5 1392.09 1329.02 1392.39 1342.98 C 1392.8 1355.83 1388.01 1368.29 1379.11 1377.57 C 1363.98 1393.22 1333.99 1397.54 1317.31 1384.15 C 1299.69 1369.99 1280.9 1349.35 1264.62 1333.06 L 1150.34 1218.75 C 1136.75 1205.2 1109.36 1179.39 1098.11 1165.56 C 716.084 1397.68 356.606 1187.23 123.067 864.888 C 96.8387 828.687 73.3275 796.374 81.6563 748.497 C 87.4862 714.985 112.474 686.182 131.615 659.232 C 191.35 579.456 276.935 484.15 357.901 425.785 C 344.75 414.042 328.922 397.315 316.249 384.647 L 240.432 308.832 L 186.004 254.487 C 172.225 240.723 148.07 221.141 144.916 201.762 C 140.023 171.699 156.721 148.775 186.863 144.336 z M 854.76 1159.28 C 906.269 1149.61 982.833 1123.3 1026.74 1094.46 C 1011.04 1080.08 994.31 1062.63 979.121 1047.43 L 898.213 966.444 C 883.553 975.161 869.885 983.268 854.133 989.925 C 806.735 1009.48 754.303 1013.25 704.595 1000.68 C 644.241 985.06 592.508 946.217 560.67 892.617 C 528.959 838.556 519.855 774.169 535.333 713.435 C 544.066 679.804 553.286 666.1 569.791 637.441 C 552.036 621.624 432.335 496.813 425.117 495.776 C 339.28 562.007 263.707 640.564 200.848 728.9 C 194.35 737.919 178.291 756.245 177.421 766.587 C 175.633 787.85 290.248 916.903 310.532 937.934 C 427.632 1059.35 583.309 1164.32 757.498 1167.17 C 790.107 1167.98 822.708 1165.33 854.76 1159.28 z M 805.189 905.163 C 813.341 902.051 820.052 899.218 827.992 895.606 C 811.56 881.141 791.048 859.462 775.285 843.699 L 684.976 753.387 C 679.91 748.292 643.618 711.025 639.941 708.563 C 623.895 744.43 619.276 783.93 633.698 821.251 C 647.363 857.05 675.006 885.749 710.269 900.744 C 740.27 913.622 774.047 913.897 805.189 905.163 z"/>
<path transform="translate(0,0)" fill="rgb(100,61,231)" fill-opacity="0.517647" d="M 425.117 495.776 C 432.335 496.813 552.036 621.624 569.791 637.441 C 553.286 666.1 544.066 679.804 535.333 713.435 C 519.855 774.169 528.959 838.556 560.67 892.617 C 592.508 946.217 644.241 985.06 704.595 1000.68 C 754.303 1013.25 806.735 1009.48 854.133 989.925 C 869.885 983.268 883.553 975.161 898.213 966.444 L 979.121 1047.43 C 994.31 1062.63 1011.04 1080.08 1026.74 1094.46 C 982.833 1123.3 906.269 1149.61 854.76 1159.28 C 822.708 1165.33 790.107 1167.98 757.498 1167.17 C 583.309 1164.32 427.632 1059.35 310.532 937.934 C 290.248 916.903 175.633 787.85 177.421 766.587 C 178.291 756.245 194.35 737.919 200.848 728.9 C 263.707 640.564 339.28 562.007 425.117 495.776 z"/>
<path transform="translate(0,0)" fill="rgb(100,61,231)" d="M 745.438 272.445 C 937.124 263.706 1104.11 354.582 1242.37 479.21 C 1302.14 534.038 1356.54 594.446 1404.84 659.613 C 1457.69 730.316 1480.84 772.429 1421.87 853.111 C 1385.13 903.38 1347.13 952.287 1303.75 997.339 C 1287.62 1014.09 1271.01 1035.39 1246 1036.31 C 1232.87 1036.89 1220.09 1032.06 1210.63 1022.96 C 1201.32 1014.12 1195.99 1001.89 1195.85 989.06 C 1195.46 966.327 1207.58 955.86 1222.28 940.884 C 1252.72 911.81 1342.72 803.793 1360.14 767.619 C 1354.93 755.662 1338.81 734.38 1330.56 723.164 C 1280.28 654.168 1222.51 590.959 1158.3 534.696 C 1041.67 430.965 888.28 356.535 729.021 370.439 C 704.49 372.376 680.158 376.305 656.265 382.188 C 645.089 384.917 612.048 394.778 603.066 395.163 C 590.844 395.572 578.968 391.059 570.102 382.635 C 560.756 373.837 554.517 361.057 554.138 348.156 C 553.874 335.313 558.661 322.879 567.469 313.529 C 592.534 287.352 707.985 273.563 745.438 272.445 z"/>
</svg>