<svg version="1.1" xmlns="http://www.w3.org/2000/svg" style="display: block;" viewBox="0 0 1536 1536" width="384" height="384" preserveAspectRatio="none">
<path transform="translate(0,0)" fill="rgb(0,0,0)" d="M 497.656 112.456 C 534.507 111.03 578.272 111.953 615.7 111.944 L 825.945 111.928 L 980.825 111.991 C 1052.27 112.159 1138.61 108.384 1201.03 147.683 C 1254.42 181.296 1290.96 245.667 1323.05 298.603 L 1382.06 396.773 C 1389.45 409.181 1396.92 421.548 1404.45 433.874 C 1410.05 442.894 1416.66 452.643 1421.17 462.132 C 1423 465.971 1423.92 476.449 1423.96 480.842 C 1424.21 512.834 1424.11 545.083 1424.11 577.072 L 1424.05 764.868 C 1424.42 841.542 1424.18 918.217 1423.32 994.887 C 1421.17 1106.7 1421.08 1240.28 1341.48 1327.65 C 1265.27 1411.3 1146.22 1418.86 1040.37 1423.1 C 921.311 1424.5 802.243 1424.92 683.177 1424.37 C 636.822 1424.49 590.467 1424.26 544.115 1423.67 C 423.654 1422.29 270.78 1420.46 187.346 1319.97 C 112.871 1230.28 115.561 1099.97 112.552 989.351 C 111.495 950.469 112.059 910.419 112.057 871.462 L 112.061 633.727 L 111.955 529.187 C 111.936 508.91 108.713 469.096 119.481 453.293 C 179.651 364.991 230.328 263.014 299.586 181.973 C 350.279 122.654 424.437 114.856 497.656 112.456 z M 1268.38 1264.7 C 1291.91 1239.75 1305.15 1210.71 1311.89 1177.41 C 1329.44 1090.66 1327.88 989.864 1328 901.293 L 1328.03 656.745 C 1328.03 614.803 1327.3 570.44 1328.23 528.656 C 1232.1 527.436 1134.3 528.316 1038.07 528.318 L 513.628 528.316 L 299.924 528.313 L 241.282 528.454 C 231.793 528.5 216.941 529.212 208.23 527.811 C 206.573 633.525 208.026 743.586 208.064 849.66 C 207.935 896.348 208.083 943.037 208.509 989.723 C 209.38 1069.8 208.6 1204.62 267.065 1264.92 C 281.188 1279.44 298.096 1290.96 316.776 1298.78 C 381.665 1326.67 495.725 1326.51 567.739 1327.45 C 667.254 1328.16 766.771 1328.34 866.288 1327.99 C 912.698 1328.14 959.109 1327.77 1005.51 1326.86 C 1054.57 1325.99 1103.7 1324.46 1152.24 1316.75 C 1194.92 1309.97 1233.92 1298.42 1265.58 1267.49 C 1266.52 1266.57 1267.46 1265.64 1268.38 1264.7 z M 1290.61 431.449 L 1237.5 343.188 C 1156.87 209.816 1149.21 209.052 995.5 208.422 L 879.117 208.35 C 867.475 208.381 825.624 209.357 816.229 207.817 C 815.07 282.208 816.919 357.425 816.033 431.797 L 1151.64 431.935 L 1245.98 432.029 C 1254.66 432.039 1283.59 432.615 1290.61 431.449 z M 246.718 431.773 C 306.31 432.779 367.77 431.995 427.5 431.962 C 524.483 431.976 622.982 432.923 719.831 431.912 C 720.349 358.433 718.485 281.516 720.231 208.654 C 661.187 208.186 602.141 208.136 543.096 208.502 C 504.111 208.596 466.165 208.698 427.611 215.474 C 376.336 224.486 346.214 274.356 320.057 315.287 L 271.837 391.761 C 264.001 404.304 255.015 419.806 246.718 431.773 z"/>
<path transform="translate(0,0)" fill="rgb(0,0,0)" d="M 379.727 1104.35 C 402.686 1103.4 428.675 1103.93 451.843 1103.92 L 576.589 1103.9 L 658.781 1103.92 C 679.34 1103.93 702.391 1102.53 722.437 1107.55 C 724.191 1107.99 730.353 1112.11 732.033 1113.31 C 742.404 1120.62 749.337 1131.85 751.226 1144.4 C 755.493 1173.07 736.398 1195.74 708.32 1199.83 C 687.983 1201.04 662.363 1200.32 641.526 1200.33 L 523.628 1200.34 L 435.48 1200.4 C 412.765 1200.46 374.585 1203.84 356.19 1191.26 C 345.873 1184.2 338.878 1173.24 336.817 1160.9 C 331.783 1130.85 350.528 1108.91 379.727 1104.35 z"/>
<path transform="translate(0,0)" fill="rgb(0,0,0)" d="M 379.727 912.346 C 435.354 909.858 493.141 913.307 548.971 911.903 C 566.025 911.475 589.187 910.842 603.524 920.735 C 613.972 928.088 621.031 939.327 623.118 951.931 C 625.337 964.872 622.147 978.156 614.295 988.678 C 605.581 1000.44 594.415 1005.77 580.319 1007.83 C 523.769 1010.44 464.89 1006.98 408.109 1008.42 C 390.33 1007.79 371.001 1010.8 356.063 998.946 C 320.03 970.347 334.375 919.359 379.727 912.346 z"/>
</svg>
