<svg version="1.1" xmlns="http://www.w3.org/2000/svg" style="display: block;" viewBox="0 0 1536 1536" width="384" height="384" preserveAspectRatio="none">
<path transform="translate(0,0)" fill="rgb(255,1,0)" d="M 551.255 112.511 C 658.987 111.379 768.721 112.364 876.612 112.37 L 1003.77 112.544 C 1068.71 112.898 1132.61 110.819 1191.57 142.131 C 1243.04 169.464 1275.93 217.122 1306.82 264.547 C 1327.8 297.082 1348.56 329.762 1369.09 362.587 L 1397.76 407.806 C 1405.7 420.298 1413.77 432.231 1419.83 445.86 C 1423.18 453.39 1423.86 465.453 1423.88 473.799 C 1424.01 512.933 1423.89 552.134 1423.88 591.267 L 1423.87 820.141 L 1423.48 988.841 C 1422.5 1102.54 1422.61 1247.62 1337.29 1334.33 C 1248.65 1424.41 1100.94 1421.94 983.539 1423.88 L 968.727 1424 L 676.918 1424.26 C 625.37 1424.5 573.821 1424.19 522.279 1423.35 C 451.44 1421.99 384.43 1420.08 315.571 1400.82 C 105.237 1341.98 113.208 1127.46 112.257 949.714 L 112.133 601.504 L 112.073 516.248 C 112.065 496.045 110.878 470.501 114.507 450.852 C 115.122 447.521 120.522 436.401 122.461 433.409 C 141.294 404.357 160.738 375.068 180.032 346.316 C 206.399 307.022 231.727 267.037 259.16 228.54 C 271.421 211.333 282.633 197.432 297.1 182.334 C 368.191 108.144 456.398 112.942 551.255 112.511 z M 831.026 432.714 C 849.823 431.412 876.973 432.297 896.259 432.327 L 1013.35 432.391 L 1186.64 432.378 C 1211.36 432.372 1240.71 431.401 1264.87 432.125 C 1259.22 420.784 1242.9 397.018 1235.62 386.143 C 1207.22 343.708 1181.78 294.287 1145.26 258.431 C 1119.56 233.192 1063.51 232.606 1029.09 231.738 C 982.358 230.559 934.935 231.623 888.143 231.282 C 870.975 231.135 846.794 232.447 830.677 231.349 C 831.787 255.58 831.104 283.881 831.104 308.351 L 831.026 432.714 z M 273.008 432.077 L 457.5 432.377 L 625.169 432.377 C 642.828 432.376 690.331 431.235 705.871 433.003 C 704.016 418.476 704.716 364.665 705.061 347.307 C 705.779 311.153 703.47 266.369 705.198 231.031 C 645.158 232.447 583.497 230.605 523.185 231.504 C 489.53 232.643 446.159 232.412 414.639 246.229 C 407.391 249.406 393.986 260.912 388.594 266.919 C 353.765 305.721 326.93 352.621 297.442 395.468 C 290.36 405.757 280.211 423.18 273.008 432.077 z M 689.25 1200.11 C 694.954 1199.98 701.701 1200.09 707.264 1199.16 C 732.859 1194.86 751.824 1175.9 750.667 1149.43 C 750.222 1137.01 744.747 1125.31 735.5 1117.01 C 717.793 1100.98 682.88 1104.21 660.01 1104.21 L 596.349 1104.2 C 533.001 1104.2 465.35 1103.04 402.327 1104.46 C 383.041 1105.24 363.587 1104.35 349.762 1120.05 C 324.248 1149.03 339.764 1193.22 378.411 1198.44 C 396.422 1200.87 414.118 1200.41 432.132 1200.42 L 501.396 1200.43 L 622.184 1200.41 C 643.702 1200.4 667.977 1200.9 689.25 1200.11 z M 561.25 1008.11 C 582.804 1007.58 596.049 1006.27 611.518 989.649 C 621.069 979.383 623.332 969.996 622.334 956.248 C 619.323 914.755 582.133 911.776 550.976 912.207 C 500.536 912.906 451.937 911.356 402.599 912.451 C 382.934 913.26 364.525 911.989 350.108 927.875 C 332.856 946.886 332.472 977.045 352.425 994.47 C 359.024 1000.32 367.063 1004.31 375.715 1006.03 C 392.394 1009.29 440.446 1008.71 460.107 1008.44 C 492.371 1008 529.345 1009.33 561.25 1008.11 z"/>
</svg>
