<?xml version="1.0" standalone="no"?>
<!DOCTYPE svg PUBLIC "-//W3C//DTD SVG 20010904//EN"
 "http://www.w3.org/TR/2001/REC-SVG-20010904/DTD/svg10.dtd">
<svg version="1.0" xmlns="http://www.w3.org/2000/svg"
 width="384.000000pt" height="384.000000pt" viewBox="0 0 384.000000 384.000000"
 preserveAspectRatio="xMidYMid meet">

<g transform="translate(0.000000,384.000000) scale(0.100000,-0.100000)"
fill="#000000" stroke="none">
<path d="M1240 3474 c-340 -22 -518 -82 -656 -220 -116 -115 -175 -261 -206
-504 -18 -148 -19 -1523 0 -1660 34 -249 91 -390 207 -505 115 -116 256 -173
505 -207 135 -18 1525 -18 1660 0 250 34 390 91 504 206 117 116 174 257 208
506 18 135 18 1525 0 1660 -34 249 -91 390 -208 506 -111 112 -249 170 -489
205 -75 11 -1383 22 -1525 13z m80 -1554 l0 -1319 -27 4 c-16 2 -70 6 -120 9
-132 8 -237 31 -319 71 -160 78 -221 210 -244 532 -13 179 -13 1227 0 1406 33
453 151 575 587 606 59 5 111 9 116 10 4 0 7 -593 7 -1319z m1303 1310 c322
-23 454 -84 532 -244 72 -150 85 -306 85 -1066 0 -742 -13 -912 -79 -1056 -40
-86 -91 -138 -175 -179 -145 -70 -312 -85 -963 -85 l-463 0 0 1320 0 1320 463
0 c254 0 524 -5 600 -10z"/>
<path d="M2195 2510 c-11 -4 -31 -20 -45 -35 -33 -35 -35 -111 -5 -145 11 -12
97 -84 190 -158 187 -150 265 -224 265 -252 0 -28 -78 -102 -265 -252 -93 -74
-179 -146 -190 -158 -14 -16 -20 -36 -20 -71 0 -41 5 -53 30 -79 38 -37 91
-48 133 -27 43 21 361 278 429 346 32 32 71 82 88 112 26 47 30 64 30 129 0
134 -53 201 -346 435 -93 75 -182 143 -197 151 -30 15 -66 17 -97 4z"/>
</g>
</svg>
