<svg version="1.1" xmlns="http://www.w3.org/2000/svg" style="display: block;" viewBox="0 0 1536 1536" width="384" height="384" preserveAspectRatio="none">
<path transform="translate(0,0)" fill="rgb(101,62,231)" d="M 750.043 80.4381 C 755.375 80.1121 762.148 80.062 767.501 80.0415 C 856.332 79.3103 941.784 114.052 1004.91 176.561 C 1056.97 228.333 1091.12 294.696 1101.16 367.839 C 1104.8 394.318 1104.07 422.452 1104.06 449.237 L 1104.11 541.151 C 1146.04 548.625 1199.89 580.276 1230.16 610.282 C 1302.28 681.784 1311.15 752.389 1320.24 848.108 C 1324.44 892.316 1327.38 925.787 1327.94 970.866 C 1329.03 1026.56 1326.44 1082.26 1320.17 1137.61 C 1310.32 1232.17 1303.28 1297.22 1233.68 1370.94 C 1222.01 1383.31 1204.77 1396.06 1190.69 1405.35 C 1133.1 1443.37 1086.21 1449.02 1019.6 1451.62 C 996.353 1452.7 973.093 1453.46 949.826 1453.91 C 895.781 1455.13 841.725 1455.84 787.666 1456.02 C 721.244 1456.12 654.823 1455.43 588.417 1453.96 C 563.845 1453.46 539.28 1452.64 514.729 1451.5 C 489.203 1450.44 465.586 1449.88 440.498 1444.74 C 408.763 1438.18 378.457 1425.99 351.009 1408.76 C 289.563 1370.01 245.993 1308.47 229.854 1237.64 C 223.415 1209.53 220.463 1177.37 217.119 1148.75 C 204.876 1043.95 205.045 935.191 217.577 830.445 C 220.97 802.086 224.427 765.958 231.635 738.534 C 238.504 711.595 249.541 685.894 264.348 662.364 C 303.042 600.869 361.428 557.325 432.615 541.115 C 431.579 513.903 432.157 483.854 432.101 456.477 C 432.047 429.72 431.401 394.376 434.796 368.181 C 443.315 302.468 475.325 236.732 519.983 188.177 C 579.342 123.169 662.101 84.4121 750.043 80.4381 z M 783.75 1359.37 C 850.812 1359.11 917.867 1357.9 984.895 1355.75 C 1017.68 1354.53 1059.6 1355.24 1090.37 1346.07 C 1118.71 1337.36 1144.39 1321.61 1164.99 1300.29 C 1183.93 1281 1198.21 1257.64 1206.73 1231.99 C 1215.85 1204.92 1217.33 1174.37 1220.95 1146.3 C 1228.69 1086.17 1231.18 1029.5 1230.31 968.919 C 1229.67 926.289 1226.73 883.725 1221.48 841.415 C 1213.73 775.777 1212.34 729.055 1161.1 679.499 C 1140 658.695 1113.78 643.832 1085.1 636.413 C 1056.37 628.718 1001.11 628.82 969.01 627.707 C 927.146 626.371 885.268 625.518 843.384 625.148 C 817.52 624.742 788.061 623.658 762.449 624.158 C 758.825 624.238 755.203 624.365 751.582 624.539 C 683.393 624.837 615.212 626.147 547.061 628.468 C 513.802 629.805 478.098 628.519 446.482 637.705 C 418.766 645.856 393.599 660.967 373.377 681.599 C 323.415 732.693 323.437 771.845 315.088 838.118 C 299.216 964.103 303.455 1089.61 324.359 1214.71 C 329.165 1243.57 351.984 1282.04 372.759 1302.48 C 394.471 1324.22 421.56 1339.83 451.266 1347.7 C 480.663 1355.59 522.806 1354.37 553.999 1355.65 C 610.15 1357.87 666.339 1359 722.534 1359.04 C 739.764 1359.12 758.361 1360.02 775.296 1359.73 C 778.116 1359.67 780.935 1359.55 783.75 1359.37 z M 528.167 532.932 C 543.13 530.183 586.936 530.119 603.433 529.73 C 664.997 528.32 726.578 527.743 788.158 528.001 C 839.513 528.005 890.865 528.67 942.202 529.995 C 958.729 530.412 992.999 530.145 1008.01 532.829 C 1008.15 484.441 1010 433.692 1005.01 385.689 C 992.79 268.195 885.181 174.388 767.324 176.692 C 761.783 176.792 754.905 176.469 749.524 177.373 C 676.207 185.523 624.869 212.928 578.263 270.858 C 515.427 348.964 529.314 439.174 528.167 532.932 z"/>
<path transform="translate(0,0)" fill="rgb(101,62,231)" d="M 762.744 928.006 C 798.064 925.057 829.095 951.282 832.076 986.599 C 835.056 1021.92 808.86 1052.97 773.545 1055.98 C 738.185 1059 707.083 1032.76 704.098 997.4 C 701.114 962.038 727.379 930.959 762.744 928.006 z"/>
<path transform="translate(0,0)" fill="rgb(101,62,231)" d="M 1018.74 928.006 C 1054.06 925.057 1085.09 951.282 1088.08 986.599 C 1091.06 1021.92 1064.86 1052.97 1029.54 1055.98 C 994.185 1059 963.083 1032.76 960.098 997.4 C 957.114 962.038 983.379 930.959 1018.74 928.006 z"/>
<path transform="translate(0,0)" fill="rgb(101,62,231)" d="M 506.744 928.006 C 542.064 925.057 573.095 951.282 576.075 986.599 C 579.056 1021.92 552.859 1052.97 517.545 1055.98 C 482.185 1059 451.083 1032.76 448.098 997.4 C 445.114 962.037 471.379 930.959 506.744 928.006 z"/>
</svg>