<?xml version="1.0" standalone="no"?>
<!DOCTYPE svg PUBLIC "-//W3C//DTD SVG 20010904//EN"
 "http://www.w3.org/TR/2001/REC-SVG-20010904/DTD/svg10.dtd">
<svg version="1.0" xmlns="http://www.w3.org/2000/svg"
 width="384.000000pt" height="384.000000pt" viewBox="0 0 384.000000 384.000000"
 preserveAspectRatio="xMidYMid meet">

<g transform="translate(0.000000,384.000000) scale(0.100000,-0.100000)"
fill="#000000" stroke="none">
<path d="M3010 3624 c-197 -42 -353 -200 -395 -399 -18 -88 -18 -122 0 -210
42 -201 199 -358 400 -400 39 -8 86 -15 105 -15 63 0 174 29 239 62 84 43 176
135 219 219 33 65 62 176 62 239 0 19 -7 67 -15 105 -42 201 -199 358 -400
400 -85 18 -130 18 -215 -1z m235 -252 c47 -24 105 -83 131 -132 14 -26 19
-57 19 -120 0 -96 -13 -129 -74 -193 -60 -64 -103 -82 -201 -82 -98 0 -141 18
-201 82 -61 64 -74 97 -74 193 0 96 13 129 74 193 63 67 117 88 216 83 46 -2
84 -10 110 -24z"/>
<path d="M1400 3469 c-277 -8 -518 -24 -608 -40 -277 -49 -464 -211 -531 -459
-31 -113 -40 -215 -53 -567 -8 -244 -8 -402 0 -645 13 -353 22 -455 53 -568
67 -249 256 -412 534 -459 56 -10 291 -31 340 -31 23 0 23 -2 27 -162 3 -142
6 -168 25 -203 55 -105 166 -153 275 -121 45 13 87 45 288 216 129 111 253
212 276 226 39 23 49 24 365 34 727 23 859 52 1034 228 105 104 163 242 185
437 15 133 33 667 28 846 -4 176 -12 199 -75 226 -48 20 -93 10 -129 -28 l-29
-30 -6 -422 c-10 -645 -30 -760 -151 -873 -118 -111 -260 -134 -898 -150 -291
-7 -368 -18 -447 -66 -30 -18 -153 -117 -274 -220 -120 -104 -221 -188 -223
-188 -3 0 -6 92 -8 204 l-3 205 -29 30 c-35 37 -41 38 -274 51 -305 18 -404
44 -500 134 -80 75 -111 155 -134 351 -18 154 -18 1156 0 1310 23 196 54 276
134 351 131 123 275 141 1155 151 486 5 524 7 553 24 57 35 68 119 21 171 -23
26 -38 33 -87 39 -74 9 -499 8 -834 -2z"/>
<path d="M1150 2502 c-22 -10 -42 -32 -54 -56 -17 -36 -18 -43 -5 -79 8 -22
27 -50 42 -61 28 -21 33 -21 787 -21 754 0 759 0 787 21 15 11 34 39 42 61 13
36 12 43 -5 79 -38 78 4 74 -824 74 -680 0 -738 -1 -770 -18z"/>
<path d="M1150 1862 c-22 -10 -42 -32 -54 -56 -17 -36 -18 -43 -5 -79 8 -22
27 -50 42 -61 28 -21 37 -21 507 -21 470 0 479 0 507 21 15 11 34 39 42 61 13
36 12 43 -5 79 -37 75 -30 74 -544 74 -413 0 -458 -2 -490 -18z"/>
</g>
</svg>
