<svg version="1.1" xmlns="http://www.w3.org/2000/svg" style="display: block;" viewBox="0 0 1536 1536" width="384" height="384" preserveAspectRatio="none">
<path transform="translate(0,0)" fill="rgb(254,0,0)" d="M 299.316 720.512 C 373.411 719.707 448.817 720.379 522.999 720.378 L 944.94 720.383 L 1148.38 720.398 L 1227.6 720.433 C 1254.38 720.515 1293.16 719.552 1318.25 727.349 C 1345.8 735.641 1368.84 754.725 1382.1 780.261 C 1404.47 823.823 1382.47 905.445 1368.14 950.56 C 1330.22 1069.57 1259.13 1175.28 1163.22 1255.29 C 1146.54 1269.26 1111.91 1295.45 1092.65 1305.41 C 1097.75 1314.42 1099.94 1318.6 1101.49 1328.76 C 1107.17 1355.73 1103 1383.85 1089.09 1406.75 C 1064.05 1447.96 1028.54 1458.3 983.127 1456.23 C 964.749 1455.4 942.866 1456.26 924.477 1456.27 L 744.388 1456.29 L 601.767 1456.29 C 592.228 1456.28 582.491 1456.26 573.126 1456.28 C 533.832 1456.38 494.965 1459.77 464.668 1429.31 C 450.859 1415.43 438.288 1395.85 434.529 1376.37 C 430.272 1354.32 430.997 1324.84 443.324 1305.72 C 401.299 1279.19 368.263 1254.09 332.609 1219.1 C 247.582 1135.23 186.948 1029.82 157.19 914.157 C 143.473 860.181 129.39 796.923 173.791 753.231 C 209.382 718.209 253.515 720.876 299.316 720.512 z"/>
<path transform="translate(0,0)" fill="rgb(254,0,0)" d="M 197.927 80.4936 C 231.192 80.4714 272.615 80.5168 306 83.6606 C 391.155 91.6791 506.769 113.807 572.839 171.935 C 619.952 213.385 661.367 273.721 663.297 337.81 C 665.928 379.267 657.191 419.845 635.645 455.552 C 633.207 459.592 619.059 485.733 613.95 481.605 C 603.524 473.182 593.164 462.014 583.647 452.492 L 492.452 361.18 C 476.686 345.408 459.102 325.935 441.496 312.862 C 411.912 290.895 367.858 316.38 369.629 352.818 C 370.449 369.696 374.102 375.769 386.235 388.129 C 424.73 426.258 462.301 465.535 500.694 503.799 L 548.912 551.713 C 564.641 532.398 593.686 516.25 607.318 492.942 C 608.983 490.095 612.588 486.79 615.658 485.481 C 621.922 487.176 676.726 542.65 682.834 552.846 C 692.358 568.743 688.132 596.33 674.342 610.16 C 665.205 619.342 652.728 624.418 639.775 624.223 C 608.904 623.924 569.34 574.064 548.103 552.493 C 433.387 639.233 296.696 599.784 217.311 483.455 C 165.296 407.231 151.208 295.112 145.195 205.223 C 143.383 178.124 143.355 140.561 146.377 113.252 C 151.581 87.0957 176.362 81.0369 197.927 80.4936 z"/>
<path transform="translate(0,0)" fill="rgb(254,0,0)" d="M 1127.54 208.386 C 1129.97 208.046 1127.56 208.343 1130.29 208.154 C 1199.67 203.331 1271.45 234.485 1321.89 281.443 C 1360.46 317.347 1389.54 358.543 1391.61 413.741 C 1393.67 468.463 1367.19 508.132 1314.66 526.914 C 1299.78 532.842 1276.81 533.118 1265.16 544.727 C 1251.78 558.065 1241.34 620.394 1221.27 622.679 C 1197.83 625.35 1167.66 624.173 1144.5 624.096 L 993.133 624.126 C 964.217 624.133 934.187 625.592 905.645 621.536 C 897.728 620.969 890.065 610.435 893.593 602.923 C 909.885 568.228 937.73 533.215 960.059 502.063 L 998.567 447.591 C 1008.98 433.01 1024.3 414.512 1029.33 397.938 C 1025.42 378.583 1016.54 356.517 1014.86 337.674 C 1008 260.595 1056.5 215.842 1127.54 208.386 z"/>
</svg>