<svg version="1.1" xmlns="http://www.w3.org/2000/svg" style="display: block;" viewBox="0 0 1536 1536" width="384" height="384" preserveAspectRatio="none">
<path transform="translate(0,0)" fill="rgb(255,0,0)" d="M 702.608 144.485 C 726.267 144.624 752.769 144.977 776.301 147.861 C 899.225 163.513 1013.37 219.869 1100.54 307.944 C 1188.34 394.689 1244.55 508.352 1260.19 630.785 C 1263.35 656.754 1263.32 680.005 1263.82 705.623 C 1265.79 806.9 1236.58 905.043 1185.46 992.068 C 1173.26 1012.85 1149.47 1047.75 1132.3 1064.86 C 1135.29 1067.28 1138.16 1069.83 1140.91 1072.52 C 1194.75 1124 1250.24 1181.54 1303.18 1234.48 L 1352.87 1284.06 C 1361.83 1292.98 1379.58 1308.88 1385.67 1318.81 C 1400.25 1342.62 1389.89 1378.72 1362.97 1388.33 C 1325.01 1401.88 1307.36 1376.46 1284.22 1353.1 L 1241.52 1310.24 L 1080.34 1148.96 C 1073.96 1142.67 1070.44 1139.26 1065.02 1132.02 L 1064.1 1132.98 C 1054.02 1143.45 1030.95 1159.78 1018.78 1168.25 C 929.101 1229.66 823.185 1263.01 714.501 1264.05 C 566.991 1267.57 424.168 1212.12 317.681 1109.98 C 298.071 1090.9 278.846 1070.89 262.027 1049.27 C 187.539 953.558 142.623 832.293 144.291 710.447 C 144.656 683.839 144.379 657.758 147.853 631.22 C 160.011 539.102 194.685 451.402 248.808 375.876 C 275.203 339.002 312.538 299.16 347.501 270.186 C 429.607 203.175 528.987 160.743 634.173 147.787 C 658.623 144.921 678.13 144.773 702.608 144.485 z M 244.891 765.174 C 245.383 771.053 245.708 773.464 247.079 779.185 C 247.265 782.964 247.156 784.265 248.306 787.797 C 249.105 792.523 249.74 796.976 251.14 801.568 C 251.063 805.613 255.094 819.943 256.353 824.485 C 267.968 868.045 285.991 909.638 309.832 947.901 C 374.708 1052.66 478.618 1127.27 598.612 1155.27 C 718.681 1183.26 844.949 1162.36 949.599 1097.18 C 1053.62 1032.25 1127.6 928.66 1155.27 809.198 C 1183.22 688.929 1162.14 562.479 1096.68 457.785 C 1050.13 383.786 983.707 324.362 905.003 286.293 C 894.534 281.225 869.737 269.829 858.579 267.273 C 854.526 265.356 845.934 262.729 841.392 261.196 C 723.649 224.822 596.285 236.635 487.241 294.045 C 378.323 351.642 296.832 450.249 260.783 568.067 C 255.355 585.92 241.781 642.125 243.097 659.518 C 240.271 677.374 239.982 722.104 242.217 740.009 C 242.668 747.624 243.078 757.948 244.891 765.174 z"/>
<path transform="translate(0,0)" fill="rgb(255,0,0)" fill-opacity="0.533333" d="M 243.097 659.518 C 241.781 642.125 255.355 585.92 260.783 568.067 C 296.832 450.249 378.323 351.642 487.241 294.045 C 596.285 236.635 723.649 224.822 841.392 261.196 L 838.26 263.371 C 841.015 267.213 853.961 267.642 858.579 267.273 C 869.737 269.829 894.534 281.225 905.003 286.293 C 983.707 324.362 1050.13 383.786 1096.68 457.785 C 1162.14 562.479 1183.22 688.929 1155.27 809.198 C 1127.6 928.66 1053.62 1032.25 949.599 1097.18 C 844.949 1162.36 718.681 1183.26 598.612 1155.27 C 478.618 1127.27 374.708 1052.66 309.832 947.901 C 285.991 909.638 267.968 868.045 256.353 824.485 C 255.094 819.943 251.063 805.613 251.14 801.568 C 253.776 794.897 253.435 791.002 251.532 783.995 C 250.442 783.638 251.126 783.756 249.452 784.028 C 248.802 785.242 248.638 786.431 248.306 787.797 C 247.156 784.265 247.265 782.964 247.079 779.185 C 249.081 774.154 250.211 761.645 246.218 757.746 C 244.339 760.716 244.952 761.293 244.891 765.174 C 243.078 757.948 242.668 747.624 242.217 740.009 C 242.937 740.403 242.455 740.242 243.742 740.021 C 245.85 728.543 246.56 669.724 243.097 659.518 z"/>
<path transform="translate(0,0)" fill="rgb(255,0,0)" fill-opacity="0.47451" d="M 243.097 659.518 C 246.56 669.724 245.85 728.543 243.742 740.021 C 242.455 740.242 242.937 740.403 242.217 740.009 C 239.982 722.104 240.271 677.374 243.097 659.518 z"/>
<path transform="translate(0,0)" fill="rgb(255,0,0)" fill-opacity="0.490196" d="M 244.891 765.174 C 244.952 761.293 244.339 760.716 246.218 757.746 C 250.211 761.645 249.081 774.154 247.079 779.185 C 245.708 773.464 245.383 771.053 244.891 765.174 z"/>
<path transform="translate(0,0)" fill="rgb(255,0,0)" fill-opacity="0.490196" d="M 841.392 261.196 C 845.934 262.729 854.526 265.356 858.579 267.273 C 853.961 267.642 841.015 267.213 838.26 263.371 L 841.392 261.196 z"/>
<path transform="translate(0,0)" fill="rgb(255,0,0)" fill-opacity="0.498039" d="M 248.306 787.797 C 248.638 786.431 248.802 785.242 249.452 784.028 C 251.126 783.756 250.442 783.638 251.532 783.995 C 253.435 791.002 253.776 794.897 251.14 801.568 C 249.74 796.976 249.105 792.523 248.306 787.797 z"/>
</svg>