<?xml version="1.0" standalone="no"?>
<!DOCTYPE svg PUBLIC "-//W3C//DTD SVG 20010904//EN"
 "http://www.w3.org/TR/2001/REC-SVG-20010904/DTD/svg10.dtd">
<svg version="1.0" xmlns="http://www.w3.org/2000/svg"
 width="384.000000pt" height="384.000000pt" viewBox="0 0 384.000000 384.000000"
 preserveAspectRatio="xMidYMid meet">

<g transform="translate(0.000000,384.000000) scale(0.100000,-0.100000)"
fill="#000000" stroke="none">
<path d="M1575 3509 c-319 -44 -601 -184 -830 -414 -210 -209 -343 -459 -402
-752 -24 -122 -24 -404 0 -526 59 -293 192 -543 402 -752 207 -208 437 -332
733 -397 131 -29 414 -31 546 -5 197 40 372 113 539 223 l99 66 312 -310 c336
-335 334 -334 423 -317 49 9 109 69 118 118 17 89 18 87 -317 423 l-310 312
65 99 c109 164 185 346 224 540 26 131 24 414 -5 545 -65 296 -189 526 -397
733 -209 210 -459 344 -746 400 -100 20 -356 28 -454 14z m358 -324 c274 -41
525 -187 701 -407 338 -421 324 -1021 -32 -1435 -165 -191 -418 -330 -672
-368 -426 -65 -853 120 -1097 476 -154 225 -222 532 -178 804 45 277 189 524
407 699 243 195 558 278 871 231z"/>
</g>
</svg>
