<?xml version="1.0" standalone="no"?>
<!DOCTYPE svg PUBLIC "-//W3C//DTD SVG 20010904//EN"
 "http://www.w3.org/TR/2001/REC-SVG-20010904/DTD/svg10.dtd">
<svg version="1.0" xmlns="http://www.w3.org/2000/svg"
 width="384.000000pt" height="384.000000pt" viewBox="0 0 384.000000 384.000000"
 preserveAspectRatio="xMidYMid meet">

<g transform="translate(0.000000,384.000000) scale(0.100000,-0.100000)"
fill="#000000" stroke="none">
<path d="M1369 3629 c-352 -17 -540 -79 -705 -233 -207 -191 -273 -367 -294
-791 -13 -249 -13 -1128 0 -1370 23 -430 86 -600 299 -796 116 -107 257 -172
445 -204 271 -46 1341 -46 1612 0 215 37 338 99 479 240 188 188 244 348 265
764 13 253 13 1109 0 1362 -20 392 -75 564 -236 737 -192 208 -362 270 -793
292 -224 11 -840 11 -1072 -1z m1281 -248 c197 -34 285 -74 391 -182 111 -112
151 -202 181 -408 18 -123 18 -1619 0 -1742 -30 -207 -70 -297 -182 -409 -112
-112 -202 -152 -409 -182 -122 -18 -1300 -18 -1422 0 -207 30 -297 70 -409
182 -112 112 -152 202 -182 409 -18 123 -18 1619 0 1742 26 181 60 270 139
365 125 150 262 210 529 234 141 12 1283 4 1364 -9z"/>
<path d="M1070 2022 c-22 -10 -42 -32 -54 -56 -17 -36 -18 -43 -5 -79 8 -22
27 -50 42 -61 28 -21 34 -21 707 -21 673 0 679 0 707 21 15 11 34 39 42 61 13
36 12 43 -5 79 -38 77 -6 74 -744 74 -604 0 -658 -1 -690 -18z"/>
<path d="M1070 1222 c-22 -10 -42 -32 -54 -56 -17 -36 -18 -43 -5 -79 8 -22
27 -50 42 -61 27 -20 40 -21 307 -21 267 0 280 1 307 21 15 11 34 39 42 61 13
36 12 43 -5 79 -34 70 -53 74 -344 74 -223 0 -259 -2 -290 -18z"/>
</g>
</svg>
