<svg version="1.1" xmlns="http://www.w3.org/2000/svg" style="display: block;" viewBox="0 0 1536 1536" width="384" height="384" preserveAspectRatio="none">
<path transform="translate(0,0)" fill="rgb(254,0,0)" d="M 767.592 80.4617 C 819.993 81.0089 867.568 106.611 914.935 126.802 C 952.971 143.016 989.774 159.156 1028.81 173.035 C 1063.13 185.517 1097.85 196.876 1132.92 207.095 C 1180.14 220.873 1228.83 233.67 1274.38 252.412 C 1298.52 262.347 1322.32 275.948 1341.14 293.963 C 1379.6 330.76 1390.4 387.862 1391.07 439.071 C 1391.88 501.591 1392.35 565.725 1391.9 628.285 C 1391.52 679.544 1394.16 745.653 1388.2 795.828 C 1370.11 948.229 1290.83 1088.96 1185.28 1198.26 C 1105.18 1281.19 1006.17 1352.02 905.683 1408.2 C 880.261 1422.41 852.743 1437.92 825.22 1447.48 C 807.389 1453.67 789.533 1455.55 770.784 1456 C 750.826 1456.45 730.93 1453.62 711.888 1447.63 C 683.254 1438.31 650.134 1419.03 623.49 1404.2 C 383.068 1270.39 158.07 1045.6 144.91 755.298 C 142.097 693.23 144.106 626.746 144.142 564.326 L 144.362 478.668 C 145.201 381.67 151.177 297.182 254.835 254.967 C 331.765 223.638 412.219 206.923 490.347 179.069 C 527.07 166.118 563.321 151.865 599.03 136.337 C 650.98 113.729 710.513 81.8455 767.592 80.4617 z M 393.851 1055.86 C 399.439 1046.81 422.152 1025.25 431.04 1016.37 L 503.661 943.781 L 937.951 506.685 L 1048.67 395.668 C 1063.93 380.384 1098.13 344.937 1114.38 332.876 C 1089.97 325.951 1068.66 320.482 1043.96 312.529 C 986.814 293.961 930.683 272.399 875.801 247.934 C 857.457 239.936 783.736 205.597 767.545 206.283 C 745.546 209.424 686.092 237.018 662.437 247.378 C 632.601 260.601 602.444 273.085 571.993 284.82 C 514.023 307.231 456.488 324.071 396.851 341.219 C 369.934 348.958 301.022 367.332 283 385.953 C 268.547 400.886 270.176 478.476 270.141 499.984 L 270.073 599.199 L 270.065 693.835 C 270.07 704.149 270.059 714.475 270.11 724.789 C 270.578 818.167 300.548 913.691 350.548 992.531 C 359.914 1007.08 369.608 1021.41 379.622 1035.52 C 383.096 1040.48 391.4 1051.38 393.851 1055.86 z"/>
</svg>