<?xml version="1.0" standalone="no"?>
<!DOCTYPE svg PUBLIC "-//W3C//DTD SVG 20010904//EN"
 "http://www.w3.org/TR/2001/REC-SVG-20010904/DTD/svg10.dtd">
<svg version="1.0" xmlns="http://www.w3.org/2000/svg"
 width="384.000000pt" height="384.000000pt" viewBox="0 0 384.000000 384.000000"
 preserveAspectRatio="xMidYMid meet">

<g transform="translate(0.000000,384.000000) scale(0.100000,-0.100000)"
fill="#000000" stroke="none">
<path d="M2923 3465 c-126 -27 -126 -27 -802 -700 -348 -346 -660 -663 -692
-703 -93 -116 -122 -188 -202 -505 l-71 -283 20 -39 c13 -27 32 -46 59 -59
l39 -20 283 71 c317 80 389 109 505 202 40 32 357 344 704 692 477 480 637
647 658 686 57 110 68 247 27 365 -52 152 -188 269 -345 297 -74 14 -105 13
-183 -4z m185 -241 c80 -33 132 -111 132 -199 0 -66 -27 -119 -89 -180 l-51
-50 -152 153 -153 152 50 51 c28 28 68 60 90 70 49 23 123 24 173 3z m-323
-444 l150 -150 -525 -525 c-483 -482 -530 -526 -591 -555 -71 -33 -354 -109
-365 -97 -11 11 66 302 98 369 26 56 84 118 551 586 287 287 524 522 527 522
3 0 73 -68 155 -150z"/>
<path d="M1195 3149 c-230 -13 -332 -36 -459 -102 -147 -76 -271 -229 -320
-396 -44 -150 -50 -258 -51 -856 0 -610 6 -718 50 -891 67 -265 224 -422 490
-489 168 -43 283 -49 875 -50 583 0 682 5 845 46 243 62 423 242 483 484 32
124 42 238 48 530 6 308 4 323 -70 359 -36 17 -43 18 -79 5 -22 -8 -50 -27
-61 -42 -20 -27 -21 -45 -28 -335 -6 -305 -13 -374 -44 -481 -22 -78 -39 -107
-98 -169 -64 -68 -111 -95 -206 -121 -123 -33 -269 -41 -785 -41 -636 0 -788
13 -931 81 -155 73 -219 208 -244 510 -18 206 -7 1209 13 1309 27 136 53 188
131 266 123 123 211 143 658 153 290 6 308 7 335 27 15 11 34 39 42 61 13 36
12 43 -5 79 -33 67 -60 74 -274 72 -102 0 -243 -4 -315 -9z"/>
</g>
</svg>
