<svg version="1.1" xmlns="http://www.w3.org/2000/svg" style="display: block;" viewBox="0 0 1536 1536" width="384" height="384" preserveAspectRatio="none">
<path transform="translate(0,0)" fill="rgb(255,1,0)" d="M 768.664 80.4909 C 792.537 80.659 820.011 80.9671 843.831 83.4781 C 964.828 96.7262 1080.13 141.878 1177.96 214.313 C 1189.55 222.861 1200.99 231.858 1211.99 241.159 C 1221.21 248.947 1236.44 259.672 1234.98 273.25 C 1226.26 289.372 1194.69 309.926 1180.01 322.938 C 1170 331.812 1158.36 341.452 1148.15 350.356 C 1130.04 366.092 1112.45 382.43 1095.43 399.341 C 999.355 494.674 911.24 597.708 831.967 707.41 C 813.4 732.556 795.16 757.944 777.252 783.565 C 766.829 798.571 756.686 813.652 746.023 828.504 C 733.639 847.03 723.151 824.163 715.343 814.298 C 676.588 765.353 631.752 718.53 575.126 690.469 C 550.443 678.238 521.453 667.598 493.932 675.926 C 477.605 680.706 463.961 691.99 456.201 707.13 C 448.652 721.794 447.212 742.318 452.979 758.144 C 466.327 799.163 510.718 793.627 538.964 814.813 C 602.844 862.727 645.3 930.196 685.929 997.454 C 703.372 1026.33 752.171 1032.41 776.717 1007.13 C 795.793 987.491 809.143 961.126 824.681 937.507 C 844.251 907.813 864.258 878.411 884.697 849.309 C 1000.82 683.559 1134.61 516.976 1295.08 391.936 C 1334.21 361.441 1340.96 383.093 1361.54 417.352 C 1391.17 466.667 1412.66 519.243 1429.27 574.205 C 1432.36 582.866 1434.8 593.51 1436.96 602.595 C 1477.97 774.771 1454.09 960.1 1364.22 1113.49 C 1316.79 1194.44 1257.01 1262.07 1182.19 1318.4 C 1067.71 1405.47 928.406 1453.67 784.596 1455.98 C 593.651 1459.94 422.457 1391.44 284.922 1259.05 C 158.898 1135.99 85.6267 968.771 80.5784 792.702 C 79.9546 759.826 80.0603 720.382 83.7187 687.658 C 102.154 535.049 170.289 392.745 277.615 282.697 C 287.803 272.29 303.072 259.23 314.081 249.631 C 418.103 158.196 547.477 100.563 685.025 84.3846 C 713.907 80.9635 739.656 80.7929 768.664 80.4909 z"/>
</svg>