<svg version="1.1" xmlns="http://www.w3.org/2000/svg" style="display: block;" viewBox="0 0 1536 1536" width="384" height="384" preserveAspectRatio="none">
<path transform="translate(0,0)" fill="rgb(254,0,0)" d="M 307.753 208.515 C 429.143 206.809 554.326 208.342 676.012 208.343 L 801.102 208.489 C 858.597 208.875 916.986 206.629 964.026 244.915 C 998.367 272.865 1011.81 322.485 1016.28 364.721 C 1026.48 363.484 1047.82 366.771 1058.35 368.278 C 1259.93 397.108 1425.63 562.093 1452.26 764.404 C 1456.08 793.397 1455.9 822.892 1455.91 852.25 L 1455.93 937.842 C 1455.97 969.033 1458.5 1017.29 1453.43 1046.4 C 1441.8 1113.13 1352.75 1165.47 1292.17 1173.15 C 1283.68 1193.38 1275.79 1213.31 1263.59 1231.66 C 1231.53 1279.4 1181.96 1312.61 1125.6 1324.08 C 1066.59 1335.89 1005.3 1323.52 955.491 1289.75 C 919.345 1265.44 880.037 1216.78 871.474 1173.17 C 854.122 1174.4 829.805 1173.7 812.015 1173.7 L 685.626 1173.81 C 681.221 1173.84 666.852 1172.21 664.687 1174.39 C 659.921 1192.11 652.524 1209.02 642.743 1224.55 C 612.14 1274.1 563.101 1309.45 506.423 1322.82 C 447.552 1336.22 385.769 1325.44 334.908 1292.91 C 296.008 1268.56 254.758 1216.45 244.46 1171.84 L 243.35 1171.86 C 232.483 1172.02 221.654 1169.34 211.32 1168.19 C 136.586 1159.87 82.9637 1098.25 81.067 1023.66 C 80.3248 994.48 80.1585 963.299 80.1357 932.953 L 79.9671 784.237 C 94.8176 785.077 116.102 784.41 131.548 784.415 L 231.649 784.439 L 326.15 784.433 C 347.516 784.425 369.37 784.548 390.268 783.354 C 459.488 779.398 522.647 721.367 525.974 650.846 C 526.889 631.454 525.306 609.756 518.55 591.475 C 557.203 587.29 585.008 575.141 613.179 547.65 C 639.46 522.308 654.293 487.361 654.263 450.852 C 654.5 410.256 641.943 376.541 613.543 347.273 C 569.259 301.636 518.03 304.207 459.908 304.211 L 381.977 304.223 L 94.1503 304.214 C 98.303 285.98 111.313 266.994 124.145 253.791 C 171.865 204.689 244.758 208.843 307.753 208.515 z M 1018.04 901.175 C 1132.57 867.092 1256.14 930.856 1290.87 1046.08 C 1292.2 1050.49 1311.64 1044.83 1314.85 1043.14 C 1319.87 1040.25 1323.21 1036.74 1327.42 1032.77 C 1331.5 1016.18 1330.01 963.034 1330 942.379 L 1329.95 863.057 C 1329.99 836.17 1330.68 808.663 1326.52 782.002 C 1319.73 738.558 1306.77 698.993 1284.79 660.765 C 1237.51 578.526 1156.6 518.215 1063.9 497.511 C 1050.4 494.432 1030.39 492.689 1018.56 489.287 C 1020.84 506.017 1019.79 545.477 1019.77 564.188 L 1019.7 704.646 L 1019.75 831.815 C 1019.75 853.063 1021.11 880.469 1018.04 901.175 z M 1087.51 1202.48 C 1138.7 1198.69 1177.02 1153.94 1172.89 1102.78 C 1168.76 1051.61 1123.77 1013.59 1072.63 1018.06 C 1021.97 1022.49 984.38 1066.97 988.471 1117.66 C 992.561 1168.35 1036.8 1206.23 1087.51 1202.48 z M 464.509 1202.28 C 515.35 1197.24 552.474 1151.94 547.421 1101.1 C 542.367 1050.26 497.05 1013.15 446.212 1018.21 C 395.394 1023.28 358.3 1068.57 363.351 1119.39 C 368.403 1170.21 413.688 1207.32 464.509 1202.28 z"/>
<path transform="translate(0,0)" fill="rgb(254,0,0)" d="M 130.942 400.442 L 392.429 400.375 L 469.636 400.307 C 488.441 400.296 508.133 399.488 526.675 402.277 C 533.687 403.019 538.596 407.548 544.209 411.637 C 563.285 425.53 564.482 461.431 550.073 478.665 C 540.045 490.659 527.763 494.632 512.25 495.979 C 429.22 497.724 341.046 496.253 257.561 496.268 L 172.967 496.283 C 155.421 496.287 139.572 496.382 122.132 495.244 C 75.3934 492.195 64.5919 425.966 104.498 405.839 C 114.115 400.988 120.526 400.886 130.942 400.442 z"/>
<path transform="translate(0,0)" fill="rgb(254,0,0)" d="M 130.941 592.442 C 182.223 590.951 241.095 592.391 292.932 592.34 L 352.581 592.304 C 366.406 592.305 381.064 591.643 394.82 593.616 C 431.088 598.817 443.17 645.409 420.946 671.691 C 410.864 683.612 399.158 686.721 384.25 687.979 C 328.967 689.137 270.92 688.22 215.405 688.282 L 159.815 688.328 C 137.653 688.333 113.442 691.239 95.829 676.241 C 76.2516 659.569 74.8282 626.662 91.4517 607.638 C 102.406 595.101 115.521 593.111 130.941 592.442 z"/>
</svg>