<svg version="1.1" xmlns="http://www.w3.org/2000/svg" style="display: block;" viewBox="0 0 1536 1536" width="384" height="384" preserveAspectRatio="none">
<path transform="translate(0,0)" fill="rgb(0,0,0)" d="M 621.788 848.418 C 630.247 848.135 638.711 847.986 647.175 847.971 L 819.701 847.927 C 854.081 847.924 899.647 846.697 933.038 849.869 C 1017.46 858.333 1096.33 895.826 1156.19 955.95 C 1224.43 1024.05 1263.15 1116.26 1263.98 1212.66 C 1263.96 1280.08 1231.09 1336.34 1173.09 1369.89 C 1126.64 1396.76 1083.24 1392.35 1031.72 1392.36 L 915.5 1392.33 L 584.068 1392.36 L 493.112 1392.41 C 468.487 1392.41 438.602 1393.4 414.799 1388.79 C 384.036 1382.91 355.401 1368.93 331.85 1348.28 C 296.924 1317.71 275.599 1274.5 272.581 1228.19 C 266.6 1138.74 304.716 1038.07 364.075 972.023 C 433.148 895.165 519.742 855.157 621.788 848.418 z M 901.5 1295.96 L 1024.29 1296.02 C 1038.57 1296.02 1056.95 1295.03 1070.9 1296 C 1125.9 1300.25 1168.84 1267.26 1167.88 1209.88 C 1165.89 1090.64 1081.39 982.646 965.65 953.253 C 915.044 940.401 854.664 944.263 802.127 944.302 C 748.233 943.995 694.338 944.015 640.445 944.361 L 636.042 944.456 C 559.367 946.928 493.644 974.529 440.419 1031.12 C 393.893 1080.58 367.537 1148.75 368.109 1216.86 C 368.286 1238.01 377.656 1260.03 393.18 1274.2 C 405.375 1285.33 418.218 1292.14 434.666 1294.29 C 453.28 1296.73 472.917 1296 491.754 1295.99 L 579.984 1295.97 L 901.5 1295.96 z"/>
<path transform="translate(0,0)" fill="rgb(0,0,0)" d="M 750.517 144.471 C 918.093 134.886 1061.73 262.926 1071.38 430.497 C 1081.03 598.069 953.049 741.754 785.481 751.474 C 617.818 761.199 474.034 633.128 464.376 465.461 C 454.718 297.795 582.847 154.062 750.517 144.471 z M 771.5 655.763 C 886.168 653.754 977.534 559.238 975.657 444.568 C 973.78 329.898 879.369 238.424 764.697 240.169 C 649.839 241.917 558.183 336.515 560.063 451.371 C 561.943 566.228 656.646 657.775 771.5 655.763 z"/>
</svg>