<svg version="1.1" xmlns="http://www.w3.org/2000/svg" style="display: block;" viewBox="0 0 1536 1536" width="384" height="384" preserveAspectRatio="none">
<path transform="translate(0,0)" fill="rgb(254,1,0)" d="M 637.158 848.474 L 646.658 848.375 L 824.047 848.385 C 861.936 848.394 906.653 846.284 943.872 850.592 C 1122.61 871.279 1267.07 1031.65 1263.79 1212.53 C 1262.86 1263.72 1251.25 1302.66 1213.95 1339.66 C 1157.69 1398.35 1100.23 1392.26 1026.03 1392.27 L 900.5 1392.24 L 586.749 1392.27 L 495.393 1392.27 C 466.187 1392.27 430.392 1394.39 402.338 1386.57 C 323.403 1364.57 273.595 1298.84 272.332 1218.21 C 270.233 1123.11 306.172 1031.1 372.176 962.598 C 446.92 885.533 529.952 850.165 637.158 848.474 z"/>
<path transform="translate(0,0)" fill="rgb(254,1,0)" d="M 765.626 143.153 C 933.942 141.826 1071.47 277.186 1072.82 445.502 C 1074.17 613.818 938.821 751.362 770.505 752.729 C 602.162 754.096 464.59 618.725 463.242 450.381 C 461.895 282.038 597.282 144.481 765.626 143.153 z"/>
</svg>